<?xml version="1.0" encoding="utf-8"?>
<!-- Generator: Adobe Illustrator 22.1.0, SVG Export Plug-In . SVG Version: 6.00 Build 0)  -->
<svg version="1.1" id="Layer_1" xmlns="http://www.w3.org/2000/svg" xmlns:xlink="http://www.w3.org/1999/xlink" x="0px" y="0px"
	 viewBox="0 0 850.4 566.9" style="enable-background:new 0 0 850.4 566.9;" xml:space="preserve">
<style type="text/css">
	.st0{fill:url(#SVGID_1_);}
	.st1{opacity:0.7;fill:url(#SVGID_2_);}
	.st2{fill:#FFD524;}
	.st3{fill:#FFC32E;}
	.st4{fill:#FFE2B2;}
	.st5{fill:#3D4051;}
	.st6{fill:#FF582A;}
	.st7{fill:#AE1E0B;}
	.st8{fill:#009FDA;}
	.st9{fill:#0071B8;}
	.st10{fill:#484D5B;}
	.st11{fill:#CADFEF;}
	.st12{fill:#FFFFFF;}
	.st13{fill:#8D5115;}
	.st14{fill:#774206;}
	.st15{fill:#00C4D8;}
	.st16{fill:#008C41;}
	.st17{fill:#00B255;}
</style>
<linearGradient id="SVGID_1_" gradientUnits="userSpaceOnUse" x1="277.1667" y1="271.4784" x2="850.5434" y2="271.4784">
	<stop  offset="0" style="stop-color:#8EE5B6"/>
	<stop  offset="1" style="stop-color:#00C4D8"/>
</linearGradient>
<path class="st0" d="M850.5,0.9v541.2c-39.9-9-77.8-33.6-96.4-71.3c-11.7-23.8-16.5-53.1-37-69.2c-17.2-13.5-41.2-13.6-61.9-7.4
	c-20.7,6.2-39.4,18-59.2,26.8c-30.9,13.8-65.8,20.4-98.4,12c-32.7-8.3-62.3-33.5-71.1-67.2c-9.5-36.5,4.2-81-19.6-109.6
	c-26.6-32-81-19.5-110.6-48.6c-18.9-18.6-21.7-49-17.8-75.8c3.9-26.8,13.2-52.7,14.1-79.7c0.6-17.8-3.7-36.9-13.5-51H850.5z"/>
<linearGradient id="SVGID_2_" gradientUnits="userSpaceOnUse" x1="590.8414" y1="241.874" x2="440.8714" y2="412.8188">
	<stop  offset="0" style="stop-color:#A7EBEB"/>
	<stop  offset="1" style="stop-color:#A7EBEB;stop-opacity:0"/>
</linearGradient>
<path class="st1" d="M837.5,487.2c-35.4-2.2-72.3-24.4-80.7-60.2c-7.5-31.9,7.8-69.7-11-96.2c-14.4-20.4-44-23.3-66.4-13.6
	c-22.5,9.7-39.5,29.1-55.9,47.8c-16.3,18.7-33.5,38-56.1,47.4c-23.3,9.8-51.1,7.4-72.6-6.2c-21.5-13.6-36.3-38.1-38.8-64.2
	c-2.3-25.2,6.2-49.9,8.8-75.1c2.6-25.2-3.2-54.7-24.6-66.7c-18.3-10.3-40.7-3.9-61,0.8c-20.3,4.8-44.9,6.3-58.7-9.8
	c-15.8-18.5-7.5-47.7,3.5-69.7c19.3-38.8,45.1-78.3,46.4-120.8h-91.2c9.8,14.1,14.1,33.2,13.5,51c-0.9,27.1-10.2,53-14.1,79.7
	c-3.9,26.8-1.1,57.2,17.8,75.8c29.5,29.1,84,16.6,110.6,48.6c23.8,28.6,10.1,73.1,19.6,109.6c8.8,33.7,38.5,58.9,71.1,67.2
	c32.6,8.4,67.5,1.8,98.4-12c19.8-8.8,38.5-20.6,59.2-26.8c20.7-6.2,44.7-6.1,61.9,7.4c20.5,16.1,25.2,45.5,37,69.2
	c18.6,37.7,56.5,62.3,96.4,71.3v-54.8C846.2,487.4,841.8,487.4,837.5,487.2z M701.1,359c-9.5,5.9-31.7,5.5-31.7-10.3
	c0-13.3,19.3-22.2,30.1-21.9C719.6,327.2,713.5,351.2,701.1,359z M738.9,354.3c-0.6,1.7-1.9,3.3-3.5,3.9c-1.8,0.7-3.9,0.2-5.6-0.7
	c-2.8-1.5-5-4.4-5.7-7.7c-0.7-3.5,0.2-8.5,3.8-10c2.5-1,5.8-0.1,7.8,1.6c2.1,1.8,3.3,4.6,3.7,7.3
	C739.5,350.7,739.5,352.6,738.9,354.3z"/>
<g>
	<g>
		<path class="st2" d="M749.6,351.2l61.8-100.8c1.9-3,5.7-3.9,8.6-2l6.4,4.2c2.9,1.9,3.8,5.9,1.9,8.9l-61.8,100.8l-10.8,7.6
			l-10.1,7.1l1.9-12.5L749.6,351.2z"/>
		<path class="st3" d="M758,356.8l65.1-106.3l3.2,2.1c2.9,1.9,3.8,5.9,1.9,8.9l-61.8,100.8L758,356.8z"/>
		<polygon class="st4" points="749.6,351.2 766.4,362.4 755.7,369.9 745.6,377 747.5,364.5 		"/>
		<polygon class="st5" points="747.5,364.5 755.7,369.9 745.6,377 		"/>
		<path class="st6" d="M805,260.7l6.3-10.3c1.9-3,5.7-3.9,8.6-2l6.4,4.2c2.9,1.9,3.8,5.9,1.9,8.9l-6.3,10.3L805,260.7z"/>
		<polygon class="st5" points="805,260.7 821.9,271.9 818.1,278 801.3,266.8 		"/>
		<path class="st7" d="M813.5,266.3l9.7-15.8l3.2,2.1c2.9,1.9,3.8,5.9,1.9,8.9l-6.3,10.3L813.5,266.3z"/>
	</g>
	<g>
		<path class="st8" d="M355.7,165.8L464.8,128c3.3-1.1,6.8,0.7,7.9,4.1l2.4,7.4c1.1,3.4-0.7,7.1-3.9,8.2L362,185.5l-12.9-1.2
			l-12.1-1.1l9.1-8.5L355.7,165.8z"/>
		<path class="st9" d="M358.9,175.6l115-39.9l1.2,3.7c1.1,3.4-0.7,7.1-3.9,8.2L362,185.5L358.9,175.6z"/>
		<polygon class="st4" points="355.7,165.8 362,185.5 349.1,184.3 337,183.2 346,174.8 		"/>
		<polygon class="st5" points="346,174.8 349.1,184.3 337,183.2 		"/>
		<path class="st2" d="M453.6,131.8l11.2-3.9c3.3-1.1,6.8,0.7,7.9,4.1l2.4,7.4c1.1,3.4-0.7,7.1-3.9,8.2l-11.2,3.9L453.6,131.8z"/>
		<polygon class="st5" points="453.6,131.8 460,151.6 453.3,153.9 447,134.1 		"/>
		<path class="st3" d="M456.8,141.7l17.1-5.9l1.2,3.7c1.1,3.4-0.7,7.1-3.9,8.2l-11.2,3.9L456.8,141.7z"/>
	</g>
	<g>
		<g>
			<path class="st5" d="M573.8,173.3l-76.4,27.2l13.5,40.4c28.2,4.1,56.6-6.1,76.3-27.5L573.8,173.3z"/>
			<g>
				<polygon class="st5" points="617.8,160.3 549,225.1 456.4,218.6 466,209.5 471.2,204.6 525.2,153.8 597.9,158.9 604.9,159.4 
									"/>
			</g>
			<g>
				<polygon class="st10" points="604.9,159.4 545.7,215.1 466,209.5 471.2,204.6 525.2,153.8 597.9,158.9 				"/>
			</g>
		</g>
		<g>
			<g>
				<polygon class="st2" points="453.4,274.1 449.7,273.8 454.6,217.2 535.9,182.5 537.3,186.1 458.1,219.9 				"/>
			</g>
			<path class="st2" d="M453.5,253l-0.8-0.3c-2.3,0.9-10.4,5.6-12,26.6l16.7,2.7C461.9,261.6,455.5,254.6,453.5,253z"/>
		</g>
	</g>
	<g>
		<g>
			<path class="st11" d="M786.9,127.2c-2.3-4.5-0.6-10.2,3.8-12.6c4.4-2.4,9.8-0.6,12.1,3.9c2.3,4.5,0.6,10.2-3.8,12.6
				C794.7,133.5,789.2,131.8,786.9,127.2z M801.5,119.3c-1.9-3.8-6.4-5.3-10.1-3.3c-3.7,2-5.1,6.7-3.2,10.5
				c1.9,3.8,6.4,5.3,10.1,3.3C802,127.8,803.4,123.1,801.5,119.3z"/>
		</g>
		<polygon class="st12" points="758.7,162.3 742.8,130.7 745.1,129.5 761,161 		"/>
		<g>
			<g>
				<g>
					<polygon class="st11" points="712.8,190.2 705.6,197.7 714,191.8 721.4,185.5 720.2,183.9 					"/>
				</g>
				<g>
					<g>
						<polygon class="st5" points="791.6,130.3 719.5,192.3 715.8,187.6 787.9,125.7 						"/>
					</g>
				</g>
				<g>
					<g>
						<path class="st12" d="M730.2,186.7c-2.4,2-5.8,1.7-7.8-0.8c-1.9-2.5-1.6-6.1,0.7-8.1c2.4-2,5.8-1.7,7.8,0.8
							C732.9,181,732.5,184.6,730.2,186.7z"/>
					</g>
				</g>
				<g>
					<g>
						<g>
							<path class="st11" d="M728.7,184.8c-1.3,1.2-3.3,1-4.5-0.4c-1.1-1.4-0.9-3.5,0.4-4.6c1.3-1.2,3.3-1,4.5,0.4
								C730.2,181.5,730,183.6,728.7,184.8z"/>
						</g>
					</g>
				</g>
			</g>
			<g>
				<polygon class="st11" points="695,155 685,156.9 694.5,153 703.7,150.3 704.3,152.3 				"/>
			</g>
			<g>
				<g>
					<g>
						<polygon class="st5" points="787.3,121.7 697.2,148.1 698.8,153.9 788.9,127.6 						"/>
					</g>
				</g>
			</g>
			<g>
				<polygon class="st5" points="806.1,115.5 791.9,123.2 793,125.3 807.2,117.6 				"/>
			</g>
			<path class="st11" d="M744.5,149.9L744.5,149.9c-0.4-0.9-0.1-1.9,0.7-2.4l11.5-6.3c0.8-0.4,1.8-0.1,2.3,0.7l0,0
				c0.4,0.9,0.1,1.9-0.7,2.4l-11.5,6.3C746,151.1,745,150.8,744.5,149.9z"/>
		</g>
		<g>
			<path class="st12" d="M792.3,131.6c-3,1.7-6.8,0.4-8.4-2.7c-1.6-3.2-0.4-7,2.6-8.7c3-1.7,6.8-0.4,8.4,2.7
				C796.5,126.1,795.3,130,792.3,131.6z"/>
		</g>
		<g>
			<path class="st11" d="M791,129.1c-1.7,0.9-3.8,0.2-4.7-1.5c-0.9-1.8-0.2-3.9,1.5-4.9c1.7-0.9,3.8-0.2,4.7,1.5
				C793.4,126,792.7,128.2,791,129.1z"/>
		</g>
		<g>
			<path class="st12" d="M804.5,118.9l-1-2c-0.6-1.1-0.2-2.6,1-3.2l19.3-10.5c1.1-0.6,2.5-0.2,3,1l1,2c0.6,1.1,0.2,2.6-1,3.2
				l-19.3,10.5C806.5,120.5,805.1,120.1,804.5,118.9z"/>
		</g>
	</g>
	<g>
		<path class="st11" d="M609.4,413.8c0,0-11.6-29.1-34.4-31.8s-67.5,24.6-144.4,24.6l-15.1,23.8h193.9V413.8z"/>
		<path class="st12" d="M609.4,413.8c0,0,1.9-25.5-10.3-32c-15.1-8-71.1,9.2-138.2-39.2l-20.8,42.5c0,0,24.6,16.4,67.2,21.1
			C561.6,412.1,583.9,378.7,609.4,413.8z"/>
		<path class="st11" d="M609.4,413.8c0,0,11.6-29.1,34.4-31.8c22.8-2.7,67.5,24.6,144.4,24.6l15.1,23.8H609.4V413.8z"/>
		<path class="st12" d="M609.4,410.4c0,0,5.5-29.1,28.4-32.2c22.8-3.1,74.8,18.8,89.3,20.4c14.5,1.6,57.6,3,57.6,3l8,12.2
			c0,0-49.9-0.5-65.1-2.3c-18.7-2.2-59.2-26.5-86.7-22.4c-27.5,4-30.6,24.7-30.6,24.7L609.4,410.4z"/>
		<g>
			<rect x="406.2" y="430.5" class="st13" width="410.2" height="11.9"/>
			<path class="st13" d="M623.9,452.1h-29.1c-8.3,0-15.1-7-15.1-15.7l0,0H639l0,0C639,445.1,632.3,452.1,623.9,452.1z"/>
			<path class="st14" d="M621.4,443.3h-24c-6.9,0-12.4-5.8-12.4-12.9l0,0l24.4-20l24.4,20l0,0C633.8,437.5,628.2,443.3,621.4,443.3z
				"/>
			<path class="st2" d="M633.8,430.4c0,2.8-0.9,5.5-2.4,7.6l-22-18l-22,18c-1.5-2.1-2.4-4.8-2.4-7.6l24.4-20L633.8,430.4z"/>
		</g>
	</g>
	<g>
		<g>
			<path class="st15" d="M440.3,113.9c-1.2,2.7-4.3,4-7,2.7l-12.1-5.7c-0.4-0.2-0.5-0.6-0.4-1c0.2-0.4,0.6-0.6,1-0.4l12.1,5.7
				c1.9,0.9,4.1,0,5-1.9c0.9-2,0-4.3-1.9-5.2l-14-6.6c-1.3-0.6-2.9,0-3.5,1.4c-0.6,1.4,0,3,1.3,3.6l11.5,5.5c0.8,0.4,1.7,0,2.1-0.8
				c0.4-0.8,0-1.8-0.8-2.1l-8.5-4c-0.4-0.2-0.5-0.6-0.4-1c0.2-0.4,0.6-0.6,1-0.4l8.5,4c1.5,0.7,2.2,2.6,1.5,4.2
				c-0.7,1.6-2.5,2.3-4,1.6l-11.5-5.5c-2.1-1-3-3.5-2-5.7c0.9-2.1,3.4-3.1,5.5-2.1l14,6.6C440.4,107.9,441.5,111.2,440.3,113.9z"/>
		</g>
		<g>
			<path class="st15" d="M421.3,223.3c0.3-0.1,0.6-0.3,0.8-0.4c2.8-1.5,4.2-3.4,4-5.2c-0.2-2.3-2.8-3.9-6.7-4.6
				c0.4-4.1-0.5-7.1-2.5-7.9c-2-0.8-4.6,0.7-7.1,4c-3.3-2.2-6.2-2.9-7.9-1.4c-1.4,1.2-1.6,3.6-0.5,6.7c0.1,0.3,0.2,0.6,0.3,0.9
				c-3.2,1.5-5.1,3.6-4.9,5.7c0.2,1.6,1.5,2.9,3.6,3.7c0.9,0.4,1.9,0.7,3.1,0.9c-0.4,4.1,0.5,7.1,2.5,7.9c2,0.8,4.6-0.8,7.1-4
				c1,0.7,1.9,1.2,2.8,1.6c2.1,0.9,3.9,0.9,5.1-0.1C422.7,229.6,422.7,226.8,421.3,223.3z M422.1,215.4c1.6,0.7,2.6,1.6,2.7,2.5
				c0.1,1.2-1.1,2.6-3.3,3.8c-0.2,0.1-0.5,0.3-0.8,0.4c-0.6-1.2-1.3-2.5-2.2-3.9c0.3-1.2,0.6-2.4,0.8-3.6
				C420.4,214.8,421.3,215,422.1,215.4z M412.1,224.3c-0.9,0.1-1.7,0.2-2.5,0.2c-0.6-0.6-1.1-1.2-1.7-1.9c-0.6-0.8-1.2-1.5-1.7-2.3
				c0.3-0.9,0.6-1.8,0.9-2.8c0.4-0.9,0.8-1.8,1.2-2.7c0.9-0.2,1.8-0.3,2.8-0.4c0.9-0.1,1.7-0.1,2.5-0.2c0.6,0.6,1.1,1.2,1.7,1.9
				c0.6,0.8,1.2,1.6,1.7,2.3c-0.3,0.9-0.6,1.8-0.9,2.8c-0.4,0.9-0.8,1.8-1.2,2.7C414,224,413.1,224.2,412.1,224.3z M414.1,225.5
				c-0.4,0.7-0.8,1.3-1.2,1.9c-0.6-0.5-1.2-1-1.9-1.6c0.4,0,0.8-0.1,1.2-0.1C412.9,225.7,413.5,225.6,414.1,225.5z M407.7,224.5
				c-0.8,0-1.6-0.1-2.4-0.2c0.1-0.7,0.3-1.5,0.4-2.2c0.4,0.5,0.7,1,1.1,1.5C407.1,223.9,407.4,224.2,407.7,224.5z M405.2,218.7
				c-0.5-0.9-1-1.7-1.4-2.6c0.8-0.3,1.8-0.6,2.7-0.9c-0.2,0.6-0.5,1.1-0.7,1.7C405.6,217.5,405.4,218.1,405.2,218.7z M409.2,213.1
				c0.4-0.7,0.8-1.3,1.2-1.9c0.6,0.5,1.2,1,1.8,1.6c-0.4,0-0.8,0.1-1.2,0.1C410.3,213,409.7,213,409.2,213.1z M415.5,214.2
				c0.8,0,1.6,0.1,2.4,0.2c-0.1,0.7-0.3,1.5-0.4,2.2c-0.4-0.5-0.7-1-1.1-1.5C416.1,214.8,415.8,214.5,415.5,214.2z M418,220
				c0.5,0.9,1,1.8,1.4,2.6c-0.9,0.3-1.8,0.6-2.7,0.9c0.2-0.6,0.5-1.1,0.7-1.7C417.6,221.1,417.8,220.6,418,220z M416.5,206.5
				c1.2,0.5,1.9,2.9,1.6,6.3c-1.2-0.1-2.5-0.2-3.9-0.2c-1-1-2-1.9-3-2.7C413.2,207.3,415.3,206,416.5,206.5z M403,208.8
				c0.7-0.6,2-0.6,3.6,0.1c0.8,0.3,1.6,0.8,2.5,1.4c-0.6,0.9-1.2,2-1.8,3.1c-1.5,0.3-2.9,0.7-4.1,1.2c-0.1-0.3-0.2-0.5-0.3-0.8
				C402.1,211.4,402.1,209.6,403,208.8z M398.4,220.8c-0.1-1.3,1.4-2.9,4-4.1c0.6,1.3,1.3,2.6,2.2,3.8c-0.3,1.2-0.6,2.4-0.8,3.6
				C400.6,223.4,398.6,222.2,398.4,220.8z M406.7,232.1c-1.2-0.5-1.9-2.9-1.6-6.3c1.2,0.1,2.5,0.2,3.9,0.2c1,1,2,1.9,3,2.7
				C410,231.4,407.9,232.7,406.7,232.1z M420.2,229.8c-1,0.9-3.3,0.4-6.1-1.5c0.6-0.9,1.2-2,1.8-3.2c1.5-0.3,2.9-0.7,4.1-1.2
				C421.1,226.8,421.2,229,420.2,229.8z"/>
			<path class="st15" d="M412.6,216.6c-1.4-0.6-3,0.1-3.6,1.6c-0.6,1.5,0.1,3.2,1.6,3.8c1.4,0.6,3-0.1,3.6-1.6
				C414.8,218.9,414.1,217.2,412.6,216.6z"/>
		</g>
		<g>
			<path class="st15" d="M807.2,345.2c-1.1,3.8,0.7,7.8,4,9.4l-1.1,3.8c-1.7,0.1-3.2,1.1-3.9,2.9l8.1,2.5c0.4-1.8-0.4-3.6-1.7-4.6
				l1.1-3.8c3.7,0.4,7.2-1.9,8.3-5.7l2.9-10.1l-14.8-4.5L807.2,345.2z"/>
			<path class="st15" d="M814.9,364.7l-9.7-3c-0.4-0.1-0.9,0.1-1,0.6c-0.1,0.4,0.1,0.9,0.5,1l9.7,3c0.4,0.1,0.9-0.1,1-0.6
				C815.6,365.3,815.3,364.9,814.9,364.7z"/>
			<path class="st15" d="M802.4,339.3c-0.7,2.4,0.6,4.8,2.9,5.5l0.8,0.3l0.5-1.7l-0.8-0.3c-1.4-0.4-2.2-1.9-1.7-3.3
				c0.4-1.4,1.8-2.2,3.2-1.8l0.8,0.3l0.5-1.7l-0.8-0.3C805.4,335.6,803.1,337,802.4,339.3z"/>
			<path class="st15" d="M826.1,342l-0.8-0.3l-0.5,1.7l0.8,0.3c1.4,0.4,2.2,1.9,1.7,3.3c-0.4,1.4-1.8,2.2-3.2,1.8l-0.8-0.3l-0.5,1.7
				l0.8,0.3c2.3,0.7,4.7-0.7,5.3-3C829.7,345.1,828.4,342.7,826.1,342z"/>
		</g>
		<g>
			<path class="st15" d="M811.5,178.6l-2.8-5.1l-7.4,4.4l2.8,5.1c-1.1,2.3-1.1,5.1,0.2,7.5c2.1,3.8,6.8,5.2,10.5,3
				c3.7-2.2,5-7.1,2.9-10.9C816.3,180.2,814,178.8,811.5,178.6z M813.6,191.4c-2.6,1.5-5.8,0.6-7.3-2.1c0,0,0,0,0-0.1l9.3-5.5
				c0,0,0,0,0,0C817.1,186.5,816.2,189.8,813.6,191.4z"/>
			<path class="st15" d="M800.7,176.6l7.2-4.3c0.7-0.4,1-1.4,0.6-2.1c-0.4-0.8-1.3-1-2.1-0.6l-7.2,4.3c-0.7,0.4-1,1.4-0.6,2.1
				C799.1,176.8,800,177,800.7,176.6z"/>
		</g>
		<g>
			<path class="st15" d="M666.3,131c1.9-2.2,2-5.6,0.1-7.8c-0.6-0.7-1.4-1.3-2.2-1.6l-0.4-2.6c-0.2-1.5-1.4-2.6-2.9-2.7l-9.6-0.7
				c-1.4-0.1-2.8,0.8-3.2,2.2l-0.8,2.6c-0.8,0.2-1.6,0.6-2.3,1.3c-2.2,2-2.6,5.3-1,7.8l3.5-3.2l0.8,0.9c-2.8,3.2-3.2,8-0.8,11.6
				l-1.7,1.5c-0.4,0.4-0.5,1-0.1,1.5c0.4,0.4,1,0.5,1.4,0.1l1.7-1.5c3.1,3,7.7,3.3,11.2,0.9l1.6,2c0.4,0.4,1,0.5,1.4,0.1
				c0.4-0.4,0.5-1,0.1-1.5l-1.6-2c2.9-3.2,3.2-8.1,0.8-11.7l0.9-0.8L666.3,131z M661.2,132l-5.8,3.1c-0.2,0.1-0.3,0.1-0.5,0.1
				c-0.2,0-0.5-0.1-0.6-0.3l-4.1-4.5c-0.4-0.4-0.4-1.1,0-1.5c0.4-0.4,1-0.4,1.4,0l3.6,3.9l5.2-2.8c0.5-0.3,1.1-0.1,1.3,0.4
				C661.8,131.1,661.7,131.7,661.2,132z M658.9,122.1l3.1,3.7l-0.9,0.8c-1.2-1.2-2.7-1.9-4.3-2.3l0.1-1.3c0-0.7-0.4-1.3-1.1-1.3
				c-0.6,0-1.2,0.5-1.3,1.1l-0.1,1.3c-1.6,0.1-3.2,0.6-4.6,1.6l-0.8-0.9l3.5-3.2c-1.1-1-2.4-1.5-3.8-1.5l0.6-2
				c0.3-0.8,1-1.4,1.9-1.3l9.6,0.7c0.8,0.1,1.5,0.7,1.7,1.6l0.3,2C661.5,121,660.1,121.3,658.9,122.1z"/>
			<g>
				<path class="st15" d="M667.6,119c-0.7-0.5-1.5,0.6-0.7,1.1c1.9,1.3,2.9,3.4,2.9,5.8c0,0.9,1.3,1,1.3,0.1
					C671.1,123.1,669.9,120.5,667.6,119z"/>
				<path class="st15" d="M670.2,117.2c-0.7-0.5-1.5,0.6-0.7,1.1c1.9,1.3,2.9,3.4,2.9,5.8c0,0.9,1.3,1,1.3,0.1
					C673.7,121.4,672.4,118.8,670.2,117.2z"/>
			</g>
			<g>
				<path class="st15" d="M643.9,117.2c0.8-0.4,1.4,0.9,0.6,1.2c-2,1-3.4,2.9-3.6,5.3c-0.1,0.9-1.4,0.8-1.3-0.1
					C639.8,120.8,641.5,118.4,643.9,117.2z"/>
				<path class="st15" d="M641.6,115.1c0.8-0.4,1.4,0.9,0.6,1.2c-2,1-3.4,2.9-3.6,5.3c-0.1,0.9-1.4,0.8-1.3-0.1
					C637.5,118.7,639.2,116.3,641.6,115.1z"/>
			</g>
		</g>
		<g>
			<g>
				<path class="st15" d="M522.4,120.8l0.5,2.2l-5.4,1.2l0.4,2l4.9-1.1l0.5,2.2l-4.9,1.1l0.4,2l5.5-1.3l0.5,2.2l-8.2,1.9l-2.2-10.6
					L522.4,120.8z"/>
				<path class="st15" d="M530.8,122.1l0.4,1.7l-6.5,1.5l-0.4-1.7L530.8,122.1z M531.5,125.4l0.4,1.7l-6.5,1.5l-0.4-1.7L531.5,125.4
					z"/>
				<path class="st15" d="M546.1,121l1.1,5.2l-2.6,0.6l-0.9-4.4c-0.2-0.9-0.8-1.4-1.6-1.2c-0.9,0.2-1.3,1.1-1.1,2.2l0.9,4l-2.6,0.6
					l-0.9-4.4c-0.2-0.9-0.8-1.4-1.6-1.2c-0.9,0.2-1.3,1.1-1.1,2.2l0.9,4l-2.6,0.6l-1.7-8.2l2.6-0.6l0.3,1.3c0.3-1.1,1.1-1.8,2.3-2
					c1.3-0.3,2.4,0.2,3,1.2c0.3-1.3,1.1-2.2,2.4-2.5C544.3,118.2,545.7,119.1,546.1,121z"/>
				<path class="st15" d="M551.2,118.9c-0.9,0.2-1.4,1.2-1.2,2.3c0.3,1.2,1.1,1.8,2,1.6c0.7-0.2,1.2-0.6,1.3-1.3l2.2,0.7
					c-0.4,1.4-1.5,2.4-3.2,2.8c-2.4,0.6-4.4-0.7-4.9-3.2c-0.5-2.5,0.7-4.6,3.2-5.2c1.6-0.4,3,0.1,3.9,1.1l-1.6,1.6
					C552.5,119,551.9,118.8,551.2,118.9z"/>
			</g>
			<g>
				<path class="st15" d="M557.6,113.2c-0.1-0.3-0.4-0.5-0.8-0.4c-0.5,0.1-1,0.5-1.5,1.1l-0.8-1c0.6-0.7,1.4-1.3,2.2-1.5
					c1.2-0.3,2.2,0.2,2.4,1.1c0.1,0.7-0.2,1.5-0.7,2.3l-0.9,1.5l2.5-0.6l0.3,1.3l-4.5,1l-0.2-1l1.6-2.8
					C557.5,113.9,557.7,113.4,557.6,113.2z"/>
			</g>
		</g>
		<g>
			<path class="st15" d="M465.6,295c-3.1,1.8-5.2,5.3-5.4,9.1c-0.3,3.7,1.2,7.5,3.7,10.1c1.5,1.6,3.4,2.8,5.4,3.6
				c5.4,2.4,12.7,2.9,17.7-0.9c1.5-1.2,3.1-3,2.9-5.1c-0.2-2.4-2.2-2.8-3.9-3.6c-1.6-0.8-2.6-2.3-3.5-3.8c-1.9-3.4-3.5-7.1-6.7-9.2
				c-2-1.3-4.5-1.7-6.8-1.4C467.7,293.9,466.6,294.3,465.6,295z M474.7,317.5c-1.1,0.5-2.5,0-3-1.2c-0.5-1.2,0-2.6,1.2-3.1
				c1.1-0.5,2.5,0,3,1.2C476.4,315.6,475.8,317,474.7,317.5z M482.7,310.6c0.3,0.9-0.2,1.9-1.1,2.2c-0.9,0.3-1.8-0.2-2.1-1.1
				c-0.3-0.9,0.2-1.9,1.1-2.2C481.5,309.2,482.4,309.7,482.7,310.6z M469.4,311c0.5,1.2,0,2.6-1.2,3.1c-1.1,0.5-2.5,0-3-1.2
				c-0.5-1.2,0-2.6,1.2-3.1C467.6,309.2,468.9,309.8,469.4,311z M464.8,308.1c-1.1,0.5-2.5,0-3-1.2c-0.5-1.2,0-2.6,1.2-3.1
				c1.1-0.5,2.5,0,3,1.2C466.4,306.2,465.9,307.6,464.8,308.1z M474.9,299.8c0.5,1.2,0,2.6-1.2,3.1c-1.1,0.5-2.5,0-3-1.2
				c-0.5-1.2,0-2.6,1.2-3.1C473.1,298.1,474.4,298.6,474.9,299.8z M468.4,298.6c0.5,1.2,0,2.6-1.2,3.1c-1.1,0.5-2.5,0-3-1.2
				c-0.5-1.2,0-2.6,1.2-3.1C466.5,296.9,467.9,297.4,468.4,298.6z"/>
			<path class="st15" d="M451.8,318.6C451.8,318.7,451.8,318.7,451.8,318.6c0,0.1,0,0.1,0,0.1c0,0,0,0.1,0.1,0.1c0,0,0,0,0,0
				c0,0,0.1,0.1,0.2,0.1c0,0,0.1,0,0.1,0.1c0,0,0.1,0,0.1,0.1c0.1,0,0.1,0.1,0.2,0.1c0,0,0,0,0,0c3.3,1.7,16.4,6.1,24.6,8.5l0,0
				c0.2,0.1,0.4,0.1,0.6,0.2c0,0,0,0,0,0c0.6,0.2,1.3,0.4,2,0.5c0.4,0.1,0.9,0.2,1.3,0.3c0.1,0,0.3,0.1,0.4,0.1
				c0.4,0.1,0.8,0.2,1.2,0.2c0.2,0,0.5,0.1,0.6,0.1c0,0,0,0,0.1,0c0.2,0.6,0.7,1.2,1.5,1.3c0.2,0,0.3,0,0.5,0c0.6,0,1.2-0.2,1.8-0.4
				c1-0.2,1.7,0.1,2.5,0.6c0,0,0.1,0.1,0.1,0.1c0.1,0.1,0.2,0.2,0.3,0.2c-0.2-0.9-0.6-1.8-1.1-2.7c-0.6-0.8-1.4-1.5-2.4-1.9
				c-0.7-0.3-1.4-0.3-2-0.1c-0.2,0.1-0.3,0.2-0.4,0.2c-0.4-0.2-1.1-0.5-1.8-0.8c-1.2-0.5-2.7-1-3.7-1.3
				C469.2,322,452,317.8,451.8,318.6z"/>
		</g>
	</g>
	<polygon class="st12" points="390.3,72.7 387.5,76 388.5,80.2 384.6,78.5 381,80.8 381.5,76.4 378.3,73.6 382.4,72.7 384,68.6 
		386.1,72.4 	"/>
	<polygon class="st12" points="493.5,257 490.7,260.2 491.7,264.5 487.9,262.7 484.3,265 484.7,260.6 481.5,257.8 485.6,256.9 
		487.2,252.9 489.3,256.6 	"/>
	<polygon class="st12" points="606.5,128.4 602.4,129.2 600.7,133.2 598.7,129.4 594.5,129 597.3,125.8 596.4,121.6 600.2,123.4 
		603.8,121.1 603.3,125.5 	"/>
	<polygon class="st12" points="825.9,78.4 821.8,79.2 820.1,83.2 818.1,79.4 813.9,79 816.7,75.8 815.8,71.6 819.6,73.4 823.2,71.1 
		822.8,75.5 	"/>
	<polygon class="st12" points="783,225.6 778.9,226.5 777.3,230.5 775.2,226.7 771,226.3 773.9,223.1 772.9,218.8 776.8,220.7 
		780.4,218.4 779.9,222.8 	"/>
	<polygon class="st12" points="828.8,397.1 824.7,397.9 823.1,401.9 821,398.1 816.8,397.7 819.7,394.5 818.7,390.3 822.5,392.1 
		826.2,389.9 825.7,394.2 	"/>
	<polygon class="st12" points="355.5,226.7 351.4,227.6 349.7,231.6 347.7,227.8 343.5,227.4 346.3,224.2 345.4,219.9 349.2,221.7 
		352.8,219.5 352.3,223.8 	"/>
	<g>
		<path class="st6" d="M674.3,197.2l-7.8,1.4l-6.2-5.1c-3.7-3.1-8.7-4.3-13.3-2.8c-5.5,1.8-11.7,7.4-14.7,23
			c-6,31.2,21.9,35.9,21.9,35.9s26.7,9.5,35.6-20.9c4.4-15.2,1.5-23.3-2.5-27.5C683.9,197.7,679,196.3,674.3,197.2z"/>
		<path class="st7" d="M662.5,251c-4.9-0.1-8.4-1.4-8.4-1.4s-27.9-4.7-21.9-35.9c3-15.6,9.2-21.2,14.7-23c4.5-1.5,9.5-0.2,13.3,2.8
			l2.2,1.8c-5.2,2.1-10.9,7.9-13.8,22.7C644.9,237.9,654.8,247,662.5,251z"/>
		<g>
			<path class="st5" d="M679.4,187.8c-9.4,0.5-16.8,7.4-18.1,17.1c-0.4,3.1,4.2,4.2,4.6,1.1c1-7.6,6.2-13,13.7-13.4
				C682.6,192.5,682.4,187.6,679.4,187.8z"/>
			<path class="st16" d="M661.5,181.7c4.4,7.7,1,18.4,1,18.4s-10.6-1.9-15.1-9.6c-4.4-7.7-1-18.4-1-18.4S657.1,174,661.5,181.7z"/>
		</g>
	</g>
	<g>
		<g>
			<path class="st13" d="M738.2,263.1c-4.5,1.2-19.5,9.4-27.5,14.4c-41.3,25.8-114.3,75.5-112.1,79.3c2.2,3.8,78.7-39.8,120.1-65.6
				c8-5,22-14.7,25.2-18.5L738.2,263.1z"/>
			<path class="st12" d="M718.5,291.2c8-5,22-14.7,25.2-18.5l-5.6-9.6c-4.5,1.2-19.5,9.4-27.5,14.4c-0.9,0.6-1.8,1.1-2.7,1.7
				l7.9,13.7C716.7,292.3,717.7,291.7,718.5,291.2z"/>
			<path class="st14" d="M606,354.7c-4.4,1.9-7.2,2.8-7.6,2.1c-2.2-3.8,70.8-53.5,112.1-79.3c8-5,23-13.2,27.5-14.4l2.2,3.9
				c-4.5,1.2-19.5,9.4-27.5,14.4C678.8,302.5,623.4,340,606,354.7z"/>
			<path class="st11" d="M740.4,266.9c-4.5,1.2-19.5,9.4-27.5,14.4c-0.9,0.6-1.8,1.1-2.7,1.7l-2.2-3.8c0.9-0.6,1.8-1.1,2.7-1.7
				c8-5,23-13.2,27.5-14.4L740.4,266.9z"/>
		</g>
		<path class="st5" d="M737.6,269.7c-1.3-2.3-1.6-5.3-0.6-8.4c1.1-3.2,4-5.8,7.1-7.4c4.5-2.3,9.7-3,14.4-2.4c4.7,0.6,9.1,2.4,13,4.8
			c-0.6,0.1-1.2,0.1-1.9,0.3c-0.2,0-0.5,0.1-0.7,0.1c-4.4,0.9-8.1,2.8-10.6,7.1c-1.5,2.7-2.7,5.5-4.8,7.9c-0.5,0.6-1.1,1.1-1.7,1.5
			C746.6,277,740.2,274.6,737.6,269.7z"/>
	</g>
	<g>
		<path class="st3" d="M338,67.9l29.6,57.8c0.8,1.6,0.2,3.7-1.3,4.6l-8.3,4.6c-1.6,0.9-3.5,0.3-4.4-1.4l-29.6-57.8
			c-0.8-1.6-0.3-3.7,1.3-4.6l8.3-4.6C335.2,65.6,337.1,66.2,338,67.9z"/>
		<path class="st2" d="M325.3,71.1c-1.6,0.9-2.2,2.9-1.3,4.6l29.6,57.8c0.8,1.6,2.8,2.3,4.4,1.4l4.2-2.3l-32.6-63.7L325.3,71.1z"/>
		<g>
			<path class="st3" d="M322.4,55.2L322.4,55.2c-1.2,0.7-1.9,2.1-1.8,3.5l0.3,2.6c0.3,2.2,0.9,4.4,1.9,6.3l2,4l4.6-2.6l4.6-2.6l-2-4
				c-1-2-2.4-3.7-4-5.2l-1.9-1.7C325.2,54.6,323.7,54.5,322.4,55.2z"/>
			<path class="st2" d="M325.3,55c-0.1,0.4-0.1,0.7,0,1.1l0.3,2.6c0.3,2.2,0.9,4.4,1.9,6.3l2,4l-4.6,2.6l-2-4c-1-2-1.7-4.1-1.9-6.3
				l-0.3-2.6c-0.2-1.4,0.5-2.9,1.8-3.5l0,0C323.4,54.6,324.4,54.6,325.3,55z"/>
		</g>
		<g>
			<g>
				<polygon class="st5" points="338.7,69.3 340.2,72.3 326.2,80.1 324.7,77.1 				"/>
				<polygon class="st5" points="341.8,75.4 343.3,78.3 329.3,86.1 327.8,83.2 				"/>
				<path class="st5" d="M348.9,97.9c2.9,5.6,3.6,11,1.6,12.1c-2,1.1-5.9-2.6-8.8-8.2c-2.9-5.6-3.6-11-1.6-12.1
					C342.1,88.6,346,92.3,348.9,97.9z"/>
			</g>
			<g>
				<polygon class="st5" points="362,114.7 363.5,117.7 349.4,125.5 347.9,122.5 				"/>
				<polygon class="st5" points="365.1,120.8 366.6,123.8 352.6,131.5 351,128.6 				"/>
			</g>
		</g>
	</g>
	<g>
		<path class="st16" d="M603.2,306l-41.8,48.9c-1.2,1.4-3.2,1.5-4.6,0.3l-7.1-6.5c-1.3-1.2-1.5-3.4-0.3-4.8l41.8-48.9
			c1.2-1.4,3.2-1.5,4.6-0.3l7.1,6.5C604.3,302.5,604.4,304.6,603.2,306z"/>
		<path class="st17" d="M595.9,294.7c-1.3-1.2-3.4-1.1-4.6,0.3l-41.8,48.9c-1.2,1.4-1.1,3.5,0.3,4.8l3.5,3.3l46.1-54L595.9,294.7z"
			/>
		<g>
			<path class="st16" d="M609.3,286.4L609.3,286.4c-1.1-1-2.6-1.2-3.8-0.5l-2.2,1.2c-1.9,1-3.6,2.4-5,4.1l-2.9,3.4l3.9,3.6l3.9,3.6
				l2.9-3.4c1.4-1.7,2.5-3.6,3.3-5.7l0.9-2.5C610.7,288.9,610.3,287.4,609.3,286.4z"/>
			<path class="st17" d="M610.4,289.2c-0.4,0-0.7,0.2-1,0.3l-2.2,1.2c-1.9,1-3.6,2.4-5,4.1l-2.9,3.3l-3.9-3.6l2.9-3.3
				c1.4-1.7,3.1-3.1,5-4.1l2.3-1.2c1.2-0.7,2.8-0.5,3.8,0.5l0,0C610.1,287.2,610.4,288.2,610.4,289.2z"/>
		</g>
		<g>
			<g>
				<polygon class="st5" points="602.1,307.2 600,309.7 588.1,298.7 590.2,296.2 				"/>
				<polygon class="st5" points="597.8,312.4 595.6,314.9 583.7,303.9 585.8,301.3 				"/>
				<path class="st5" d="M579.9,327.1c-4.1,4.7-8.7,7.3-10.4,5.8c-1.7-1.5,0.3-6.6,4.3-11.4c4.1-4.7,8.7-7.3,10.4-5.8
					C585.9,317.2,584,322.3,579.9,327.1z"/>
			</g>
			<g>
				<polygon class="st5" points="569.3,345.7 567.1,348.2 555.2,337.2 557.4,334.7 				"/>
				<polygon class="st5" points="564.9,350.8 562.7,353.3 550.8,342.3 553,339.8 				"/>
			</g>
		</g>
	</g>
	<g>
		<path class="st7" d="M573.3,276.9L512.8,295c-1.7,0.5-3.5-0.5-4-2.3l-2.6-9.4c-0.5-1.8,0.5-3.7,2.2-4.2l60.5-18.1
			c1.7-0.5,3.5,0.5,4,2.3l2.6,9.4C576,274.5,575,276.4,573.3,276.9z"/>
		<path class="st6" d="M572.9,263.3c-0.5-1.8-2.3-2.8-4-2.3l-60.5,18.1c-1.7,0.5-2.7,2.4-2.2,4.2l1.3,4.7l66.7-20L572.9,263.3z"/>
		<g>
			<path class="st7" d="M588.5,263.7L588.5,263.7c-0.4-1.4-1.6-2.4-3-2.5l-2.5-0.2c-2.1-0.2-4.3,0-6.4,0.6l-4.1,1.2l1.5,5.2l1.5,5.2
				l4.1-1.2c2.1-0.6,4-1.6,5.7-3l2-1.6C588.4,266.6,588.9,265.1,588.5,263.7z"/>
			<path class="st6" d="M588,266.7c-0.3-0.2-0.7-0.2-1-0.3l-2.5-0.2c-2.1-0.2-4.3,0-6.4,0.6l-4.1,1.2l-1.5-5.2l4.1-1.2
				c2.1-0.6,4.2-0.8,6.4-0.6l2.5,0.2c1.4,0.1,2.6,1.1,3,2.5l0,0C588.8,264.8,588.6,265.9,588,266.7z"/>
		</g>
		<g>
			<g>
				<polygon class="st5" points="571.8,277.3 568.7,278.3 564.3,262.3 567.4,261.4 				"/>
				<polygon class="st5" points="565.5,279.2 562.4,280.2 558,264.2 561.1,263.3 				"/>
				<path class="st5" d="M542.8,281.8c-5.9,1.8-11.1,1.4-11.7-0.9c-0.6-2.2,3.6-5.5,9.5-7.2c5.9-1.8,11.1-1.4,11.7,0.9
					C552.9,276.8,548.7,280,542.8,281.8z"/>
			</g>
			<g>
				<polygon class="st5" points="524.2,291.6 521.1,292.5 516.7,276.6 519.8,275.6 				"/>
				<polygon class="st5" points="517.9,293.5 514.8,294.4 510.4,278.5 513.5,277.5 				"/>
			</g>
		</g>
	</g>
</g>
</svg>
