<?xml version="1.0" standalone="no"?>
<!DOCTYPE svg PUBLIC "-//W3C//DTD SVG 1.1//EN" "http://www.w3.org/Graphics/SVG/1.1/DTD/svg11.dtd" >
<svg xmlns="http://www.w3.org/2000/svg" xmlns:xlink="http://www.w3.org/1999/xlink" version="1.1">
<metadata>
Created by FontForge 20170924 at Mon Nov 28 03:16:11 2011
 By www-data
Copyright (c) 2011, Eduardo Tunni (http://www.tipo.net.ar), with Reserved Font Name "Lemon"
</metadata>
<defs>
<font id="Lemon-Regular" horiz-adv-x="733" >
  <font-face 
    font-family="Lemon"
    font-weight="400"
    font-stretch="normal"
    units-per-em="1000"
    panose-1="2 0 0 0 0 0 0 0 0 0"
    ascent="800"
    descent="-200"
    x-height="600"
    cap-height="726"
    bbox="-223 -287 1446 1019"
    underline-thickness="50"
    underline-position="-100"
    unicode-range="U+0020-FB02"
  />
<missing-glyph horiz-adv-x="300" 
 />
    <glyph glyph-name=".notdef" horiz-adv-x="300" 
 />
    <glyph glyph-name=".null" horiz-adv-x="0" 
 />
    <glyph glyph-name="nonmarkingreturn" horiz-adv-x="333" 
 />
    <glyph glyph-name="space" unicode=" " horiz-adv-x="300" 
 />
    <glyph glyph-name="exclam" unicode="!" horiz-adv-x="458" 
d="M199 279q-70 0 -70 85q0 21 9.5 126.5t9.5 149.5t-25 68q66 67 174 67t108 -103q0 -47 -14 -97t-27.5 -90t-22 -62.5t-23 -60t-17.5 -45.5q-20 -18 -49.5 -28t-52.5 -10zM97 169q-37 -38 -37 -85.5t30.5 -78t79.5 -30.5t86 38t37 85.5t-30.5 78t-79.5 30.5t-86 -38z" />
    <glyph glyph-name="quotedbl" unicode="&#x22;" horiz-adv-x="516" 
d="M359 446q-59 0 -59 50q0 30 26 104.5t26 106.5t-7 52q45 21 92 21q59 0 59 -50q0 -32 -26 -106t-26 -105.5t7 -51.5q-45 -21 -92 -21zM129 446q-59 0 -59 50q0 30 26 104.5t26 106.5t-7 52q45 21 92 21q59 0 59 -50q0 -32 -26 -106t-26 -105.5t7 -51.5q-45 -21 -92 -21z
" />
    <glyph glyph-name="numbersign" unicode="#" 
d="M342 600l158 3q22 95 36 151q16 64 79.5 64t115.5 -47q-38 -57 -74 -166h10q84 0 84 -76q0 -47 -20 -81q-39 16 -114 18l-43 -163h17q84 0 84 -76q0 -47 -20 -81q-40 16 -117 18q-20 -79 -43 -159q-30 -108 -111 -108q-49 0 -90 32q41 38 84 186l12 45q-66 -2 -170 -10
l-39 -145q-30 -108 -111 -108q-49 0 -90 32q41 38 84 186l7 26q-17 -1 -45 -1q-44 0 -44 62t34 114q36 -14 97 -18l35 145q-17 -1 -46 -1q-44 0 -44 62t34 114q34 -14 93 -18q17 76 37 154q16 64 79.5 64t115.5 -47q-41 -59 -75 -171zM259 298l169 3l39 161q-64 -2 -167 -10
q-18 -62 -41 -154z" />
    <glyph glyph-name="dollar" unicode="$" horiz-adv-x="724" 
d="M109 41.5q-47 36.5 -47 97.5t29 119q35 -38 95.5 -64.5t117.5 -26.5q83 0 102 55q-78 11 -136.5 34t-89.5 47.5t-49.5 54.5t-23 50t-4.5 40q0 104 71 157t179 65q13 55 13 84t-2 45q54 54 86 54q29 0 29 -51t-27 -129q209 -8 209 -117q0 -57 -25 -101q-63 41 -191 41
q-100 0 -106 -63q134 -26 189 -49.5t80 -46.5q55 -51 55 -128q0 -92 -85.5 -146t-206.5 -64q-13 -57 -13 -91.5t4 -49.5q-49 -52 -84 -52q-32 0 -32 55t25 138q-115 6 -162 42.5z" />
    <glyph glyph-name="percent" unicode="%" horiz-adv-x="1150" 
d="M330 13q46 51 104 164q44 90 113.5 234.5t111 229t106.5 84.5q38 0 67 -26q-46 -45 -100 -153.5t-133.5 -287t-105 -231t-77 -52.5t-86.5 38zM18 417q0 -101 57.5 -162.5t162.5 -61.5t183.5 79.5t78.5 203.5q0 153 -118 180q-2 26 -8 34q-23 10 -60 10q-132 0 -214 -78
t-82 -205zM239 307q-23 0 -36 27.5t-13 70.5q0 88 43 154q15 3 26 3q63 0 63 -84q0 -65 -25.5 -118t-57.5 -53zM651 205q0 -101 57.5 -162.5t162.5 -61.5t183.5 79.5t78.5 203.5q0 153 -118 180q-2 26 -8 34q-23 10 -60 10q-132 0 -214 -78t-82 -205zM872 95q-23 0 -36 27.5
t-13 70.5q0 88 43 154q15 3 26 3q63 0 63 -84q0 -65 -25.5 -118t-57.5 -53z" />
    <glyph glyph-name="ampersand" unicode="&#x26;" horiz-adv-x="758" 
d="M404 642q-58 -14 -89.5 -49.5t-31.5 -76.5t31 -69t86.5 -28t180.5 28t166 28t41 -54.5t-19 -101.5q-28 6 -62 6t-75 -8q0 -107 -33.5 -191.5t-89.5 -135.5q-114 -102 -262 -102q-112 0 -172 57t-60 135t42.5 147.5t120.5 115.5q-48 29 -73 74t-25 95q0 103 100 183
t267 80q86 0 136 -32.5t50 -81.5t-33.5 -75t-73 -26t-72 21t-50.5 61zM333 91q59 0 120.5 56.5t72.5 161.5q-112 -12 -154.5 -12t-67.5 4q-60 -64 -60 -128q0 -38 25 -60t64 -22z" />
    <glyph glyph-name="quotesingle" unicode="'" horiz-adv-x="286" 
d="M129 446q-59 0 -59 50q0 30 26 104.5t26 106.5t-7 52q45 21 92 21q59 0 59 -50q0 -32 -26 -106t-26 -105.5t7 -51.5q-45 -21 -92 -21z" />
    <glyph glyph-name="parenleft" unicode="(" horiz-adv-x="415" 
d="M109 -73.5q-39 82.5 -39 221t37 290t99 257.5t123.5 106t95.5 -43q-93 -84 -139.5 -240.5t-46.5 -275t25.5 -201.5t92.5 -149q-69 -48 -132 -48q-77 0 -116 82.5z" />
    <glyph glyph-name="parenright" unicode=")" horiz-adv-x="415" 
d="M305.5 718q39.5 -83 39.5 -221t-37 -289.5t-99 -257.5t-123.5 -106t-95.5 43q93 84 139.5 240.5t46.5 275t-25.5 201.5t-92.5 149q69 48 132 48q76 0 115.5 -83z" />
    <glyph glyph-name="asterisk" unicode="*" horiz-adv-x="592" 
d="M313 433q-61 -86 -70 -123q-50 4 -91.5 29t-41.5 47.5t24.5 49t77.5 72.5q-80 28 -138 29q-7 27 -7 63.5t14.5 62.5t41.5 26t131 -62q-1 104 -15 141q54 32 95 32t53.5 -14t12.5 -47t-22 -114q107 34 131 56q28 -24 48 -58.5t20 -55.5q0 -32 -39.5 -43t-122.5 -18
q40 -54 57 -73t37 -34q-15 -40 -46.5 -71.5t-54.5 -31.5q-45 0 -95 137zM314 461q26 26 87 52q-31 55 -31 96q-38 -5 -53 -5t-48 5q-7 -58 -34 -95q60 -22 79 -53z" />
    <glyph glyph-name="plus" unicode="+" 
d="M139 283q-39 0 -39 64t31 110q54 -17 161 -17q-2 78 -2 117q0 79 76 79q44 0 79 -18q-16 -39 -16 -96t2 -79q61 3 123 3q79 0 79 -76q0 -44 -18 -79q-39 16 -110 16q-22 0 -62 -2q10 -110 10 -163q0 -39 -64 -39t-110 31q17 54 17 158q-95 -9 -157 -9z" />
    <glyph glyph-name="comma" unicode="," horiz-adv-x="333" 
d="M118 -2l-70 90q2 48 40 84t88 36t79 -34t29 -81q0 -104 -70 -184.5t-187 -104.5l-15 44q47 22 76.5 66.5t29.5 83.5z" />
    <glyph glyph-name="hyphen" unicode="-" horiz-adv-x="528" 
d="M118 183q-63 0 -63 73q0 53 28 114q21 -7 61.5 -7t130 32t135.5 32q63 0 63 -73q0 -53 -28 -114q-21 7 -61.5 7t-130 -32t-135.5 -32z" />
    <glyph glyph-name="period" unicode="." horiz-adv-x="333" 
d="M80.5 5.5q-30.5 30.5 -30.5 78t37 85.5t86 38t79.5 -30.5t30.5 -78t-37 -85.5t-86 -38t-79.5 30.5z" />
    <glyph glyph-name="slash" unicode="/" horiz-adv-x="397" 
d="M181 23q-30 -108 -111 -108q-49 0 -90 32q41 38 83.5 186.5t98.5 386.5t60 252q16 64 79.5 64t115.5 -47q-48 -71 -81.5 -189.5t-79.5 -296.5t-75 -280z" />
    <glyph glyph-name="zero" unicode="0" horiz-adv-x="758" 
d="M55 295q0 182 110 293.5t287 111.5q51 0 81 -15q9 -10 12 -48q81 -19 119.5 -87t38.5 -170q0 -177 -105.5 -291t-246.5 -114t-218.5 88t-77.5 232zM277.5 162.5q26.5 -45.5 79.5 -45.5t97.5 81.5t44.5 181.5q0 144 -120 144q-19 0 -47 -5q-81 -105 -81 -239
q0 -72 26.5 -117.5z" />
    <glyph glyph-name="one" unicode="1" horiz-adv-x="569" 
d="M180 145q0 62 42 272q-68 0 -116.5 38t-58.5 118q81 16 153.5 48.5t121.5 55.5t88 23q71 0 71 -80q0 -49 -39 -227.5t-39 -255t29 -125.5q-67 -37 -128 -37q-124 0 -124 170z" />
    <glyph glyph-name="two" unicode="2" horiz-adv-x="715" 
d="M244 32q-66 -51 -122 -51t-83 33t-27 85.5t43.5 97t117.5 44.5q23 0 45 -5q85 72 127 125t42 92.5t-21.5 60.5t-57.5 21q-59 0 -94 -55q-17 -25 -30 -63q-45 5 -68 31t-23 65q0 75 72.5 131t220.5 56q121 0 181.5 -57.5t60.5 -132.5q0 -133 -237 -319q86 -14 135 -14
l117 45q11 -46 11 -84q0 -82 -45 -122.5t-109 -40.5t-118.5 13.5t-137.5 43.5z" />
    <glyph glyph-name="three" unicode="3" horiz-adv-x="653" 
d="M44 -126.5q-54 29.5 -54 79.5t34 76.5t75 26.5t78 -22t61 -63q47 13 84.5 54.5t37.5 87.5t-37 82q-61 -35 -125 -35q-80 0 -80 74q0 42 37.5 70.5t112.5 28.5q27 0 42 -2q27 21 42.5 53.5t15.5 67t-21 58t-56.5 23.5t-70.5 -28t-52 -89q-55 3 -82 29.5t-27 67.5
q0 75 72.5 131t215.5 56q67 0 115 -16.5t73 -43.5q47 -52 47 -117q0 -118 -128 -240q129 -62 129 -180q0 -107 -106.5 -183t-279.5 -76q-99 0 -153 29.5z" />
    <glyph glyph-name="four" unicode="4" horiz-adv-x="707" 
d="M364 -32q0 25 4 48q-82 -16 -163 -16q-186 0 -186 115q0 66 96 239q36 65 66 143t30 133q0 25 -8 47q61 23 107 23q135 0 135 -134q0 -180 -259 -436h208q27 94 66 174q27 27 85 50t107 23q15 0 20 -5.5t5 -22.5t-17 -81q-52 -190 -52 -309q0 -57 24 -93
q-70 -36 -137 -36t-99 38.5t-32 99.5z" />
    <glyph glyph-name="five" unicode="5" horiz-adv-x="635" 
d="M60.5 -126q-53.5 30 -53.5 79.5t34 76t73 26.5q82 0 125 -82q51 8 82.5 44.5t31.5 83.5t-36 81.5t-108 34.5q-36 0 -82 -10q-29 2 -29 23l37 296q-37 42 -37 83.5t24 65.5t66 24q69 0 110 -70q51 0 137 18t159 45q6 -30 6 -65q0 -172 -191 -172q-10 0 -108 6l-11 -114
q116 -6 202 -59q44 -27 70 -72t26 -103q0 -114 -105.5 -192t-272.5 -78q-96 0 -149.5 30z" />
    <glyph glyph-name="six" unicode="6" horiz-adv-x="674" 
d="M656 306q0 -140 -109.5 -235.5t-258.5 -95.5q-114 0 -182.5 70.5t-68.5 204.5q0 110 44 218.5t111 185.5t147 125t146 48t98.5 -23.5t54.5 -76.5q-100 -34 -171 -84.5t-124 -131.5q35 8 65 8q117 0 182.5 -59.5t65.5 -153.5zM266 143.5q19 -35.5 59 -35.5t74 46.5
t34 128.5q0 49 -18.5 82t-58.5 33t-74.5 -45.5t-34.5 -122.5q0 -51 19 -86.5z" />
    <glyph glyph-name="seven" unicode="7" horiz-adv-x="612" 
d="M137 0q0 83 61.5 206.5t164.5 255.5q-49 -3 -91 -3q-100 0 -155.5 47.5t-55.5 130.5q0 32 4 63q78 -26 194.5 -43.5t186.5 -17.5q41 70 106 70q40 0 62.5 -24t22.5 -59q0 -69 -68 -110q-70 -136 -134 -305.5t-64 -261.5q0 -30 9 -47q-53 -23 -107 -23q-136 0 -136 121z
" />
    <glyph glyph-name="eight" unicode="8" horiz-adv-x="675" 
d="M92.5 280.5q41.5 56.5 110.5 97.5q-34 32 -53 53t-37 55.5t-18 69.5q0 98 79.5 157.5t211.5 59.5q74 0 126 -18t78 -48q46 -55 46 -115t-35 -108.5t-92 -83.5q61 -42 100 -95.5t39 -107.5q0 -100 -94.5 -161.5t-237.5 -61.5q-79 0 -134.5 18.5t-81.5 49.5
q-49 55 -49 118.5t41.5 120zM344 261l-57 47q-54 -42 -54 -112q0 -45 25.5 -77t64.5 -32t65.5 22t26.5 52t-14 47t-57 53zM444.5 634.5q-20.5 26.5 -56.5 27t-59 -19.5t-23 -50.5t34 -60.5l82 -71q43 40 43 108q0 40 -20.5 66.5z" />
    <glyph glyph-name="nine" unicode="9" horiz-adv-x="746" 
d="M119.5 232q-57.5 61 -57.5 150t51.5 163.5t135 114.5t189 40t174.5 -63t69 -176.5t-42.5 -225t-108 -193.5t-146.5 -133.5t-155 -51.5q-120 0 -148 100q195 54 305 225q-48 -11 -96 -11q-113 0 -170.5 61zM452 541q-19 35 -59 35t-74 -46.5t-34 -127.5q0 -49 18.5 -82
t58.5 -33t74.5 45.5t34.5 122.5q0 51 -19 86z" />
    <glyph glyph-name="colon" unicode=":" horiz-adv-x="333" 
d="M80.5 5.5q-30.5 30.5 -30.5 78t37 85.5t86 38t79.5 -30.5t30.5 -78t-37 -85.5t-86 -38t-79.5 30.5zM127.5 358.5q-30.5 30.5 -30.5 78t37 85.5t86 38t79.5 -30.5t30.5 -78t-37 -85.5t-86 -38t-79.5 30.5z" />
    <glyph glyph-name="semicolon" unicode=";" horiz-adv-x="333" 
d="M118 -2l-70 90q2 48 40 84t88 36t79 -34t29 -81q0 -104 -70 -184.5t-187 -104.5l-15 44q47 22 76.5 66.5t29.5 83.5zM127.5 358.5q-30.5 30.5 -30.5 78t37 85.5t86 38t79.5 -30.5t30.5 -78t-37 -85.5t-86 -38t-79.5 30.5z" />
    <glyph glyph-name="less" unicode="&#x3c;" 
d="M610 502q-50 -5 -105.5 -27.5t-123.5 -57.5t-100 -48q48 -26 139 -57.5t148 -55t57 -42.5q0 -31 -32.5 -67.5t-69.5 -55.5q-32 34 -89 64t-143.5 71t-124.5 61t-50 55t-13 87q47 3 116 39t127 78q153 110 191 110q30 0 51.5 -49t21.5 -105z" />
    <glyph glyph-name="equal" unicode="=" 
d="M259 589l295 6q79 0 79 -76q0 -44 -18 -79q-39 16 -106.5 16t-188.5 -12t-181 -12q-39 0 -39 64t31 110q54 -17 128 -17zM259 302l295 6q79 0 79 -76q0 -44 -18 -79q-39 16 -106.5 16t-188.5 -12t-181 -12q-39 0 -39 64t31 110q54 -17 128 -17z" />
    <glyph glyph-name="greater" unicode="&#x3e;" 
d="M118 241q50 5 105.5 27.5t123.5 57.5t100 48q-48 26 -139 57.5t-148 55t-57 42.5q0 31 32.5 67.5t69.5 55.5q32 -34 89 -64t143.5 -71t124.5 -61t50 -55t13 -87q-47 -3 -116 -39t-127 -77q-153 -111 -191 -111q-30 0 -51.5 49t-21.5 105z" />
    <glyph glyph-name="question" unicode="?" horiz-adv-x="602" 
d="M214 381q59 15 95 54t36 79q0 86 -77 86q-86 0 -124 -118q-47 5 -72 35t-25 72q0 72 64.5 129t190 57t191.5 -66t66 -160q0 -122 -70.5 -204t-160.5 -82q-50 0 -82 33t-32 85zM162 169q-37 -38 -37 -85.5t30.5 -78t79.5 -30.5t86 38t37 85.5t-30.5 78t-79.5 30.5t-86 -38
z" />
    <glyph glyph-name="at" unicode="@" horiz-adv-x="1090" 
d="M293 288q0 115 67 209q32 46 86.5 74.5t116 28.5t82.5 -6q6 -21 6 -34q48 32 108 32q51 0 51 -48q0 -30 -22.5 -120.5t-22.5 -145.5q0 -80 51 -80q59 0 98 58t39 157q0 117 -79 203q-41 43 -113 68.5t-169 25.5t-178.5 -37t-133.5 -97t-80.5 -135t-28.5 -162.5t29.5 -159
t83.5 -113.5q105 -80 274 -80q220 0 359 139q20 -48 20 -86q0 -62 -57 -112t-147.5 -76t-187.5 -26t-179 27t-152 82t-112 151.5t-42 211.5t35 212t101.5 176t174 127t226 48t204 -32.5t139.5 -86.5q110 -112 110 -261q0 -87 -33 -163.5t-105 -128t-169 -51.5
q-65 0 -99.5 34.5t-41.5 87.5l-8 4q-28 -50 -70.5 -76.5t-87.5 -26.5q-60 0 -101.5 48.5t-41.5 139.5zM603 287q13 125 40 224q-86 -8 -132.5 -53.5t-46.5 -109.5q0 -38 19.5 -62.5t55.5 -24.5t64 26z" />
    <glyph glyph-name="A" unicode="A" horiz-adv-x="729" 
d="M635 578l-8 -238q0 -123 20.5 -207t76.5 -116q-69 -43 -140 -43q-125 0 -154 202h-204q-19 -65 -19 -99.5t8 -55.5q-74 -47 -132 -47q-89 0 -89 108q0 54 33.5 136t89 188t70.5 140q-11 54 -25 106q52 36 100.5 54.5t105 18.5t78.5 -25q57 25 94 25t55 -12t26 -35
q14 -40 14 -100zM434 555h-32q-90 -174 -134 -274h155q0 109 11 274z" />
    <glyph glyph-name="B" unicode="B" horiz-adv-x="757" 
d="M88 11.5q-28 37.5 -28 112t63 422.5l-53 107q113 73 206 73q62 0 74 -60q103 59 202 59q65 0 114 -30q58 -35 58 -121q0 -142 -157 -206q160 -28 160 -179q0 -98 -81 -156t-181.5 -58t-161.5 42q-59 -43 -123 -43t-92 37.5zM468.5 280q-27.5 22 -73.5 22t-103 -19
q-16 -85 -16 -145q49 -23 102 -23t85.5 25t32.5 71.5t-27.5 68.5zM431 593q-39 0 -84 -15q-6 -39 -37 -200q83 6 141 40.5t58 99.5q0 75 -78 75z" />
    <glyph glyph-name="C" unicode="C" horiz-adv-x="683" 
d="M30 307q0 70 30 142.5t85 134.5t143.5 101.5t183 39.5t148 -35t53.5 -97t-40.5 -96.5t-92.5 -34.5t-93.5 22.5t-66.5 64.5q-54 -26 -93 -102t-39 -152.5t25 -121t71 -44.5t81.5 47t35.5 113q101 0 144.5 -16t43.5 -69q0 -83 -90 -156t-226 -73t-219.5 84t-83.5 248z" />
    <glyph glyph-name="D" unicode="D" horiz-adv-x="776" 
d="M60 163q0 57 27 201t33 182l-53 107q127 72 216 72q44 0 66 -30q83 29 153 29q130 0 202 -84.5t72 -210.5q0 -166 -122 -305q-59 -67 -155.5 -108t-206.5 -41t-171 48.5t-61 139.5zM272 125q21 -4 47 -4q109 0 170 78.5t61 193.5q0 93 -42 148t-121 55q-12 0 -40 -4
q-7 -51 -36.5 -227.5t-38.5 -239.5z" />
    <glyph glyph-name="E" unicode="E" horiz-adv-x="619" 
d="M88 11.5q-28 37.5 -28 112t63 422.5l-53 107q113 73 206 73q59 0 73 -56q113 3 282 51q8 -33 8 -65q0 -81 -53.5 -122t-137.5 -41q-57 0 -112 24q-8 -45 -28 -147q37 -7 63 -7q41 8 90 23q5 -17 5 -55.5t-31 -61.5t-69.5 -23t-78.5 9q-11 -63 -11 -119h162q76 11 153 39
q6 -18 6 -49q0 -59 -34.5 -105t-95.5 -46q-32 0 -93.5 12.5t-91.5 15.5q-48 -29 -107 -29t-87 37.5z" />
    <glyph glyph-name="F" unicode="F" horiz-adv-x="589" 
d="M88 11.5q-28 37.5 -28 112t63 422.5l-53 107q113 73 206 73q59 0 73 -56q102 3 272 51q8 -45 8 -76q0 -64 -48.5 -100.5t-112.5 -36.5t-128 31l-9 -49q-7 -39 -23 -119q34 -8 64 -8q41 8 90 23q5 -17 5 -55.5t-31 -61.5t-70 -23t-79 9q-11 -63 -11 -91q0 -97 30 -145
q-60 -45 -125 -45t-93 37.5z" />
    <glyph glyph-name="G" unicode="G" horiz-adv-x="722" 
d="M488 192l-51 105q107 71 193 71q72 0 72 -81q0 -23 -27.5 -140.5t-27.5 -179.5t27 -92q-56 -41 -117 -41t-86.5 40t-25.5 117q-54 -16 -112 -16q-136 0 -219.5 84t-83.5 248q0 70 30 142.5t85 134.5t143.5 101.5t183 39.5t148 -35t53.5 -97t-40.5 -96.5t-92.5 -34.5
t-93.5 22.5t-66.5 64.5q-54 -26 -93 -102t-39 -159t32.5 -124.5t81.5 -41.5q71 0 126 70z" />
    <glyph glyph-name="H" unicode="H" horiz-adv-x="824" 
d="M501 129q0 42 14 138h-226q-13 -75 -13 -103q0 -97 30 -145q-60 -45 -125 -45t-93 37.5t-28 112t63 422.5l-53 107q113 73 206 73q77 0 77 -94q0 -28 -42 -246h224q4 25 29 160l-53 107q113 73 206 73q77 0 77 -94q0 -31 -38.5 -230.5t-38.5 -237.5q0 -97 30 -145
q-60 -45 -125 -45t-93 37.5t-28 117.5z" />
    <glyph glyph-name="I" unicode="I" horiz-adv-x="388" 
d="M93 11.5q-28 37.5 -28 112t63 422.5l-53 107q113 73 206 73q77 0 77 -94q0 -31 -38.5 -230.5t-38.5 -237.5q0 -97 30 -145q-60 -45 -125 -45t-93 37.5z" />
    <glyph glyph-name="J" unicode="J" horiz-adv-x="553" 
d="M302 489q-141 0 -205.5 31t-64.5 116q0 30 10 85q69 -29 164 -46.5t149 -17.5q38 67 105 67q44 0 68.5 -27.5t24.5 -70t-33 -79.5l-35 -287q-9 -77 -39.5 -138t-72.5 -96q-85 -71 -175 -71t-144 39.5t-54 96t33 89t77.5 32.5t82.5 -31t58 -93l25 20q-27 75 -27 120
q0 25 19 115t34 146z" />
    <glyph glyph-name="K" unicode="K" horiz-adv-x="720" 
d="M88 11.5q-28 37.5 -28 112t63 422.5l-53 107q113 73 206 73q77 0 77 -94q0 -28 -42 -246l47 39q146 122 146 208q0 26 -8 47q74 45 140 45q98 0 98 -100q0 -112 -199 -227q93 -298 201 -368q-22 -22 -65.5 -38.5t-77.5 -16.5q-68 0 -109 35t-74 129l-58 163l-62 -33
q-14 -82 -14 -105q0 -97 30 -145q-60 -45 -125 -45t-93 37.5z" />
    <glyph glyph-name="L" unicode="L" horiz-adv-x="549" 
d="M88 11.5q-28 37.5 -28 112t63 422.5l-53 107q113 73 206 73q77 0 77 -94q0 -28 -38.5 -234t-38.5 -262h108q76 11 153 39q6 -18 6 -49q0 -59 -34.5 -105t-95.5 -46q-41 0 -142 22q-42 -23 -89 -23q-66 0 -94 37.5z" />
    <glyph glyph-name="M" unicode="M" horiz-adv-x="1036" 
d="M738 11.5q-28 37.5 -28 110.5t47 336h-16q-61 -80 -101 -191t-49 -200q-49 -46 -113 -46q-26 0 -45.5 18.5t-38.5 64.5q-37 93 -53 354h-16q-49 -215 -49 -303t30 -136q-60 -45 -125 -45t-93 37.5t-28 112t63 422.5l-53 107q113 73 206 73q41 0 69.5 -8.5t55 -32.5
t43.5 -67q39 -97 56 -283h12q52 153 144 263q50 59 119.5 93t150.5 34q77 0 77 -93q0 -31 -38.5 -230.5t-38.5 -237.5q0 -97 30 -145q-60 -45 -125 -45t-93 37.5z" />
    <glyph glyph-name="N" unicode="N" horiz-adv-x="870" 
d="M578 157l24 16q-65 125 -65 274q0 116 57.5 197t162.5 81q55 0 93 -19q-10 -56 -36 -195q-56 -299 -56 -343q0 -95 32 -142q-44 -29 -81 -40t-95.5 -11t-106 25t-78 66.5t-51.5 102.5q-37 107 -45 272h-16q-46 -208 -46 -291t30 -131q-60 -45 -125 -45t-93 37.5t-28 112
t63 422.5l-53 107q112 72 200 72t133 -30.5t63 -89.5t26.5 -124.5t30 -157.5t60.5 -166z" />
    <glyph glyph-name="O" unicode="O" horiz-adv-x="774" 
d="M25 306q0 190 106 304.5t290 114.5q59 0 84.5 -23.5t25.5 -72.5q0 -7 -2 -27q37 30 82 30q61 0 104.5 -54.5t43.5 -157.5t-33 -189t-87.5 -141t-124 -85t-143.5 -30q-160 0 -253 91.5t-93 239.5zM524 259q-64 78 -64 168t40 145q-18 3 -36 3q-71 0 -123 -43
q-98 -80 -98 -222q0 -81 36 -135t100 -54q49 0 89.5 38.5t55.5 99.5z" />
    <glyph glyph-name="P" unicode="P" horiz-adv-x="717" 
d="M282 219q-6 -36 -6 -55q0 -97 30 -145q-60 -45 -125 -45t-93 37.5t-28 112t63 422.5l-53 107q113 73 206 73q26 0 57 -9.5t44 -21.5q74 29 137 29q94 0 148.5 -65.5t54.5 -158.5q0 -112 -81 -200q-39 -43 -105 -69t-134.5 -26t-114.5 14zM301 333q14 -3 29 -3
q64 0 114 45t50 111q0 46 -26.5 78t-74.5 32q-20 0 -46 -8q-20 -137 -46 -255z" />
    <glyph glyph-name="Q" unicode="Q" horiz-adv-x="774" 
d="M25 306q0 190 106 304.5t290 114.5q59 0 84.5 -23.5t25.5 -72.5q0 -7 -2 -27q37 30 82 30q61 0 104.5 -54.5t43.5 -156.5q0 -182 -92.5 -298t-228.5 -141v-6q60 -8 92 -8q98 0 179 30q11 -30 11 -66q0 -60 -37 -100.5t-108 -40.5q-132 0 -315 105q-48 -65 -123 -65
q-39 0 -61 25.5t-22 61.5t31.5 66t89.5 30v8q-73 42 -111.5 115.5t-38.5 168.5zM524 259q-64 78 -64 168t40 145q-18 3 -36 3q-71 0 -123 -43q-98 -80 -98 -222q0 -81 36 -135t100 -54q49 0 89.5 38.5t55.5 99.5z" />
    <glyph glyph-name="R" unicode="R" 
d="M427 139l-35 101q-52 0 -105 16q-11 -64 -11 -92q0 -97 30 -145q-60 -45 -125 -45t-93 37.5t-28 112t63 422.5l-53 107q112 72 206 72q72 0 111 -30q75 30 135 30q92 0 146 -62t54 -149q0 -65 -33 -125.5t-97 -98.5q34 -97 76.5 -167t84.5 -93q-21 -22 -64.5 -38.5
t-78.5 -16.5q-68 0 -109 34.5t-74 129.5zM331 365q80 0 124.5 41t44.5 88t-26 75t-74 28q-26 0 -52 -7q-32 -191 -40 -224q7 -1 23 -1z" />
    <glyph glyph-name="S" unicode="S" horiz-adv-x="688" 
d="M414 725q132 0 198 -30.5t66 -97t-40.5 -101t-92.5 -34.5t-93.5 26.5t-57.5 70.5q-37 0 -70.5 -24.5t-42.5 -63.5q198 -48 284 -112t86 -164t-90.5 -160t-244 -60t-217.5 42t-64 111t43 127q21 -45 80.5 -81t117.5 -36q107 0 136 68q-166 22 -253 92.5t-87 170.5
q0 67 36 119.5t92 80.5q110 56 214 56z" />
    <glyph glyph-name="T" unicode="T" horiz-adv-x="595" 
d="M13 552q0 81 42 122t100.5 41t159.5 -20t152 -21q85 16 162 39q8 -26 8 -65q0 -81 -46.5 -122t-118.5 -41q-18 0 -48 2q-55 -289 -55 -323q0 -97 30 -145q-60 -45 -125 -45t-93 37.5t-28 112t58 397.5q-113 -15 -190 -34q-8 25 -8 65z" />
    <glyph glyph-name="U" unicode="U" horiz-adv-x="827" 
d="M745 19q-60 -45 -118 -45t-92 30t-34 90q0 17 1 26l-10 3q-99 -148 -266 -148q-161 0 -161 170q0 57 16 151.5t27.5 160t15.5 89.5l-53 107q63 36 109.5 54t93.5 18t63.5 -24.5t16.5 -58.5t-33.5 -218t-33.5 -215q0 -79 54 -79q40 0 91 51t83 140q-21 61 -21 126
q0 116 57.5 197t162.5 81q58 0 93 -19q-9 -54 -35 -196q-57 -301 -57 -346q0 -97 30 -145z" />
    <glyph glyph-name="V" unicode="V" horiz-adv-x="728" 
d="M336 326l-3 -168h26q56 119 103 254.5t47 206.5q0 28 -11 54q76 52 140 52q100 0 100 -113q0 -56 -30.5 -141.5t-90.5 -214t-64 -138.5l14 -55q-46 -37 -118 -62.5t-159 -25.5t-129 28t-42 94l1 184q0 229 -56 323q-26 43 -64 69q68 52 156 52q80 0 119 -62.5t51 -149.5
q10 -79 10 -187z" />
    <glyph glyph-name="W" unicode="W" horiz-adv-x="1018" 
d="M626 399l-3 -241h26q56 119 103 254.5t47 206.5q0 28 -11 54q76 52 140 52q100 0 100 -113q0 -56 -30.5 -141.5t-90.5 -214t-64 -138.5l14 -55q-86 -88 -215 -88t-163 47q-84 -47 -180 -47t-138 28t-42 94l1 184q0 229 -56 323q-26 43 -64 69q68 52 156 52
q80 0 119 -62.5t51 -149.5q10 -79 10 -187l-3 -168h26q57 124 96 294q-10 96 -44 193q37 29 69 41.5t85 12.5q109 0 109 -101q0 -60 -48 -199z" />
    <glyph glyph-name="X" unicode="X" horiz-adv-x="749" 
d="M564 -25q-67 0 -106 35t-95 140l-42 78q-68 -81 -68 -146q0 -32 9 -55q-76 -52 -148 -52q-53 0 -78.5 27t-25.5 67q0 119 239 294l-89 168q-52 100 -122 123q68 71 161 71q67 0 106 -35t95 -140l41 -78q70 80 70 146q0 30 -10 55q77 52 149 52q53 0 78.5 -27t25.5 -67
q0 -126 -238 -300l87 -162q52 -100 122 -123q-68 -71 -161 -71z" />
    <glyph glyph-name="Y" unicode="Y" horiz-adv-x="672" 
d="M122 180q-1 20 -4 84t-5.5 97.5t-11 91.5t-21.5 93q-32 92 -90 132q78 47 126.5 47t80.5 -16t52.5 -38.5t36.5 -62.5t24 -73t13.5 -85t7 -84t3 -84.5t2.5 -72.5h14q39 93 71.5 213t32.5 191q0 35 -15 65q75 47 133 47q110 0 110 -116q0 -59 -45 -198t-106 -269
q-79 -169 -162.5 -244t-214.5 -75q-58 0 -105 23q-57 27 -57 91t49 132q22 -32 59 -49.5t81.5 -17.5t84 24.5t56.5 70.5q-53 -13 -97 -13q-95 0 -103 96z" />
    <glyph glyph-name="Z" unicode="Z" horiz-adv-x="674" 
d="M9.5 7.5q-29.5 27.5 -29.5 77.5t38.5 91t106.5 41l192 256q-114 3 -181 42.5t-67 120.5q0 38 10 85q71 -29 197.5 -48.5t185.5 -19.5q41 71 112 71q47 0 73.5 -29.5t26.5 -72.5q0 -68 -84 -107l-256 -320l176 -19l121 55q8 -36 8 -79q0 -88 -44.5 -132.5t-114.5 -44.5
q-135 0 -260 79q-62 -74 -133 -74q-48 0 -77.5 27.5z" />
    <glyph glyph-name="bracketleft" unicode="[" horiz-adv-x="481" 
d="M85 15q0 216 78 569q16 73 38.5 117t58 65.5t71.5 27.5t91 6t72 -24t17 -67t-5 -60q-15 7 -59 13t-71 6q-59 -117 -82 -285.5t-23 -407.5q27 0 69 6t57 13q8 -27 8 -52q0 -99 -68 -99q-77 0 -111 3t-73.5 18.5t-53.5 51.5t-14 99z" />
    <glyph glyph-name="backslash" unicode="\" horiz-adv-x="397" 
d="M216 23q-29 102 -75 280t-79.5 296.5t-81.5 189.5q52 47 115.5 47t79.5 -64q4 -14 60 -252t98.5 -386.5t83.5 -186.5q-41 -32 -90 -32q-81 0 -111 108z" />
    <glyph glyph-name="bracketright" unicode="]" horiz-adv-x="481" 
d="M396 628q0 -216 -78 -569q-16 -73 -38.5 -117t-58 -65.5t-71.5 -27.5t-91 -6t-72 24t-17 67t5 60q15 -7 59 -13t71 -6q59 117 82 285.5t23 407.5q-27 0 -69 -6t-57 -13q-5 17 -5 59.5t14.5 67t50.5 24.5q77 0 111 -3t73.5 -18.5t53.5 -51.5t14 -99z" />
    <glyph glyph-name="asciicircum" unicode="^" 
d="M468 959q-1 -4 -1 -13q0 -47 29.5 -114.5t64.5 -123.5q94 -149 94 -194q0 -36 -55.5 -64t-112.5 -28q-15 0 -22 1q0 69 -34 159q-14 37 -18.5 49t-22.5 53.5t-19 43.5q-19 -33 -58 -122.5t-70 -144t-54 -54.5q-37 0 -77.5 40t-53.5 81q38 27 86 106q14 23 66.5 116
t81 138t70.5 58t106 13z" />
    <glyph glyph-name="underscore" unicode="_" horiz-adv-x="723" 
d="M179 -25l216 3q114 3 229 3q84 0 84 -76q0 -47 -20 -81q-42 18 -141 18t-277 -12t-211 -12q-44 0 -44 62t34 114q48 -19 130 -19z" />
    <glyph glyph-name="grave" unicode="`" horiz-adv-x="376" 
d="M300 653q-42 0 -121.5 33.5t-125.5 33.5q-9 0 -23 -2q-10 34 -10 73q0 95 56 95q37 0 84.5 -33.5t100 -73.5t95.5 -50q-3 -39 -18.5 -57.5t-37.5 -18.5z" />
    <glyph glyph-name="a" unicode="a" horiz-adv-x="736" 
d="M427 123l-10 5q-27 -72 -77.5 -112.5t-112.5 -40.5q-85 0 -136 64t-51 171q0 166 111.5 278t277.5 112q43 0 79 -8q6 -28 7 -49q50 32 103 32q73 0 73 -79q0 -28 -31.5 -169t-31.5 -209t31 -94q-56 -49 -116.5 -49t-88 36t-27.5 112zM228 259q0 -49 20.5 -75.5
t58.5 -26.5t75 28t62 77q9 101 39 239q-101 0 -178 -73t-77 -169z" />
    <glyph glyph-name="b" unicode="b" horiz-adv-x="739" 
d="M66 190q0 84 65 432l-56 80q62 37 104.5 55t85 18t62.5 -17t20 -54q0 -64 -39 -251l10 -5q72 143 210 143q78 0 122 -66.5t44 -161t-37.5 -170t-97 -122t-129.5 -71.5t-139 -25q-113 0 -169 52t-56 163zM264 91q111 0 180.5 76t69.5 170q0 43 -23.5 78t-61.5 35
t-70.5 -31t-50 -74t-28.5 -97q-16 -85 -16 -157z" />
    <glyph glyph-name="c" unicode="c" horiz-adv-x="638" 
d="M45 238q0 160 110 261t277 101q86 0 136 -32.5t50 -81.5t-33.5 -75t-73 -26t-72 21t-50.5 61q-63 -26 -99.5 -92t-36.5 -132t26 -107t68 -41t68.5 28t26.5 83q146 0 146 -69q0 -59 -74 -110.5t-195 -51.5t-197.5 72.5t-76.5 190.5z" />
    <glyph glyph-name="d" unicode="d" horiz-adv-x="748" 
d="M432 73l-10 5q-78 -103 -186 -103q-80 0 -135.5 63.5t-55.5 171.5q0 134 94 244q46 54 123 87.5t172 33.5q18 0 64 -4q2 21 9 51l-56 80q125 73 197 73q41 0 58 -16.5t17 -62t-44.5 -256.5t-44.5 -299.5t31 -116.5q-56 -49 -116.5 -49t-88.5 30.5t-28 67.5zM233 248
q0 -57 29.5 -90t73.5 -33q57 0 104 54q16 178 45 308q-115 0 -183.5 -74t-68.5 -165z" />
    <glyph glyph-name="e" unicode="e" horiz-adv-x="657" 
d="M331 -25q-137 0 -211.5 71t-74.5 192q0 161 110.5 261.5t277.5 100.5q93 0 141 -41.5t48 -109.5q0 -93 -90.5 -154.5t-279.5 -62.5q3 -64 29 -100.5t65 -36.5t67.5 26t28.5 85q146 0 146 -69q0 -59 -72 -110.5t-185 -51.5zM416 483q-51 0 -93.5 -51t-61.5 -120
q100 8 150.5 45.5t50.5 79.5q0 20 -12.5 33t-33.5 13z" />
    <glyph glyph-name="f" unicode="f" horiz-adv-x="432" 
d="M55 317q-7 22 -7 45q0 48 27 73t69 26q-7 31 -7 68q0 110 57 189.5t161 79.5q57 0 89.5 -34t32.5 -79t-31 -76.5t-81 -31.5t-89 24l-14 -11l35 -119q52 7 106 27q7 -22 7 -53.5t-18.5 -59t-53.5 -35.5q-64 -295 -64 -420q0 -64 31 -91q-73 -49 -130 -49q-112 0 -112 138
q0 86 62 406q-45 -9 -70 -17z" />
    <glyph glyph-name="g" unicode="g" horiz-adv-x="729" 
d="M239 280q0 -51 28.5 -82.5t70.5 -31.5q57 0 102 54q17 89 44 281q-112 0 -178.5 -65t-66.5 -156zM386 -198.5q-71 -36.5 -149.5 -36.5t-126 29.5t-47.5 79.5t41 105q46 -68 138 -68q60 0 111.5 51.5t68.5 150.5l-10 5q-71 -104 -182 -104q-84 0 -132 65t-48 173
q0 104 57 190q65 99 181 137q64 21 122 21t98 -8q6 -27 7 -49q47 32 95 32q69 0 69 -71t-9 -145.5t-28 -159.5t-54.5 -160.5t-83 -138t-118.5 -99z" />
    <glyph glyph-name="h" unicode="h" horiz-adv-x="773" 
d="M607 600q121 0 121 -121q0 -52 -29.5 -176t-29.5 -187t21 -92q-53 -49 -112 -49q-115 0 -115 124q0 46 30 156t30 143q0 45 -34 45q-28 0 -64 -24.5t-69.5 -66t-56.5 -105t-23 -129t21 -94.5q-53 -49 -112 -49q-115 0 -115 124q0 74 40 300q34 199 39 223l-56 80
q125 73 197 73q41 0 58 -16.5t17 -54.5q0 -72 -14 -157t-26 -125l10 -5q107 183 272 183z" />
    <glyph glyph-name="i" unicode="i" horiz-adv-x="388" 
d="M338 692.5q-40 -27.5 -91 -27.5t-80.5 20t-29.5 54q0 46 43 72t91 26t77.5 -20t29.5 -58.5t-40 -66zM93 6q-28 31 -28 94.5t64 340.5l-56 84q125 75 197 75q41 0 58 -17.5t17 -56.5q0 -15 -37 -176t-37 -230t31 -96q-56 -49 -118.5 -49t-90.5 31z" />
    <glyph glyph-name="j" unicode="j" horiz-adv-x="392" 
d="M335 692.5q-40 -27.5 -91 -27.5t-80.5 20t-29.5 54q0 46 43 72t91 26t77.5 -20t29.5 -58.5t-40 -66zM342 526q0 -84 -82 -489q-21 -105 -73.5 -176t-135.5 -71q-59 0 -89 27.5t-30 71t30 70t74.5 26.5t92.5 -33l10 14q-43 44 -56 71t-13 63.5t56 340.5l-56 84
q125 75 197 75q41 0 58 -17.5t17 -56.5z" />
    <glyph glyph-name="k" unicode="k" horiz-adv-x="724" 
d="M144 622l-56 80q125 73 197 73q41 0 58 -16.5t17 -55t-12.5 -107.5t-33 -163t-29.5 -151l63 56q9 8 29.5 25.5t29 25.5t23.5 22.5t22 24.5t16 23q14 22 14 49.5t-8 48.5q71 43 134 43q42 0 67 -26.5t25 -76.5t-45.5 -100.5t-112.5 -88.5q31 -103 80 -189t82 -103
q-40 -41 -124 -41q-62 0 -104.5 42t-75.5 138l-25 71l-103 -51q-1 -11 -1 -33q0 -83 31 -118q-70 -49 -127 -49t-83.5 37.5t-26.5 103.5t37 270t42 236z" />
    <glyph glyph-name="l" unicode="l" horiz-adv-x="385" 
d="M149 622l-56 80q125 73 197 73q41 0 58 -16.5t17 -62t-44.5 -256.5t-44.5 -296t31 -120q-70 -49 -127 -49t-83.5 37.5t-26.5 103.5t37 270t42 236z" />
    <glyph glyph-name="m" unicode="m" horiz-adv-x="1131" 
d="M693 422l10 -5q107 183 262 183q121 0 121 -121q0 -52 -29.5 -176t-29.5 -187t21 -92q-53 -49 -112 -49q-115 0 -115 124q0 46 30 156t30 143q0 45 -34 45q-28 0 -62.5 -24.5t-66 -66t-53 -105t-21.5 -129t21 -94.5q-53 -49 -112 -49q-115 0 -115 124q0 46 30 156t30 143
q0 45 -34 45q-28 0 -62.5 -24.5t-66 -66t-53 -105t-21.5 -129t21 -94.5q-53 -49 -112 -49q-115 0 -115 124q0 40 20.5 155t42.5 210l-52 80q99 56 183 56t84 -76q0 -50 -23 -102l10 -5q107 183 262 183q56 0 88.5 -28t32.5 -84q0 -30 -10 -66z" />
    <glyph glyph-name="n" unicode="n" horiz-adv-x="758" 
d="M83 6q-28 31 -28 82t20.5 166t42.5 210l-52 80q99 56 183 56t84 -76q0 -50 -23 -102l10 -5q107 183 272 183q121 0 121 -121q0 -52 -29.5 -176t-29.5 -187t21 -92q-53 -49 -112 -49q-115 0 -115 124q0 46 30 156t30 143q0 45 -34 45q-28 0 -64 -24.5t-69.5 -66
t-56.5 -105t-23 -129t21 -94.5q-53 -49 -112 -49t-87 31z" />
    <glyph glyph-name="o" unicode="o" horiz-adv-x="715" 
d="M538 524q56 0 96.5 -45t40.5 -130.5t-30 -158t-79 -118.5t-111 -71.5t-127 -25.5q-131 0 -207 72t-76 191q0 161 103.5 261.5t263.5 100.5q36 0 72 -8q11 -33 12 -75q21 7 42 7zM415 385q0 28 13.5 63t43.5 56q-132 -28 -182 -107q-43 -68 -43 -140t29.5 -115.5
t75.5 -43.5q102 0 144 133q-81 50 -81 154z" />
    <glyph glyph-name="p" unicode="p" horiz-adv-x="766" 
d="M79.5 -168.5q-24.5 30.5 -24.5 88t24.5 231.5t47.5 297l-56 80q62 36 107 54.5t89 18.5q72 0 72 -95q0 -13 -4 -53l10 -5q29 72 84 112.5t129.5 40.5t118.5 -67.5t44 -167.5q0 -134 -94 -244q-46 -54 -123 -87.5t-172 -33.5q-29 0 -76 5q-3 -35 -3 -65q0 -64 31 -91
q-56 -49 -118 -49t-86.5 30.5zM297 215l-23 -116q121 3 193.5 79.5t72.5 167.5q0 47 -18.5 75.5t-53.5 28.5q-124 0 -171 -235z" />
    <glyph glyph-name="q" unicode="q" horiz-adv-x="737" 
d="M400.5 -30q13.5 75 17.5 102l-10 5q-37 -49 -87 -75.5t-100 -26.5q-77 0 -129 60.5t-52 174.5q0 151 86 266q42 56 111.5 90t147 34t140.5 -34q37 9 76 9q90 0 90 -98q0 -16 -21 -104q-61 -264 -61 -419l50 -80q-98 -73 -185 -73q-46 0 -66.5 17t-20.5 47t13.5 105z
M323 125q65 0 111 66q23 152 50 309q-27 6 -49 6q-67 0 -115 -38q-91 -69 -91 -198q0 -61 25 -103t69 -42z" />
    <glyph glyph-name="r" unicode="r" horiz-adv-x="529" 
d="M55 99q0 40 20.5 155t42.5 210l-52 80q125 56 175.5 56t50.5 -64q0 -35 -33 -146l10 -5q72 215 179 215q49 0 75 -30t26 -67q0 -55 -41 -94t-123 -39q-124 0 -124 -255q0 -62 21 -91q-62 -49 -114 -49q-113 0 -113 124z" />
    <glyph glyph-name="s" unicode="s" horiz-adv-x="643" 
d="M374 467q-37 -11 -59 -31.5t-39 -58.5q169 -25 238 -72t69 -134q0 -55 -31 -95.5t-78 -61.5q-92 -39 -181 -39q-253 0 -253 109q0 55 49 110q25 -35 75.5 -60t98.5 -25q83 0 100 73q-152 18 -220 68t-68 141q0 72 47.5 121t118 68.5t159 19.5t146 -33.5t57.5 -81.5
t-33.5 -74t-73 -26t-72 21t-50.5 61z" />
    <glyph glyph-name="t" unicode="t" horiz-adv-x="476" 
d="M67 361q-7 28 -7 52q0 49 29 74t75 25q0 52 -27 113q49 36 89.5 54.5t85.5 18.5t62.5 -16.5t17.5 -50.5t-14 -106q40 6 81 17q7 -21 7 -54t-25.5 -61.5t-74.5 -28.5h-15q-36 -163 -36 -251t31 -123q-56 -49 -119 -49t-90.5 37.5t-27.5 116.5q0 48 35 252q-40 -7 -77 -20z
" />
    <glyph glyph-name="u" unicode="u" horiz-adv-x="764" 
d="M223 -25q-88 0 -123 43t-35 108.5t22 179.5t22 165t-21 80q93 49 157 49q41 0 59.5 -16.5t18.5 -53.5t-30.5 -181.5t-30.5 -178.5t19 -53.5t50 -19.5t66 24.5t57 69.5q14 81 55 256l-60 80q101 73 192 73q45 0 64.5 -16.5t19.5 -50t-36.5 -191.5t-36.5 -224.5t31 -93.5
q-56 -49 -117.5 -49t-88.5 27t-27 71l-10 5q-33 -48 -91.5 -75.5t-125.5 -27.5z" />
    <glyph glyph-name="v" unicode="v" horiz-adv-x="703" 
d="M95 110l4 275q0 116 -54 172q52 43 114 43q81 0 110 -72q25 -62 25 -187.5t-5 -243.5h34q152 319 152 415q0 23 -9 45q74 43 134 43q78 0 78 -94q0 -43 -22 -107.5t-67.5 -166t-47.5 -105.5l13 -58q-42 -38 -120 -66t-165 -28t-130.5 31.5t-43.5 103.5z" />
    <glyph glyph-name="w" unicode="w" horiz-adv-x="966" 
d="M96 89q3 218 3 296q0 116 -54 172q52 43 114 43q77 0 106 -64.5t29 -192.5t-5 -246h34q83 143 100 224q-1 51 -14.5 117.5t-29.5 93.5q15 19 46 31.5t69 12.5t70.5 -23t32.5 -68q0 -28 -9 -53t-18 -51.5t-15 -43.5l-4 -240h34q57 110 104.5 231t47.5 184q0 23 -9 45
q68 43 131 43q82 0 82 -94q0 -43 -22 -107.5t-67.5 -166t-47.5 -105.5l14 -58q-39 -30 -117.5 -62t-143.5 -32q-104 0 -125 91q-94 -91 -199 -91q-58 0 -97.5 26.5t-39.5 87.5z" />
    <glyph glyph-name="x" unicode="x" horiz-adv-x="689" 
d="M337 89l-48 88q-66 -61 -66 -113q0 -25 8 -46q-71 -43 -134 -43q-42 0 -67 26.5t-25 69.5q0 64 56.5 119.5t132.5 92.5l29 14l-60 110q-39 72 -116 98q62 95 162 95q45 0 76 -24.5t67 -90.5l44 -81q60 57 60 107q0 25 -8 46q71 43 134 43q42 0 67 -26.5t25 -69.5
q0 -64 -56.5 -119.5t-132.5 -92.5l-22 -11l63 -114q39 -74 116 -98q-63 -94 -163 -94q-46 0 -76 24t-66 90z" />
    <glyph glyph-name="y" unicode="y" horiz-adv-x="695" 
d="M332 20q-47 -17 -94 -17t-79 28t-37 76t-9 139.5t-8 129.5q-13 127 -80 181q47 43 118 43q39 0 68 -20.5t46.5 -54t28.5 -86.5q17 -88 17 -238q0 -37 -3 -87h58q103 278 103 379q0 34 -15 64q70 43 122 43q97 0 97 -112q0 -89 -82 -313q-15 -41 -17 -48
q-127 -362 -361 -362q-71 0 -117 30.5t-46 80t37 103.5q48 -68 120 -68q41 0 76.5 27t56.5 82z" />
    <glyph glyph-name="z" unicode="z" horiz-adv-x="624" 
d="M220 25q-55 -43 -105 -43t-75 28t-25 70.5t31 78.5t88 43l164 174q-124 4 -171 37t-47 101q0 27 11 91q67 -28 155 -50.5t138 -24.5q16 31 47.5 50.5t75 19.5t70.5 -26t27 -68q0 -73 -73 -105l-207 -237q65 -20 103 -21l136 53q21 -54 21 -102.5t-46 -83.5t-111 -35
t-137 25q-25 8 -70 25z" />
    <glyph glyph-name="braceleft" unicode="{" horiz-adv-x="486" 
d="M175 301q-15 -6 -38 -6t-43.5 18t-20.5 44t20.5 44.5t50 18.5t50.5 -19q-21 75 -21 180q0 127 61 174q37 29 76 36q50 9 114 9q92 0 92 -99q0 -35 -5 -52q-15 7 -59 13t-71 6q-31 -152 -64 -215.5t-90 -101.5q66 -74 66 -188q0 -20 -17 -188q27 0 69 6t57 13q7 -24 7 -52
q0 -99 -77 -99q-127 0 -184.5 38.5t-57.5 133.5q0 54 22 133t63 153z" />
    <glyph glyph-name="bar" unicode="|" horiz-adv-x="479" 
d="M110 -168q30 71 35.5 197.5t10.5 366.5t10 362q2 58 26 87t80.5 29t91.5 -34q-45 -82 -45 -461q0 -109 6 -276t6 -253q0 -69 -81 -69q-94 0 -140 51z" />
    <glyph glyph-name="braceright" unicode="}" horiz-adv-x="486" 
d="M310 341q14 7 38 7t44.5 -18t20.5 -44t-20.5 -44.5t-50.5 -18.5t-51 19q22 -75 22 -180q0 -127 -61 -174q-37 -29 -76 -36q-50 -9 -114 -9q-92 0 -92 99q0 35 5 52q15 -7 59 -13t71 -6q31 152 64 215.5t90 101.5q-66 74 -66 188q0 20 17 188q-27 0 -69 -6t-57 -13
q-7 24 -7 52q0 99 77 99q127 0 184.5 -38.5t57.5 -133.5q0 -54 -22.5 -133.5t-63.5 -153.5z" />
    <glyph glyph-name="asciitilde" unicode="~" 
d="M598 328q-51 26 -111 26t-167 -42t-163 -42q-60 0 -60 70q0 53 39 110q49 -19 107 -19t154 38.5t147 38.5q92 0 92 -79q0 -51 -38 -101z" />
    <glyph glyph-name="exclamdown" unicode="&#xa1;" horiz-adv-x="458" 
d="M251 287q70 0 70 -85q0 -21 -9.5 -126.5t-9.5 -149.5t25 -68q-66 -67 -174 -67t-108 103q0 47 14 97t27.5 90t22 62.5t23 60t17.5 45.5q20 18 49.5 28t52.5 10zM195.5 398.5q-30.5 30.5 -30.5 78t37 85.5t86 38t79.5 -30.5t30.5 -78t-37 -85.5t-86 -38t-79.5 30.5z" />
    <glyph glyph-name="cent" unicode="&#xa2;" horiz-adv-x="663" 
d="M278 -135q-32 0 -32 55.5t27 141.5q-98 15 -153.5 77t-55.5 154q0 126 80.5 213.5t209.5 108.5q12 55 12 82t-2 43q54 54 86 54q29 0 29 -48t-25 -126q140 -9 140 -105q0 -45 -25 -99q-62 39 -160 39q-39 0 -70 -5q-26 -23 -42 -66.5t-16 -89.5t20.5 -78t56.5 -32t62 30
t28 85q151 -3 151 -53q0 -62 -64 -118.5t-164 -67.5q-13 -60 -13 -94t4 -49q-49 -52 -84 -52z" />
    <glyph glyph-name="sterling" unicode="&#xa3;" horiz-adv-x="664" 
d="M291 208q128 -32 200 -32l115 46q12 -43 12 -90q0 -78 -43 -117.5t-104 -39.5t-111 12.5t-125 39.5q-59 -46 -112.5 -46t-79.5 30t-26 73.5t24 77.5t69 49l2 61q-28 -5 -48 -5q-39 0 -39 24q0 29 48 76q8 -2 45 -2q5 72 16 131q17 100 89.5 154.5t173.5 54.5
q212 0 212 -131q0 -67 -27 -112q-77 47 -218 47q0 -33 -19 -119q69 19 113.5 19t44.5 -27q0 -32 -47 -75q-13 4 -42.5 4t-92.5 -14q-16 -53 -30 -89z" />
    <glyph glyph-name="yen" unicode="&#xa5;" horiz-adv-x="728" 
d="M140 288q-39 0 -39 21q0 26 44 67q7 -2 20 -2q-55 221 -120 282q77 44 164 44q139 0 139 -172q0 -68 -22 -178h40q31 51 61 131t30 144q0 26 -5 41q69 34 152 34q103 0 103 -64q0 -49 -104 -207q5 1 16 1q46 0 46 -24t-43 -66q-13 4 -30.5 4t-49.5 -4l-49 -69q43 9 70 9
q46 0 46 -24t-43 -66q-13 4 -42 4t-87 -15q-5 -29 -5 -77.5t23 -89.5q-70 -37 -134 -37q-122 0 -122 150q0 20 1 30q-60 -17 -97.5 -17t-37.5 21q0 26 44 67q9 -2 30.5 -2t56.5 8l-12 60q-21 -4 -44 -4z" />
    <glyph glyph-name="brokenbar" unicode="&#xa6;" horiz-adv-x="435" 
d="M110 443q15 52 19.5 113.5t4.5 190.5q0 67 20 97t74.5 30t91.5 -34q-23 -50 -23 -173q0 -69 5 -125.5t5 -81.5q0 -60 -75 -60t-122 43zM110 -176q15 52 19.5 113.5t4.5 190.5q0 67 20 97t74.5 30t91.5 -34q-23 -50 -23 -173q0 -69 5 -125.5t5 -81.5q0 -60 -75 -60
t-122 43z" />
    <glyph glyph-name="section" unicode="&#xa7;" horiz-adv-x="743" 
d="M90 534q0 116 95.5 178t234.5 62q293 0 293 -150q0 -71 -36 -141q-42 51 -110 83.5t-140 32.5q-97 0 -127 -91q189 -48 262 -109t78 -152q-62 62 -256 84q-72 8 -140.5 23t-111 59t-42.5 121zM17 -37q0 72 37 141q42 -51 110 -83.5t140 -32.5q97 0 126 90
q-252 64 -310 154q-28 44 -31 109q61 -64 253 -85q73 -8 142 -23t112.5 -59t43.5 -121q0 -116 -95.5 -178t-233.5 -62q-294 0 -294 150z" />
    <glyph glyph-name="dieresis" unicode="&#xa8;" horiz-adv-x="632" 
d="M569 696q-37 -30 -83 -30t-72.5 20t-26.5 55q0 51 39.5 79.5t83 28.5t70 -20.5t26.5 -61.5t-37 -71zM268 696q-37 -30 -83 -30t-72.5 20t-26.5 55q0 51 39.5 79.5t83 28.5t70 -20.5t26.5 -61.5t-37 -71z" />
    <glyph glyph-name="copyright" unicode="&#xa9;" horiz-adv-x="896" 
d="M231 285q77 -72 184.5 -72t185 48.5t116.5 123t39 158.5q0 105 -73 188.5t-209.5 83.5t-228 -84t-91.5 -229t77 -217zM536.5 166q-55.5 -16 -117 -16t-121.5 21.5t-108 63t-76.5 108.5t-28.5 150q0 182 124 292.5t328 110.5q65 0 87 -17.5t26 -60.5q80 -43 120.5 -115.5
t40.5 -152.5t-22 -145t-59.5 -111.5t-87.5 -79t-105.5 -48.5zM319 365.5q-44 44.5 -44 128.5t65.5 154t173.5 70q45 0 73.5 -18.5t28.5 -51.5t-21.5 -51t-52.5 -18q-54 0 -82 46q-28 -14 -49 -54.5t-21 -80.5t13.5 -64t38 -24t43 25t18.5 60q54 0 77 -8.5t23 -36.5
q0 -44 -47.5 -82.5t-120 -38.5t-116.5 44.5z" />
    <glyph glyph-name="ordfeminine" unicode="&#xaa;" horiz-adv-x="552" 
d="M390 289q-70 0 -75 83h-8q-22 -36 -57.5 -59.5t-70.5 -23.5q-62 0 -99.5 46t-37.5 123q0 116 78.5 194.5t194.5 78.5q36 0 62 -7q4 -12 4 -30q35 20 62 20q59 0 59 -63q0 -22 -21 -117.5t-21 -136.5t26 -64q-50 -44 -96 -44zM189 491q0 -59 43 -59q50 0 84 63
q7 76 23 150q-61 -4 -105.5 -49.5t-44.5 -104.5z" />
    <glyph glyph-name="guillemotleft" unicode="&#xab;" horiz-adv-x="694" 
d="M595 243q-9 -225 -59 -225q-35 0 -85.5 45.5t-76.5 90.5q-4 20 -4 58q0 101 28 208.5t68 112.5q89 7 124 16.5t58 17.5q0 -145 -47 -192q-23 -23 -47 -31t-46.5 -8t-62.5 7l-7 -44q69 -56 157 -56zM283 243q-9 -225 -59 -225q-35 0 -85.5 45.5t-76.5 90.5q-4 20 -4 58
q0 101 28 208.5t68 112.5q89 7 124 16.5t58 17.5q0 -145 -47 -192q-23 -23 -47 -31t-46.5 -8t-62.5 7l-7 -44q69 -56 157 -56z" />
    <glyph glyph-name="logicalnot" unicode="&#xac;" 
d="M259 440l295 6q84 0 84 -76q0 -34 -26 -107.5t-26 -102.5t8 -55q-46 -24 -98 -24q-64 0 -64 55q0 36 22 100t24 71q-44 -2 -160.5 -13t-178.5 -11q-44 0 -44 61t34 114q49 -18 130 -18z" />
    <glyph glyph-name="registered" unicode="&#xae;" horiz-adv-x="896" 
d="M231 285q77 -72 184.5 -72t185 48.5t116.5 123t39 158.5q0 105 -73 188.5t-209.5 83.5t-228 -84t-91.5 -229t77 -217zM536.5 166q-55.5 -16 -117 -16t-121.5 21.5t-108 63t-76.5 108.5t-28.5 150q0 182 124 292.5t328 110.5q65 0 87 -17.5t26 -60.5q80 -43 120.5 -115.5
t40.5 -152.5t-22 -145t-59.5 -111.5t-87.5 -79t-105.5 -48.5zM471 408l-18 53q-29 0 -56 9q-6 -33 -6 -49q0 -50 16 -77q-33 -24 -66.5 -24t-48.5 20t-15 59.5t33 223.5l-28 57q60 38 103.5 38t64.5 -16q39 16 80 16t69.5 -33t28.5 -79q0 -76 -69 -118q39 -113 85 -138
q-11 -11 -34 -20t-50.5 -9t-49.5 18t-39 69zM420 527q43 0 66.5 22t23.5 47t-13.5 39.5t-34.5 14.5t-33 -3q-10 -76 -21 -119q4 -1 12 -1z" />
    <glyph glyph-name="macron" unicode="&#xaf;" horiz-adv-x="555" 
d="M167 832l239 6q79 0 79 -71q0 -42 -15 -72q-25 14 -73 14t-148.5 -12t-139.5 -12t-39 50t32 109q29 -12 65 -12z" />
    <glyph glyph-name="degree" unicode="&#xb0;" horiz-adv-x="520" 
d="M403.5 528q-66.5 -61 -160.5 -61t-143.5 43.5t-49.5 114.5q0 97 66.5 158t160.5 61t143.5 -43.5t49.5 -114.5q0 -97 -66.5 -158zM241 553q34 0 61 42t27 95q0 66 -65 66q-8 0 -30 -2q-45 -57 -45 -123q0 -33 14 -55.5t38 -22.5z" />
    <glyph glyph-name="plusminus" unicode="&#xb1;" 
d="M259 29l295 6q79 0 79 -76q0 -44 -18 -79q-39 16 -106.5 16t-188.5 -12t-181 -12q-39 0 -39 64t31 110q54 -17 128 -17zM139 283q-39 0 -39 64t31 110q54 -17 161 -17q-2 78 -2 117q0 79 76 79q44 0 79 -18q-16 -39 -16 -96t2 -79q61 3 123 3q79 0 79 -76q0 -44 -18 -79
q-39 16 -110 16q-22 0 -62 -2q10 -110 10 -163q0 -39 -64 -39t-110 31q17 54 17 158q-95 -9 -157 -9z" />
    <glyph glyph-name="twosuperior" unicode="&#xb2;" horiz-adv-x="500" 
d="M133 395l17 -1q98 83 98 135q0 34 -30 34q-39 0 -64 -76q-48 0 -72.5 21t-24.5 56q0 54 52.5 95t151 41t142.5 -41.5t44 -96.5q0 -95 -139 -205q28 -5 51 -5l95 37q15 -35 15 -76q0 -60 -35 -90t-93.5 -30t-161.5 35q-38 -30 -84 -30t-69.5 25.5t-23.5 65.5t34 73t97 33z
" />
    <glyph glyph-name="threesuperior" unicode="&#xb3;" horiz-adv-x="471" 
d="M358 458q59 -40 59 -105.5t-70 -112.5t-180 -47q-138 0 -138 89q0 36 27 57t58.5 21t59 -15t40.5 -44q13 5 21.5 23t8.5 39t-9 33q-27 -18 -55 -18t-42 14.5t-14 34.5q0 59 120 59q7 13 7 33.5t-14.5 34.5t-33.5 14t-35 -13.5t-20 -42.5q-43 0 -66.5 22t-23.5 52
q0 45 47 79t137 34t134 -40.5t44 -89.5q0 -67 -62 -111z" />
    <glyph glyph-name="acute" unicode="&#xb4;" horiz-adv-x="476" 
d="M126 653q-22 0 -37.5 18.5t-18.5 57.5q43 10 95.5 50t100 73.5t84.5 33.5q56 0 56 -95q0 -39 -10 -73q-14 2 -23 2q-46 0 -125.5 -33.5t-121.5 -33.5z" />
    <glyph glyph-name="mu" unicode="&#xb5;" horiz-adv-x="771" 
d="M211 -4q0 -104 81 -190q-36 -23 -60 -32t-56 -9q-71 0 -105 45t-34 113.5t39.5 264.5t39.5 265t-21 98q93 49 157 49q41 0 59.5 -16.5t18.5 -53.5t-30.5 -181.5t-30.5 -178.5t19 -53.5t55.5 -19.5t66.5 24.5t45.5 67.5t24 86t17.5 94t19 78l-60 80q101 73 192 73
q45 0 64.5 -16.5t19.5 -50t-36.5 -191.5t-36.5 -224.5t31 -93.5q-56 -49 -117.5 -49t-88.5 27t-27 71l-10 5q-69 -102 -159 -102q-44 0 -77 20z" />
    <glyph glyph-name="paragraph" unicode="&#xb6;" horiz-adv-x="732" 
d="M447 -199q-131 0 -131 155q0 100 51 228.5t116 207.5l-21 12q-85 -140 -217 -140q-89 0 -137.5 58t-48.5 143q0 114 81 209q39 45 102.5 73t141.5 28q140 0 220 -74q30 -27 49 -73t19 -101.5t-27 -157t-54 -219t-27 -209.5q0 -64 31 -91q-73 -49 -148 -49z" />
    <glyph glyph-name="periodcentered" unicode="&#xb7;" horiz-adv-x="333" 
d="M80.5 210.5q-30.5 30.5 -30.5 78t37 85.5t86 38t79.5 -30.5t30.5 -78t-37 -85.5t-86 -38t-79.5 30.5z" />
    <glyph glyph-name="cedilla" unicode="&#xb8;" horiz-adv-x="663" 
d="M183 28h74q84 0 129 -40.5t45 -104t-57 -117t-143.5 -53.5t-123 32.5t-36.5 78.5t38 81t96 35q-28 -25 -28 -70q0 -28 14.5 -43t40.5 -15t51 25t25 65.5t-32 76.5t-93 49z" />
    <glyph glyph-name="onesuperior" unicode="&#xb9;" horiz-adv-x="377" 
d="M88 317q0 43 27 175q-47 0 -80.5 29.5t-36.5 91.5q54 7 104.5 29t88.5 40t67 18q72 0 72 -68q0 -28 -25.5 -144t-25.5 -176t21 -85q-53 -34 -108 -34q-104 0 -104 124z" />
    <glyph glyph-name="ordmasculine" unicode="&#xba;" horiz-adv-x="504" 
d="M31 477q0 113 70.5 183.5t180.5 70.5q31 0 54 -7q8 -22 10 -46q12 2 18 2q41 0 70 -33.5t29 -95.5q0 -119 -71.5 -190.5t-163 -71.5t-144.5 51.5t-53 136.5zM241 390q50 0 80 47.5t30 95.5q0 98 -64 98q-51 0 -82 -47.5t-31 -95.5q0 -98 67 -98z" />
    <glyph glyph-name="guillemotright" unicode="&#xbb;" horiz-adv-x="694" 
d="M99 335q9 225 59 225q35 0 85.5 -45.5t76.5 -90.5q4 -20 4 -58q0 -101 -28 -208.5t-68 -112.5q-89 -7 -124 -16.5t-58 -17.5q0 145 47 192q23 23 47 31t46.5 8t62.5 -7l7 44q-69 56 -157 56zM411 335q9 225 59 225q35 0 85.5 -45.5t76.5 -90.5q4 -20 4 -58
q0 -101 -28 -208.5t-68 -112.5q-89 -7 -124 -16.5t-58 -17.5q0 145 47 192q23 23 47 31t46.5 8t62.5 -7l7 44q-69 56 -157 56z" />
    <glyph glyph-name="onequarter" unicode="&#xbc;" horiz-adv-x="1150" 
d="M297 13q46 51 104 164q44 90 113.5 234.5t111 229t106.5 84.5q38 0 67 -26q-46 -45 -100 -153.5t-133.5 -287t-105 -231t-77 -52.5t-86.5 38zM156 317q0 43 27 175q-47 0 -80.5 29.5t-36.5 91.5q54 7 104.5 29t88.5 40t67 18q72 0 72 -68q0 -28 -25.5 -144t-25.5 -176
t21 -85q-53 -34 -108 -34q-104 0 -104 124zM644 139q0 32 46.5 141.5t46.5 157.5q0 19 -9 31q55 19 94 19q109 0 109 -76q0 -52 -32.5 -115t-85.5 -117h59q18 50 43 93q21 18 63 32.5t71 14.5t37 -5.5t8 -17.5t-16 -93.5t-16 -125.5t22 -63q-58 -34 -116.5 -34t-86 25
t-30.5 66q-38 -5 -72 -5q-135 0 -135 72z" />
    <glyph glyph-name="onehalf" unicode="&#xbd;" horiz-adv-x="1150" 
d="M283 13q46 51 104 164q44 90 113.5 234.5t111 229t106.5 84.5q38 0 67 -26q-46 -45 -100 -153.5t-133.5 -287t-105 -231t-77 -52.5t-86.5 38zM142 317q0 43 27 175q-47 0 -80.5 29.5t-36.5 91.5q54 7 104.5 29t88.5 40t67 18q72 0 72 -68q0 -28 -25.5 -144t-25.5 -176
t21 -85q-53 -34 -108 -34q-104 0 -104 124zM749 183l17 -1q98 83 98 135q0 34 -30 34q-39 0 -64 -76q-48 0 -72.5 21t-24.5 56q0 54 52.5 95t151 41t142.5 -41.5t44 -96.5q0 -95 -139 -205q28 -5 51 -5l95 37q15 -35 15 -76q0 -60 -35 -90t-93.5 -30t-161.5 35
q-38 -30 -84 -30t-69.5 25.5t-23.5 65.5t34 73t97 33z" />
    <glyph glyph-name="threequarters" unicode="&#xbe;" horiz-adv-x="1150" 
d="M318 13q46 51 104 164q44 90 113.5 234.5t111 229t106.5 84.5q38 0 67 -26q-46 -45 -100 -153.5t-133.5 -287t-105 -231t-77 -52.5t-86.5 38zM365 458q59 -40 59 -105.5t-70 -112.5t-180 -47q-138 0 -138 89q0 36 27 57t58.5 21t59 -15t40.5 -44q13 5 21.5 23t8.5 39
t-9 33q-27 -18 -55 -18t-42 14.5t-14 34.5q0 59 120 59q7 13 7 33.5t-14.5 34.5t-33.5 14t-35 -13.5t-20 -42.5q-43 0 -66.5 22t-23.5 52q0 45 47 79t137 34t134 -40.5t44 -89.5q0 -67 -62 -111zM665 139q0 32 46.5 141.5t46.5 157.5q0 19 -9 31q55 19 94 19q109 0 109 -76
q0 -52 -32.5 -115t-85.5 -117h59q18 50 43 93q21 18 63 32.5t71 14.5t37 -5.5t8 -17.5t-16 -93.5t-16 -125.5t22 -63q-58 -34 -116.5 -34t-86 25t-30.5 66q-38 -5 -72 -5q-135 0 -135 72z" />
    <glyph glyph-name="questiondown" unicode="&#xbf;" horiz-adv-x="602" 
d="M388 194q-59 -15 -95 -54t-36 -79q0 -86 77 -86q86 0 124 118q47 -5 72 -35t25 -72q0 -72 -64.5 -129t-190 -57t-191.5 66t-66 160q0 122 70.5 204t160.5 82q50 0 82 -33t32 -85zM446.5 569.5q30.5 -30.5 30.5 -78t-37 -85.5t-86 -38t-79.5 30.5t-30.5 78t37 85.5t86 38
t79.5 -30.5z" />
    <glyph glyph-name="Agrave" unicode="&#xc0;" horiz-adv-x="729" 
d="M635 578l-8 -238q0 -123 20.5 -207t76.5 -116q-69 -43 -140 -43q-125 0 -154 202h-204q-19 -65 -19 -99.5t8 -55.5q-74 -47 -132 -47q-89 0 -89 108q0 54 33.5 136t89 188t70.5 140q-11 54 -25 106q52 36 100.5 54.5t105 18.5t78.5 -25q57 25 94 25t55 -12t26 -35
q14 -40 14 -100zM434 555h-32q-90 -174 -134 -274h155q0 109 11 274zM559 753q-42 0 -121.5 33.5t-125.5 33.5q-9 0 -23 -2q-10 34 -10 73q0 95 56 95q37 0 84.5 -33.5t100 -73.5t95.5 -50q-3 -39 -18.5 -57.5t-37.5 -18.5z" />
    <glyph glyph-name="Aacute" unicode="&#xc1;" horiz-adv-x="729" 
d="M635 578l-8 -238q0 -123 20.5 -207t76.5 -116q-69 -43 -140 -43q-125 0 -154 202h-204q-19 -65 -19 -99.5t8 -55.5q-74 -47 -132 -47q-89 0 -89 108q0 54 33.5 136t89 188t70.5 140q-11 54 -25 106q52 36 100.5 54.5t105 18.5t78.5 -25q57 25 94 25t55 -12t26 -35
q14 -40 14 -100zM434 555h-32q-90 -174 -134 -274h155q0 109 11 274zM335 753q-22 0 -37.5 18.5t-18.5 57.5q43 10 95.5 50t100 73.5t84.5 33.5q56 0 56 -95q0 -39 -10 -73q-14 2 -23 2q-46 0 -125.5 -33.5t-121.5 -33.5z" />
    <glyph glyph-name="Acircumflex" unicode="&#xc2;" horiz-adv-x="729" 
d="M635 578l-8 -238q0 -123 20.5 -207t76.5 -116q-69 -43 -140 -43q-125 0 -154 202h-204q-19 -65 -19 -99.5t8 -55.5q-74 -47 -132 -47q-89 0 -89 108q0 54 33.5 136t89 188t70.5 140q-11 54 -25 106q52 36 100.5 54.5t105 18.5t78.5 -25q57 25 94 25t55 -12t26 -35
q14 -40 14 -100zM434 555h-32q-90 -174 -134 -274h155q0 109 11 274zM650 946l-10 -123q0 -31 14 -56q-31 -8 -78.5 -8t-68 21t-20.5 61q0 15 7 80h-26q-60 -74 -60 -150q-55 -12 -112 -12t-57 19q0 42 124 180q17 10 68 17.5t102 7.5q117 0 117 -37z" />
    <glyph glyph-name="Atilde" unicode="&#xc3;" horiz-adv-x="729" 
d="M635 578l-8 -238q0 -123 20.5 -207t76.5 -116q-69 -43 -140 -43q-125 0 -154 202h-204q-19 -65 -19 -99.5t8 -55.5q-74 -47 -132 -47q-89 0 -89 108q0 54 33.5 136t89 188t70.5 140q-11 54 -25 106q52 36 100.5 54.5t105 18.5t78.5 -25q57 25 94 25t55 -12t26 -35
q14 -40 14 -100zM434 555h-32q-90 -174 -134 -274h155q0 109 11 274zM622 805q-40 20 -83 20t-119.5 -29.5t-114.5 -29.5q-64 0 -64 63q0 46 27 105q40 -20 83 -20t119.5 29.5t114.5 29.5q64 0 64 -63q0 -46 -27 -105z" />
    <glyph glyph-name="Adieresis" unicode="&#xc4;" horiz-adv-x="729" 
d="M635 578l-8 -238q0 -123 20.5 -207t76.5 -116q-69 -43 -140 -43q-125 0 -154 202h-204q-19 -65 -19 -99.5t8 -55.5q-74 -47 -132 -47q-89 0 -89 108q0 54 33.5 136t89 188t70.5 140q-11 54 -25 106q52 36 100.5 54.5t105 18.5t78.5 -25q57 25 94 25t55 -12t26 -35
q14 -40 14 -100zM434 555h-32q-90 -174 -134 -274h155q0 109 11 274zM670 801q-37 -30 -83 -30t-72.5 20t-26.5 55q0 51 39.5 79.5t83 28.5t70 -20.5t26.5 -61.5t-37 -71zM369 801q-37 -30 -83 -30t-72.5 20t-26.5 55q0 51 39.5 79.5t83 28.5t70 -20.5t26.5 -61.5t-37 -71z
" />
    <glyph glyph-name="Aring" unicode="&#xc5;" horiz-adv-x="729" 
d="M635 578l-8 -238q0 -123 20.5 -207t76.5 -116q-69 -43 -140 -43q-125 0 -154 202h-204q-19 -65 -19 -99.5t8 -55.5q-74 -47 -132 -47q-89 0 -89 108q0 54 33.5 136t89 188t70.5 140q-11 54 -25 106q52 36 100.5 54.5t105 18.5t78.5 -25q57 25 94 25t55 -12t26 -35
q14 -40 14 -100zM434 555h-32q-90 -174 -134 -274h155q0 109 11 274zM394.5 815.5q13.5 -18.5 39 -18.5t47 30t21.5 68q0 57 -60 57q-6 0 -26 -2q-35 -39 -35 -89q0 -27 13.5 -45.5zM564.5 776.5q-51.5 -44.5 -128.5 -44.5t-117 34t-40 91q0 73 51.5 117.5t128.5 44.5
t117 -34t40 -91q0 -73 -51.5 -117.5z" />
    <glyph glyph-name="AE" unicode="&#xc6;" horiz-adv-x="967" 
d="M705 246h-71q-10 -60 -10 -110h162q76 11 153 39q6 -18 6 -49q0 -59 -34.5 -105t-95.5 -46q-32 0 -93.5 12.5t-91.5 15.5q-48 -29 -107 -29t-87 37.5t-28 117.5q0 37 11 117h-173q-39 -102 -39 -172q0 -32 8 -53q-74 -47 -132 -47q-89 0 -89 108q0 54 33.5 136t89 188
t70.5 140l-25 106q230 74 422 74q96 0 112 -56q114 3 283 51q8 -33 8 -65q0 -81 -53.5 -122t-137.5 -41q-56 0 -112 24q-5 -28 -29 -154h64q15 0 90 23q5 -17 5 -55.5t-31 -61.5t-78 -23zM473 555h-71q-63 -106 -105 -192h141z" />
    <glyph glyph-name="Ccedilla" unicode="&#xc7;" horiz-adv-x="683" 
d="M30 307q0 70 30 142.5t85 134.5t143.5 101.5t183 39.5t148 -35t53.5 -97t-40.5 -96.5t-92.5 -34.5t-93.5 22.5t-66.5 64.5q-54 -26 -93 -102t-39 -152.5t25 -121t71 -44.5t81.5 47t35.5 113q101 0 144.5 -16t43.5 -69q0 -76 -78 -146t-199 -81q34 -35 34 -88
q0 -69 -57 -122.5t-143.5 -53.5t-123 32.5t-36.5 78.5t38 81t96 35q-28 -25 -28 -70q0 -28 14.5 -43t40.5 -15t51 25t25 69t-38 79q-99 24 -157 105.5t-58 216.5z" />
    <glyph glyph-name="Egrave" unicode="&#xc8;" horiz-adv-x="619" 
d="M88 11.5q-28 37.5 -28 112t63 422.5l-53 107q113 73 206 73q59 0 73 -56q113 3 282 51q8 -33 8 -65q0 -81 -53.5 -122t-137.5 -41q-57 0 -112 24q-8 -45 -28 -147q37 -7 63 -7q41 8 90 23q5 -17 5 -55.5t-31 -61.5t-69.5 -23t-78.5 9q-11 -63 -11 -119h162q76 11 153 39
q6 -18 6 -49q0 -59 -34.5 -105t-95.5 -46q-32 0 -93.5 12.5t-91.5 15.5q-48 -29 -107 -29t-87 37.5zM520 753q-42 0 -121.5 33.5t-125.5 33.5q-9 0 -23 -2q-10 34 -10 73q0 95 56 95q37 0 84.5 -33.5t100 -73.5t95.5 -50q-3 -39 -18.5 -57.5t-37.5 -18.5z" />
    <glyph glyph-name="Eacute" unicode="&#xc9;" horiz-adv-x="619" 
d="M88 11.5q-28 37.5 -28 112t63 422.5l-53 107q113 73 206 73q59 0 73 -56q113 3 282 51q8 -33 8 -65q0 -81 -53.5 -122t-137.5 -41q-57 0 -112 24q-8 -45 -28 -147q37 -7 63 -7q41 8 90 23q5 -17 5 -55.5t-31 -61.5t-69.5 -23t-78.5 9q-11 -63 -11 -119h162q76 11 153 39
q6 -18 6 -49q0 -59 -34.5 -105t-95.5 -46q-32 0 -93.5 12.5t-91.5 15.5q-48 -29 -107 -29t-87 37.5zM311 753q-22 0 -37.5 18.5t-18.5 57.5q43 10 95.5 50t100 73.5t84.5 33.5q56 0 56 -95q0 -39 -10 -73q-14 2 -23 2q-46 0 -125.5 -33.5t-121.5 -33.5z" />
    <glyph glyph-name="Ecircumflex" unicode="&#xca;" horiz-adv-x="619" 
d="M88 11.5q-28 37.5 -28 112t63 422.5l-53 107q113 73 206 73q59 0 73 -56q113 3 282 51q8 -33 8 -65q0 -81 -53.5 -122t-137.5 -41q-57 0 -112 24q-8 -45 -28 -147q37 -7 63 -7q41 8 90 23q5 -17 5 -55.5t-31 -61.5t-69.5 -23t-78.5 9q-11 -63 -11 -119h162q76 11 153 39
q6 -18 6 -49q0 -59 -34.5 -105t-95.5 -46q-32 0 -93.5 12.5t-91.5 15.5q-48 -29 -107 -29t-87 37.5zM584 946l-10 -123q0 -31 14 -56q-31 -8 -78.5 -8t-68 21t-20.5 61q0 15 7 80h-26q-60 -74 -60 -150q-55 -12 -112 -12t-57 19q0 42 124 180q17 10 68 17.5t102 7.5
q117 0 117 -37z" />
    <glyph glyph-name="Edieresis" unicode="&#xcb;" horiz-adv-x="619" 
d="M88 11.5q-28 37.5 -28 112t63 422.5l-53 107q113 73 206 73q59 0 73 -56q113 3 282 51q8 -33 8 -65q0 -81 -53.5 -122t-137.5 -41q-57 0 -112 24q-8 -45 -28 -147q37 -7 63 -7q41 8 90 23q5 -17 5 -55.5t-31 -61.5t-69.5 -23t-78.5 9q-11 -63 -11 -119h162q76 11 153 39
q6 -18 6 -49q0 -59 -34.5 -105t-95.5 -46q-32 0 -93.5 12.5t-91.5 15.5q-48 -29 -107 -29t-87 37.5zM631 801q-37 -30 -83 -30t-72.5 20t-26.5 55q0 51 39.5 79.5t83 28.5t70 -20.5t26.5 -61.5t-37 -71zM330 801q-37 -30 -83 -30t-72.5 20t-26.5 55q0 51 39.5 79.5t83 28.5
t70 -20.5t26.5 -61.5t-37 -71z" />
    <glyph glyph-name="Igrave" unicode="&#xcc;" horiz-adv-x="388" 
d="M93 11.5q-28 37.5 -28 112t63 422.5l-53 107q113 73 206 73q77 0 77 -94q0 -31 -38.5 -230.5t-38.5 -237.5q0 -97 30 -145q-60 -45 -125 -45t-93 37.5zM367 753q-42 0 -121.5 33.5t-125.5 33.5q-9 0 -23 -2q-10 34 -10 73q0 95 56 95q37 0 84.5 -33.5t100 -73.5t95.5 -50
q-3 -39 -18.5 -57.5t-37.5 -18.5z" />
    <glyph glyph-name="Iacute" unicode="&#xcd;" horiz-adv-x="388" 
d="M93 11.5q-28 37.5 -28 112t63 422.5l-53 107q113 73 206 73q77 0 77 -94q0 -31 -38.5 -230.5t-38.5 -237.5q0 -97 30 -145q-60 -45 -125 -45t-93 37.5zM131 753q-22 0 -37.5 18.5t-18.5 57.5q43 10 95.5 50t100 73.5t84.5 33.5q56 0 56 -95q0 -39 -10 -73q-14 2 -23 2
q-46 0 -125.5 -33.5t-121.5 -33.5z" />
    <glyph glyph-name="Icircumflex" unicode="&#xce;" horiz-adv-x="388" 
d="M93 11.5q-28 37.5 -28 112t63 422.5l-53 107q113 73 206 73q77 0 77 -94q0 -31 -38.5 -230.5t-38.5 -237.5q0 -97 30 -145q-60 -45 -125 -45t-93 37.5zM459 946l-10 -123q0 -31 14 -56q-31 -8 -78.5 -8t-68 21t-20.5 61q0 15 7 80h-26q-60 -74 -60 -150q-55 -12 -112 -12
t-57 19q0 42 124 180q17 10 68 17.5t102 7.5q117 0 117 -37z" />
    <glyph glyph-name="Idieresis" unicode="&#xcf;" horiz-adv-x="388" 
d="M93 11.5q-28 37.5 -28 112t63 422.5l-53 107q113 73 206 73q77 0 77 -94q0 -31 -38.5 -230.5t-38.5 -237.5q0 -97 30 -145q-60 -45 -125 -45t-93 37.5zM497 801q-37 -30 -83 -30t-72.5 20t-26.5 55q0 51 39.5 79.5t83 28.5t70 -20.5t26.5 -61.5t-37 -71zM196 801
q-37 -30 -83 -30t-72.5 20t-26.5 55q0 51 39.5 79.5t83 28.5t70 -20.5t26.5 -61.5t-37 -71z" />
    <glyph glyph-name="Eth" unicode="&#xd0;" horiz-adv-x="776" 
d="M60 163q0 24 5 71q-87 0 -87 64q0 48 41 95q25 -10 71 -10l30 163l-53 107q127 72 216 72q44 0 66 -30q83 29 153 29q130 0 202 -84.5t72 -210.5q0 -166 -122 -305q-59 -67 -155.5 -108t-206.5 -41t-171 48.5t-61 139.5zM272 125q21 -4 47 -4q109 0 170 78.5t61 193.5
q0 93 -42 148t-121 55q-12 0 -40 -4q-2 -11 -6.5 -40t-9 -57t-8.5 -55q39 13 70 13q81 0 81 -64q0 -48 -41 -95q-25 10 -60 10t-74 -7q-19 -113 -27 -172z" />
    <glyph glyph-name="Ntilde" unicode="&#xd1;" horiz-adv-x="870" 
d="M578 157l24 16q-65 125 -65 274q0 116 57.5 197t162.5 81q55 0 93 -19q-10 -56 -36 -195q-56 -299 -56 -343q0 -95 32 -142q-44 -29 -81 -40t-95.5 -11t-106 25t-78 66.5t-51.5 102.5q-37 107 -45 272h-16q-46 -208 -46 -291t30 -131q-60 -45 -125 -45t-93 37.5t-28 112
t63 422.5l-53 107q112 72 200 72t133 -30.5t63 -89.5t26.5 -124.5t30 -157.5t60.5 -166zM707 805q-40 20 -83 20t-119.5 -29.5t-114.5 -29.5q-64 0 -64 63q0 46 27 105q40 -20 83 -20t119.5 29.5t114.5 29.5q64 0 64 -63q0 -46 -27 -105z" />
    <glyph glyph-name="Ograve" unicode="&#xd2;" horiz-adv-x="774" 
d="M25 306q0 190 106 304.5t290 114.5q59 0 84.5 -23.5t25.5 -72.5q0 -7 -2 -27q37 30 82 30q61 0 104.5 -54.5t43.5 -157.5t-33 -189t-87.5 -141t-124 -85t-143.5 -30q-160 0 -253 91.5t-93 239.5zM524 259q-64 78 -64 168t40 145q-18 3 -36 3q-71 0 -123 -43
q-98 -80 -98 -222q0 -81 36 -135t100 -54q49 0 89.5 38.5t55.5 99.5zM581 753q-42 0 -121.5 33.5t-125.5 33.5q-9 0 -23 -2q-10 34 -10 73q0 95 56 95q37 0 84.5 -33.5t100 -73.5t95.5 -50q-3 -39 -18.5 -57.5t-37.5 -18.5z" />
    <glyph glyph-name="Oacute" unicode="&#xd3;" horiz-adv-x="774" 
d="M25 306q0 190 106 304.5t290 114.5q59 0 84.5 -23.5t25.5 -72.5q0 -7 -2 -27q37 30 82 30q61 0 104.5 -54.5t43.5 -157.5t-33 -189t-87.5 -141t-124 -85t-143.5 -30q-160 0 -253 91.5t-93 239.5zM524 259q-64 78 -64 168t40 145q-18 3 -36 3q-71 0 -123 -43
q-98 -80 -98 -222q0 -81 36 -135t100 -54q49 0 89.5 38.5t55.5 99.5zM366 753q-22 0 -37.5 18.5t-18.5 57.5q43 10 95.5 50t100 73.5t84.5 33.5q56 0 56 -95q0 -39 -10 -73q-14 2 -23 2q-46 0 -125.5 -33.5t-121.5 -33.5z" />
    <glyph glyph-name="Ocircumflex" unicode="&#xd4;" horiz-adv-x="774" 
d="M25 306q0 190 106 304.5t290 114.5q59 0 84.5 -23.5t25.5 -72.5q0 -7 -2 -27q37 30 82 30q61 0 104.5 -54.5t43.5 -157.5t-33 -189t-87.5 -141t-124 -85t-143.5 -30q-160 0 -253 91.5t-93 239.5zM524 259q-64 78 -64 168t40 145q-18 3 -36 3q-71 0 -123 -43
q-98 -80 -98 -222q0 -81 36 -135t100 -54q49 0 89.5 38.5t55.5 99.5zM642 946l-10 -123q0 -31 14 -56q-31 -8 -78.5 -8t-68 21t-20.5 61q0 15 7 80h-26q-60 -74 -60 -150q-55 -12 -112 -12t-57 19q0 42 124 180q17 10 68 17.5t102 7.5q117 0 117 -37z" />
    <glyph glyph-name="Otilde" unicode="&#xd5;" horiz-adv-x="774" 
d="M25 306q0 190 106 304.5t290 114.5q59 0 84.5 -23.5t25.5 -72.5q0 -7 -2 -27q37 30 82 30q61 0 104.5 -54.5t43.5 -157.5t-33 -189t-87.5 -141t-124 -85t-143.5 -30q-160 0 -253 91.5t-93 239.5zM524 259q-64 78 -64 168t40 145q-18 3 -36 3q-71 0 -123 -43
q-98 -80 -98 -222q0 -81 36 -135t100 -54q49 0 89.5 38.5t55.5 99.5zM653 805q-40 20 -83 20t-119.5 -29.5t-114.5 -29.5q-64 0 -64 63q0 46 27 105q40 -20 83 -20t119.5 29.5t114.5 29.5q64 0 64 -63q0 -46 -27 -105z" />
    <glyph glyph-name="Odieresis" unicode="&#xd6;" horiz-adv-x="774" 
d="M25 306q0 190 106 304.5t290 114.5q59 0 84.5 -23.5t25.5 -72.5q0 -7 -2 -27q37 30 82 30q61 0 104.5 -54.5t43.5 -157.5t-33 -189t-87.5 -141t-124 -85t-143.5 -30q-160 0 -253 91.5t-93 239.5zM524 259q-64 78 -64 168t40 145q-18 3 -36 3q-71 0 -123 -43
q-98 -80 -98 -222q0 -81 36 -135t100 -54q49 0 89.5 38.5t55.5 99.5zM702 801q-37 -30 -83 -30t-72.5 20t-26.5 55q0 51 39.5 79.5t83 28.5t70 -20.5t26.5 -61.5t-37 -71zM401 801q-37 -30 -83 -30t-72.5 20t-26.5 55q0 51 39.5 79.5t83 28.5t70 -20.5t26.5 -61.5t-37 -71z
" />
    <glyph glyph-name="multiply" unicode="&#xd7;" 
d="M189 106q-31 0 -57 42t-30 87q64 15 167 129q-53 56 -81.5 97t-28.5 78t32.5 66.5t86.5 37.5q8 -77 90 -165q59 66 106.5 102.5t85 36.5t60.5 -26t29 -70q-70 -12 -179 -141q59 -54 91.5 -95.5t32.5 -77t-46 -65t-96 -35.5q-9 61 -80 146q-117 -147 -183 -147z" />
    <glyph glyph-name="Oslash" unicode="&#xd8;" horiz-adv-x="774" 
d="M381 -40q-33 -119 -122 -119q-54 0 -99 36q35 34 66 123q-96 35 -148.5 115.5t-52.5 190.5q0 187 103 300.5t283 116.5l15 61q17 71 87.5 71t127.5 -52q-42 -61 -82 -182q27 11 52 11q61 0 104.5 -54.5t43.5 -156t-31.5 -186t-83.5 -139.5q-109 -114 -259 -120z
M272 448.5q-37 -77.5 -37 -161t38 -128.5q49 177 99 399q-63 -32 -100 -109.5zM531.5 244.5q37.5 78.5 37.5 161.5t-35 128q-30 -104 -61 -227t-44 -171q65 30 102.5 108.5z" />
    <glyph glyph-name="Ugrave" unicode="&#xd9;" horiz-adv-x="827" 
d="M745 19q-60 -45 -118 -45t-92 30t-34 90q0 17 1 26l-10 3q-99 -148 -266 -148q-161 0 -161 170q0 57 16 151.5t27.5 160t15.5 89.5l-53 107q63 36 109.5 54t93.5 18t63.5 -24.5t16.5 -58.5t-33.5 -218t-33.5 -215q0 -79 54 -79q40 0 91 51t83 140q-21 61 -21 126
q0 116 57.5 197t162.5 81q58 0 93 -19q-9 -54 -35 -196q-57 -301 -57 -346q0 -97 30 -145zM614 753q-42 0 -121.5 33.5t-125.5 33.5q-9 0 -23 -2q-10 34 -10 73q0 95 56 95q37 0 84.5 -33.5t100 -73.5t95.5 -50q-3 -39 -18.5 -57.5t-37.5 -18.5z" />
    <glyph glyph-name="Uacute" unicode="&#xda;" horiz-adv-x="827" 
d="M745 19q-60 -45 -118 -45t-92 30t-34 90q0 17 1 26l-10 3q-99 -148 -266 -148q-161 0 -161 170q0 57 16 151.5t27.5 160t15.5 89.5l-53 107q63 36 109.5 54t93.5 18t63.5 -24.5t16.5 -58.5t-33.5 -218t-33.5 -215q0 -79 54 -79q40 0 91 51t83 140q-21 61 -21 126
q0 116 57.5 197t162.5 81q58 0 93 -19q-9 -54 -35 -196q-57 -301 -57 -346q0 -97 30 -145zM415 753q-22 0 -37.5 18.5t-18.5 57.5q43 10 95.5 50t100 73.5t84.5 33.5q56 0 56 -95q0 -39 -10 -73q-14 2 -23 2q-46 0 -125.5 -33.5t-121.5 -33.5z" />
    <glyph glyph-name="Ucircumflex" unicode="&#xdb;" horiz-adv-x="827" 
d="M745 19q-60 -45 -118 -45t-92 30t-34 90q0 17 1 26l-10 3q-99 -148 -266 -148q-161 0 -161 170q0 57 16 151.5t27.5 160t15.5 89.5l-53 107q63 36 109.5 54t93.5 18t63.5 -24.5t16.5 -58.5t-33.5 -218t-33.5 -215q0 -79 54 -79q40 0 91 51t83 140q-21 61 -21 126
q0 116 57.5 197t162.5 81q58 0 93 -19q-9 -54 -35 -196q-57 -301 -57 -346q0 -97 30 -145zM693 946l-10 -123q0 -31 14 -56q-31 -8 -78.5 -8t-68 21t-20.5 61q0 15 7 80h-26q-60 -74 -60 -150q-55 -12 -112 -12t-57 19q0 42 124 180q17 10 68 17.5t102 7.5q117 0 117 -37z
" />
    <glyph glyph-name="Udieresis" unicode="&#xdc;" horiz-adv-x="827" 
d="M745 19q-60 -45 -118 -45t-92 30t-34 90q0 17 1 26l-10 3q-99 -148 -266 -148q-161 0 -161 170q0 57 16 151.5t27.5 160t15.5 89.5l-53 107q63 36 109.5 54t93.5 18t63.5 -24.5t16.5 -58.5t-33.5 -218t-33.5 -215q0 -79 54 -79q40 0 91 51t83 140q-21 61 -21 126
q0 116 57.5 197t162.5 81q58 0 93 -19q-9 -54 -35 -196q-57 -301 -57 -346q0 -97 30 -145zM742 801q-37 -30 -83 -30t-72.5 20t-26.5 55q0 51 39.5 79.5t83 28.5t70 -20.5t26.5 -61.5t-37 -71zM441 801q-37 -30 -83 -30t-72.5 20t-26.5 55q0 51 39.5 79.5t83 28.5t70 -20.5
t26.5 -61.5t-37 -71z" />
    <glyph glyph-name="Yacute" unicode="&#xdd;" horiz-adv-x="672" 
d="M122 180q-1 20 -4 84t-5.5 97.5t-11 91.5t-21.5 93q-32 92 -90 132q78 47 126.5 47t80.5 -16t52.5 -38.5t36.5 -62.5t24 -73t13.5 -85t7 -84t3 -84.5t2.5 -72.5h14q39 93 71.5 213t32.5 191q0 35 -15 65q75 47 133 47q110 0 110 -116q0 -59 -45 -198t-106 -269
q-79 -169 -162.5 -244t-214.5 -75q-58 0 -105 23q-57 27 -57 91t49 132q22 -32 59 -49.5t81.5 -17.5t84 24.5t56.5 70.5q-53 -13 -97 -13q-95 0 -103 96zM286 753q-22 0 -37.5 18.5t-18.5 57.5q43 10 95.5 50t100 73.5t84.5 33.5q56 0 56 -95q0 -39 -10 -73q-14 2 -23 2
q-46 0 -125.5 -33.5t-121.5 -33.5z" />
    <glyph glyph-name="Thorn" unicode="&#xde;" horiz-adv-x="699" 
d="M306 235q80 0 124.5 47.5t44.5 101.5t-26 86t-74 32q-20 0 -46 -7q-20 -136 -46 -259q7 -1 23 -1zM88 11.5q-28 37.5 -28 112t63 422.5l-53 107q113 73 206 73q77 0 77 -94q0 -12 -3 -32q74 29 146 29q94 0 148.5 -65.5t54.5 -158.5q0 -112 -81 -200q-39 -43 -105 -69
t-130.5 -26t-105.5 10q6 -67 29 -101q-60 -45 -125 -45t-93 37.5z" />
    <glyph glyph-name="germandbls" unicode="&#xdf;" horiz-adv-x="725" 
d="M421 355.5q-17 17.5 -17 43t17 43t36.5 17.5t32.5 -8q32 44 32 87q0 87 -65 87q-49 0 -76.5 -48t-43.5 -135q-1 -5 -12 -59.5t-21 -109t-22 -121.5q-25 -149 -25 -217.5t31 -95.5q-59 -49 -121 -49t-89.5 41t-27.5 98.5t62 391.5q-56 -7 -108 -21q-4 19 -4 38q0 62 36 84
t99 25l18 98q42 230 298 230q98 0 158.5 -58.5t60.5 -136.5q0 -99 -91 -159q136 -58 136 -220q0 -89 -70.5 -162.5t-171.5 -73.5q-72 0 -109.5 37.5t-37.5 97.5t49 101q25 -16 72 -16t70.5 23.5t23.5 64.5t-38 81q-18 -16 -41.5 -16t-40.5 17.5z" />
    <glyph glyph-name="agrave" unicode="&#xe0;" horiz-adv-x="736" 
d="M427 123l-10 5q-27 -72 -77.5 -112.5t-112.5 -40.5q-85 0 -136 64t-51 171q0 166 111.5 278t277.5 112q43 0 79 -8q6 -28 7 -49q50 32 103 32q73 0 73 -79q0 -28 -31.5 -169t-31.5 -209t31 -94q-56 -49 -116.5 -49t-88 36t-27.5 112zM228 259q0 -49 20.5 -75.5
t58.5 -26.5t75 28t62 77q9 101 39 239q-101 0 -178 -73t-77 -169zM571 653q-42 0 -121.5 33.5t-125.5 33.5q-9 0 -23 -2q-10 34 -10 73q0 95 56 95q37 0 84.5 -33.5t100 -73.5t95.5 -50q-3 -39 -18.5 -57.5t-37.5 -18.5z" />
    <glyph glyph-name="aacute" unicode="&#xe1;" horiz-adv-x="736" 
d="M427 123l-10 5q-27 -72 -77.5 -112.5t-112.5 -40.5q-85 0 -136 64t-51 171q0 166 111.5 278t277.5 112q43 0 79 -8q6 -28 7 -49q50 32 103 32q73 0 73 -79q0 -28 -31.5 -169t-31.5 -209t31 -94q-56 -49 -116.5 -49t-88 36t-27.5 112zM228 259q0 -49 20.5 -75.5
t58.5 -26.5t75 28t62 77q9 101 39 239q-101 0 -178 -73t-77 -169zM354 653q-22 0 -37.5 18.5t-18.5 57.5q43 10 95.5 50t100 73.5t84.5 33.5q56 0 56 -95q0 -39 -10 -73q-14 2 -23 2q-46 0 -125.5 -33.5t-121.5 -33.5z" />
    <glyph glyph-name="acircumflex" unicode="&#xe2;" horiz-adv-x="736" 
d="M427 123l-10 5q-27 -72 -77.5 -112.5t-112.5 -40.5q-85 0 -136 64t-51 171q0 166 111.5 278t277.5 112q43 0 79 -8q6 -28 7 -49q50 32 103 32q73 0 73 -79q0 -28 -31.5 -169t-31.5 -209t31 -94q-56 -49 -116.5 -49t-88 36t-27.5 112zM228 259q0 -49 20.5 -75.5
t58.5 -26.5t75 28t62 77q9 101 39 239q-101 0 -178 -73t-77 -169zM623 831l-10 -123q0 -32 14 -56q-31 -8 -78.5 -8t-68 21t-20.5 61q0 15 7 80h-26q-60 -74 -60 -150q-55 -12 -112 -12t-57 19q0 42 124 180q17 10 68 17.5t102 7.5q117 0 117 -37z" />
    <glyph glyph-name="atilde" unicode="&#xe3;" horiz-adv-x="736" 
d="M427 123l-10 5q-27 -72 -77.5 -112.5t-112.5 -40.5q-85 0 -136 64t-51 171q0 166 111.5 278t277.5 112q43 0 79 -8q6 -28 7 -49q50 32 103 32q73 0 73 -79q0 -28 -31.5 -169t-31.5 -209t31 -94q-56 -49 -116.5 -49t-88 36t-27.5 112zM228 259q0 -49 20.5 -75.5
t58.5 -26.5t75 28t62 77q9 101 39 239q-101 0 -178 -73t-77 -169zM644 705q-40 20 -83 20t-119.5 -29.5t-114.5 -29.5q-64 0 -64 63q0 46 27 105q40 -20 83 -20t119.5 29.5t114.5 29.5q64 0 64 -63q0 -46 -27 -105z" />
    <glyph glyph-name="adieresis" unicode="&#xe4;" horiz-adv-x="736" 
d="M427 123l-10 5q-27 -72 -77.5 -112.5t-112.5 -40.5q-85 0 -136 64t-51 171q0 166 111.5 278t277.5 112q43 0 79 -8q6 -28 7 -49q50 32 103 32q73 0 73 -79q0 -28 -31.5 -169t-31.5 -209t31 -94q-56 -49 -116.5 -49t-88 36t-27.5 112zM228 259q0 -49 20.5 -75.5
t58.5 -26.5t75 28t62 77q9 101 39 239q-101 0 -178 -73t-77 -169zM647 696q-37 -30 -83 -30t-72.5 20t-26.5 55q0 51 39.5 79.5t83 28.5t70 -20.5t26.5 -61.5t-37 -71zM346 696q-37 -30 -83 -30t-72.5 20t-26.5 55q0 51 39.5 79.5t83 28.5t70 -20.5t26.5 -61.5t-37 -71z" />
    <glyph glyph-name="aring" unicode="&#xe5;" horiz-adv-x="788" 
d="M448.5 715.5q13.5 -18.5 39 -18.5t47 30t21.5 68q0 57 -60 57q-6 0 -26 -2q-35 -39 -35 -89q0 -27 13.5 -45.5zM457 123l-10 5q-27 -72 -77.5 -112.5t-112.5 -40.5q-85 0 -136 64t-51 171q0 166 111.5 278t277.5 112q43 0 79 -8q6 -28 7 -49q50 32 103 32q73 0 73 -79
q0 -28 -31.5 -169t-31.5 -209t31 -94q-56 -49 -116.5 -49t-88 36t-27.5 112zM258 259q0 -49 20.5 -75.5t58.5 -26.5t75 28t62 77q9 101 39 239q-101 0 -178 -73t-77 -169zM620.5 676.5q-51.5 -44.5 -128.5 -44.5t-117 34t-40 91q0 73 51.5 117.5t128.5 44.5t117 -34t40 -91
q0 -73 -51.5 -117.5z" />
    <glyph glyph-name="ae" unicode="&#xe6;" horiz-adv-x="989" 
d="M517 520q106 80 248 80q93 0 141 -41.5t48 -109.5q0 -93 -90.5 -154.5t-279.5 -62.5q3 -64 29 -100.5t65 -36.5t67.5 26t28.5 85q146 0 146 -69q0 -59 -72 -110.5t-185 -51.5q-185 0 -241 138h-11q-29 -65 -77 -101.5t-107 -36.5q-85 0 -136 64t-51 171q0 166 111.5 278
t277.5 112q43 0 79 -8q6 -32 9 -72zM228 259q0 -49 17 -75.5t49.5 -26.5t63.5 28t52 77q11 90 39 218q-91 0 -156 -63t-65 -158zM748 483q-51 0 -93.5 -51t-61.5 -120q100 8 150.5 46t50.5 79q0 20 -12.5 33t-33.5 13z" />
    <glyph glyph-name="ccedilla" unicode="&#xe7;" horiz-adv-x="638" 
d="M45 238q0 160 110 261t277 101q86 0 136 -32.5t50 -81.5t-33.5 -75t-73 -26t-72 21t-50.5 61q-63 -26 -99.5 -92t-36.5 -132t26 -107t68 -41t68.5 28t26.5 83q146 0 146 -69q0 -53 -62.5 -102t-160.5 -58q34 -37 34 -88q0 -69 -57 -122.5t-143.5 -53.5t-123 32.5
t-36.5 78.5t38 81t96 35q-28 -25 -28 -70q0 -28 14.5 -43t40.5 -15t51 25t25 69t-40 80q-90 23 -140.5 90t-50.5 162z" />
    <glyph glyph-name="egrave" unicode="&#xe8;" horiz-adv-x="657" 
d="M331 -25q-137 0 -211.5 71t-74.5 192q0 161 110.5 261.5t277.5 100.5q93 0 141 -41.5t48 -109.5q0 -93 -90.5 -154.5t-279.5 -62.5q3 -64 29 -100.5t65 -36.5t67.5 26t28.5 85q146 0 146 -69q0 -59 -72 -110.5t-185 -51.5zM416 483q-51 0 -93.5 -51t-61.5 -120
q100 8 150.5 45.5t50.5 79.5q0 20 -12.5 33t-33.5 13zM518 653q-42 0 -121.5 33.5t-125.5 33.5q-9 0 -23 -2q-10 34 -10 73q0 95 56 95q37 0 84.5 -33.5t100 -73.5t95.5 -50q-3 -39 -18.5 -57.5t-37.5 -18.5z" />
    <glyph glyph-name="eacute" unicode="&#xe9;" horiz-adv-x="657" 
d="M331 -25q-137 0 -211.5 71t-74.5 192q0 161 110.5 261.5t277.5 100.5q93 0 141 -41.5t48 -109.5q0 -93 -90.5 -154.5t-279.5 -62.5q3 -64 29 -100.5t65 -36.5t67.5 26t28.5 85q146 0 146 -69q0 -59 -72 -110.5t-185 -51.5zM416 483q-51 0 -93.5 -51t-61.5 -120
q100 8 150.5 45.5t50.5 79.5q0 20 -12.5 33t-33.5 13zM284 653q-22 0 -37.5 18.5t-18.5 57.5q43 10 95.5 50t100 73.5t84.5 33.5q56 0 56 -95q0 -39 -10 -73q-14 2 -23 2q-46 0 -125.5 -33.5t-121.5 -33.5z" />
    <glyph glyph-name="ecircumflex" unicode="&#xea;" horiz-adv-x="657" 
d="M331 -25q-137 0 -211.5 71t-74.5 192q0 161 110.5 261.5t277.5 100.5q93 0 141 -41.5t48 -109.5q0 -93 -90.5 -154.5t-279.5 -62.5q3 -64 29 -100.5t65 -36.5t67.5 26t28.5 85q146 0 146 -69q0 -59 -72 -110.5t-185 -51.5zM416 483q-51 0 -93.5 -51t-61.5 -120
q100 8 150.5 45.5t50.5 79.5q0 20 -12.5 33t-33.5 13zM597 831l-10 -123q0 -32 14 -56q-31 -8 -78.5 -8t-68 21t-20.5 61q0 15 7 80h-26q-60 -74 -60 -150q-55 -12 -112 -12t-57 19q0 42 124 180q17 10 68 17.5t102 7.5q117 0 117 -37z" />
    <glyph glyph-name="edieresis" unicode="&#xeb;" horiz-adv-x="657" 
d="M331 -25q-137 0 -211.5 71t-74.5 192q0 161 110.5 261.5t277.5 100.5q93 0 141 -41.5t48 -109.5q0 -93 -90.5 -154.5t-279.5 -62.5q3 -64 29 -100.5t65 -36.5t67.5 26t28.5 85q146 0 146 -69q0 -59 -72 -110.5t-185 -51.5zM416 483q-51 0 -93.5 -51t-61.5 -120
q100 8 150.5 45.5t50.5 79.5q0 20 -12.5 33t-33.5 13zM639 696q-37 -30 -83 -30t-72.5 20t-26.5 55q0 51 39.5 79.5t83 28.5t70 -20.5t26.5 -61.5t-37 -71zM338 696q-37 -30 -83 -30t-72.5 20t-26.5 55q0 51 39.5 79.5t83 28.5t70 -20.5t26.5 -61.5t-37 -71z" />
    <glyph glyph-name="igrave" unicode="&#xec;" horiz-adv-x="388" 
d="M93 6q-28 31 -28 94.5t64 340.5l-56 84q125 75 197 75q41 0 58 -17.5t17 -56.5q0 -15 -37 -176t-37 -230t31 -96q-56 -49 -118.5 -49t-90.5 31zM348 653q-42 0 -121.5 33.5t-125.5 33.5q-9 0 -23 -2q-10 34 -10 73q0 95 56 95q37 0 84.5 -33.5t100 -73.5t95.5 -50
q-3 -39 -18.5 -57.5t-37.5 -18.5z" />
    <glyph glyph-name="iacute" unicode="&#xed;" horiz-adv-x="388" 
d="M93 6q-28 31 -28 94.5t64 340.5l-56 84q125 75 197 75q41 0 58 -17.5t17 -56.5q0 -15 -37 -176t-37 -230t31 -96q-56 -49 -118.5 -49t-90.5 31zM127 653q-22 0 -37.5 18.5t-18.5 57.5q43 10 95.5 50t100 73.5t84.5 33.5q56 0 56 -95q0 -39 -10 -73q-14 2 -23 2
q-46 0 -125.5 -33.5t-121.5 -33.5z" />
    <glyph glyph-name="icircumflex" unicode="&#xee;" horiz-adv-x="388" 
d="M93 6q-28 31 -28 94.5t64 340.5l-56 84q125 75 197 75q41 0 58 -17.5t17 -56.5q0 -15 -37 -176t-37 -230t31 -96q-56 -49 -118.5 -49t-90.5 31zM429 831l-10 -123q0 -32 14 -56q-31 -8 -78.5 -8t-68 21t-20.5 61q0 15 7 80h-26q-60 -74 -60 -150q-55 -12 -112 -12t-57 19
q0 42 124 180q17 10 68 17.5t102 7.5q117 0 117 -37z" />
    <glyph glyph-name="idieresis" unicode="&#xef;" horiz-adv-x="388" 
d="M93 6q-28 31 -28 94.5t64 340.5l-56 84q125 75 197 75q41 0 58 -17.5t17 -56.5q0 -15 -37 -176t-37 -230t31 -96q-56 -49 -118.5 -49t-90.5 31zM484 696q-37 -30 -83 -30t-72.5 20t-26.5 55q0 51 39.5 79.5t83 28.5t70 -20.5t26.5 -61.5t-37 -71zM183 696
q-37 -30 -83 -30t-72.5 20t-26.5 55q0 51 39.5 79.5t83 28.5t70 -20.5t26.5 -61.5t-37 -71z" />
    <glyph glyph-name="eth" unicode="&#xf0;" horiz-adv-x="674" 
d="M95 47.5q-65 72.5 -65 177.5q0 78 35 148.5t109 118.5t172 48q28 0 65 -7q-22 50 -63.5 88t-114.5 82q29 27 73.5 46.5t86.5 19.5q76 0 127 -83q62 41 96 41q68 0 68 -65q0 -33 -21 -74q-13 2 -36 2t-60 -13q37 -122 37 -266q0 -80 -28.5 -146t-75.5 -107
q-95 -83 -217.5 -83t-187.5 72.5zM225 220q0 -54 23 -81.5t58 -27.5q52 0 95 52.5t43 140.5q0 52 -22.5 79t-56.5 27q-52 0 -96 -52.5t-44 -137.5z" />
    <glyph glyph-name="ntilde" unicode="&#xf1;" horiz-adv-x="799" 
d="M99 6q-28 31 -28 82t20.5 166t42.5 210l-52 80q99 56 183 56t84 -76q0 -50 -23 -102l10 -5q107 183 272 183q121 0 121 -121q0 -52 -29.5 -176t-29.5 -187t21 -92q-53 -49 -112 -49q-115 0 -115 124q0 46 30 156t30 143q0 45 -34 45q-28 0 -64 -24.5t-69.5 -66
t-56.5 -105t-23 -129t21 -94.5q-53 -49 -112 -49t-87 31zM627 705q-40 20 -83 20t-119.5 -29.5t-114.5 -29.5q-64 0 -64 63q0 46 27 105q40 -20 83 -20t119.5 29.5t114.5 29.5q64 0 64 -63q0 -46 -27 -105z" />
    <glyph glyph-name="ograve" unicode="&#xf2;" horiz-adv-x="715" 
d="M539 653q-42 0 -121.5 33.5t-125.5 33.5q-9 0 -23 -2q-10 34 -10 73q0 95 56 95q37 0 84.5 -33.5t100 -73.5t95.5 -50q-3 -39 -18.5 -57.5t-37.5 -18.5zM538 524q56 0 96.5 -45t40.5 -130.5t-30 -158t-79 -118.5t-111 -71.5t-127 -25.5q-131 0 -207 72t-76 191
q0 161 103.5 261.5t263.5 100.5q36 0 72 -8q11 -33 12 -75q21 7 42 7zM415 385q0 28 13.5 63t43.5 56q-132 -28 -182 -107q-43 -68 -43 -140t29.5 -115.5t75.5 -43.5q102 0 144 133q-81 50 -81 154z" />
    <glyph glyph-name="oacute" unicode="&#xf3;" horiz-adv-x="715" 
d="M316 653q-22 0 -37.5 18.5t-18.5 57.5q43 10 95.5 50t100 73.5t84.5 33.5q56 0 56 -95q0 -39 -10 -73q-14 2 -23 2q-46 0 -125.5 -33.5t-121.5 -33.5zM538 524q56 0 96.5 -45t40.5 -130.5t-30 -158t-79 -118.5t-111 -71.5t-127 -25.5q-131 0 -207 72t-76 191
q0 161 103.5 261.5t263.5 100.5q36 0 72 -8q11 -33 12 -75q21 7 42 7zM415 385q0 28 13.5 63t43.5 56q-132 -28 -182 -107q-43 -68 -43 -140t29.5 -115.5t75.5 -43.5q102 0 144 133q-81 50 -81 154z" />
    <glyph glyph-name="ocircumflex" unicode="&#xf4;" horiz-adv-x="715" 
d="M618 831l-10 -123q0 -32 14 -56q-31 -8 -78.5 -8t-68 21t-20.5 61q0 15 7 80h-26q-60 -74 -60 -150q-55 -12 -112 -12t-57 19q0 42 124 180q17 10 68 17.5t102 7.5q117 0 117 -37zM538 524q56 0 96.5 -45t40.5 -130.5t-30 -158t-79 -118.5t-111 -71.5t-127 -25.5
q-131 0 -207 72t-76 191q0 161 103.5 261.5t263.5 100.5q36 0 72 -8q11 -33 12 -75q21 7 42 7zM415 385q0 28 13.5 63t43.5 56q-132 -28 -182 -107q-43 -68 -43 -140t29.5 -115.5t75.5 -43.5q102 0 144 133q-81 50 -81 154z" />
    <glyph glyph-name="otilde" unicode="&#xf5;" horiz-adv-x="715" 
d="M615 705q-40 20 -83 20t-119.5 -29.5t-114.5 -29.5q-64 0 -64 63q0 46 27 105q40 -20 83 -20t119.5 29.5t114.5 29.5q64 0 64 -63q0 -46 -27 -105zM538 524q56 0 96.5 -45t40.5 -130.5t-30 -158t-79 -118.5t-111 -71.5t-127 -25.5q-131 0 -207 72t-76 191
q0 161 103.5 261.5t263.5 100.5q36 0 72 -8q11 -33 12 -75q21 7 42 7zM415 385q0 28 13.5 63t43.5 56q-132 -28 -182 -107q-43 -68 -43 -140t29.5 -115.5t75.5 -43.5q102 0 144 133q-81 50 -81 154z" />
    <glyph glyph-name="odieresis" unicode="&#xf6;" horiz-adv-x="715" 
d="M650 696q-37 -30 -83 -30t-72.5 20t-26.5 55q0 51 39.5 79.5t83 28.5t70 -20.5t26.5 -61.5t-37 -71zM349 696q-37 -30 -83 -30t-72.5 20t-26.5 55q0 51 39.5 79.5t83 28.5t70 -20.5t26.5 -61.5t-37 -71zM538 524q56 0 96.5 -45t40.5 -130.5t-30 -158t-79 -118.5
t-111 -71.5t-127 -25.5q-131 0 -207 72t-76 191q0 161 103.5 261.5t263.5 100.5q36 0 72 -8q11 -33 12 -75q21 7 42 7zM415 385q0 28 13.5 63t43.5 56q-132 -28 -182 -107q-43 -68 -43 -140t29.5 -115.5t75.5 -43.5q102 0 144 133q-81 50 -81 154z" />
    <glyph glyph-name="divide" unicode="&#xf7;" 
d="M264.5 35.5q-24.5 24.5 -24.5 62.5t29.5 68.5t69 30.5t63.5 -24.5t24 -62.5t-29.5 -68.5t-68.5 -30.5t-63.5 24.5zM311.5 531.5q-24.5 24.5 -24.5 62.5t29.5 68.5t68.5 30.5t63.5 -24.5t24.5 -62.5t-29.5 -68.5t-68.5 -30.5t-63.5 24.5zM259 440l295 6q79 0 79 -76
q0 -44 -18 -79q-39 16 -106.5 16t-188.5 -12t-181 -12q-39 0 -39 64t31 110q54 -17 128 -17z" />
    <glyph glyph-name="oslash" unicode="&#xf8;" horiz-adv-x="715" 
d="M359 -23l-1 -6q-27 -98 -100 -98q-43 0 -81 29q27 25 49 87q-86 25 -133.5 90.5t-47.5 158.5q0 153 94.5 252t243.5 109l12 46q14 57 71 57t104 -42q-31 -47 -63 -140q20 4 31 4q56 0 96.5 -45t40.5 -130q0 -160 -93 -260t-223 -112zM521 343q0 75 -33 112
q-71 -254 -93 -347q58 24 92 92t34 143zM267.5 376.5q-31.5 -65.5 -31.5 -137.5t33 -109q26 98 84 340q-54 -28 -85.5 -93.5z" />
    <glyph glyph-name="ugrave" unicode="&#xf9;" horiz-adv-x="764" 
d="M223 -25q-88 0 -123 43t-35 108.5t22 179.5t22 165t-21 80q93 49 157 49q41 0 59.5 -16.5t18.5 -53.5t-30.5 -181.5t-30.5 -178.5t19 -53.5t50 -19.5t66 24.5t57 69.5q14 81 55 256l-60 80q101 73 192 73q45 0 64.5 -16.5t19.5 -50t-36.5 -191.5t-36.5 -224.5t31 -93.5
q-56 -49 -117.5 -49t-88.5 27t-27 71l-10 5q-33 -48 -91.5 -75.5t-125.5 -27.5zM553 653q-42 0 -121.5 33.5t-125.5 33.5q-9 0 -23 -2q-10 34 -10 73q0 95 56 95q37 0 84.5 -33.5t100 -73.5t95.5 -50q-3 -39 -18.5 -57.5t-37.5 -18.5z" />
    <glyph glyph-name="uacute" unicode="&#xfa;" horiz-adv-x="764" 
d="M223 -25q-88 0 -123 43t-35 108.5t22 179.5t22 165t-21 80q93 49 157 49q41 0 59.5 -16.5t18.5 -53.5t-30.5 -181.5t-30.5 -178.5t19 -53.5t50 -19.5t66 24.5t57 69.5q14 81 55 256l-60 80q101 73 192 73q45 0 64.5 -16.5t19.5 -50t-36.5 -191.5t-36.5 -224.5t31 -93.5
q-56 -49 -117.5 -49t-88.5 27t-27 71l-10 5q-33 -48 -91.5 -75.5t-125.5 -27.5zM332 653q-22 0 -37.5 18.5t-18.5 57.5q43 10 95.5 50t100 73.5t84.5 33.5q56 0 56 -95q0 -39 -10 -73q-14 2 -23 2q-46 0 -125.5 -33.5t-121.5 -33.5z" />
    <glyph glyph-name="ucircumflex" unicode="&#xfb;" horiz-adv-x="764" 
d="M223 -25q-88 0 -123 43t-35 108.5t22 179.5t22 165t-21 80q93 49 157 49q41 0 59.5 -16.5t18.5 -53.5t-30.5 -181.5t-30.5 -178.5t19 -53.5t50 -19.5t66 24.5t57 69.5q14 81 55 256l-60 80q101 73 192 73q45 0 64.5 -16.5t19.5 -50t-36.5 -191.5t-36.5 -224.5t31 -93.5
q-56 -49 -117.5 -49t-88.5 27t-27 71l-10 5q-33 -48 -91.5 -75.5t-125.5 -27.5zM624 831l-10 -123q0 -32 14 -56q-31 -8 -78.5 -8t-68 21t-20.5 61q0 15 7 80h-26q-60 -74 -60 -150q-55 -12 -112 -12t-57 19q0 42 124 180q17 10 68 17.5t102 7.5q117 0 117 -37z" />
    <glyph glyph-name="udieresis" unicode="&#xfc;" horiz-adv-x="764" 
d="M223 -25q-88 0 -123 43t-35 108.5t22 179.5t22 165t-21 80q93 49 157 49q41 0 59.5 -16.5t18.5 -53.5t-30.5 -181.5t-30.5 -178.5t19 -53.5t50 -19.5t66 24.5t57 69.5q14 81 55 256l-60 80q101 73 192 73q45 0 64.5 -16.5t19.5 -50t-36.5 -191.5t-36.5 -224.5t31 -93.5
q-56 -49 -117.5 -49t-88.5 27t-27 71l-10 5q-33 -48 -91.5 -75.5t-125.5 -27.5zM667 696q-37 -30 -83 -30t-72.5 20t-26.5 55q0 51 39.5 79.5t83 28.5t70 -20.5t26.5 -61.5t-37 -71zM366 696q-37 -30 -83 -30t-72.5 20t-26.5 55q0 51 39.5 79.5t83 28.5t70 -20.5t26.5 -61.5
t-37 -71z" />
    <glyph glyph-name="yacute" unicode="&#xfd;" horiz-adv-x="695" 
d="M332 20q-47 -17 -94 -17t-79 28t-37 76t-9 139.5t-8 129.5q-13 127 -80 181q47 43 118 43q39 0 68 -20.5t46.5 -54t28.5 -86.5q17 -88 17 -238q0 -37 -3 -87h58q103 278 103 379q0 34 -15 64q70 43 122 43q97 0 97 -112q0 -89 -82 -313q-15 -41 -17 -48
q-127 -362 -361 -362q-71 0 -117 30.5t-46 80t37 103.5q48 -68 120 -68q41 0 76.5 27t56.5 82zM296 653q-22 0 -37.5 18.5t-18.5 57.5q43 10 95.5 50t100 73.5t84.5 33.5q56 0 56 -95q0 -39 -10 -73q-14 2 -23 2q-46 0 -125.5 -33.5t-121.5 -33.5z" />
    <glyph glyph-name="thorn" unicode="&#xfe;" horiz-adv-x="756" 
d="M325 453l10 -5q29 72 84 112.5t129.5 40.5t118.5 -67.5t44 -167.5q0 -134 -94 -244q-46 -54 -123 -87.5t-172 -33.5q-29 0 -76 5q-3 -35 -3 -65q0 -64 31 -91q-56 -49 -118 -49t-86.5 30.5t-24.5 93.5q0 131 104 697l-56 80q125 73 197 73q41 0 58 -16.5t17 -66
t-40 -239.5zM287 215l-23 -116q121 3 193.5 79.5t72.5 167.5q0 47 -18.5 75.5t-53.5 28.5q-124 0 -171 -235z" />
    <glyph glyph-name="ydieresis" unicode="&#xff;" horiz-adv-x="695" 
d="M332 20q-47 -17 -94 -17t-79 28t-37 76t-9 139.5t-8 129.5q-13 127 -80 181q47 43 118 43q39 0 68 -20.5t46.5 -54t28.5 -86.5q17 -88 17 -238q0 -37 -3 -87h58q103 278 103 379q0 34 -15 64q70 43 122 43q97 0 97 -112q0 -89 -82 -313q-15 -41 -17 -48
q-127 -362 -361 -362q-71 0 -117 30.5t-46 80t37 103.5q48 -68 120 -68q41 0 76.5 27t56.5 82zM617 696q-37 -30 -83 -30t-72.5 20t-26.5 55q0 51 39.5 79.5t83 28.5t70 -20.5t26.5 -61.5t-37 -71zM316 696q-37 -30 -83 -30t-72.5 20t-26.5 55q0 51 39.5 79.5t83 28.5
t70 -20.5t26.5 -61.5t-37 -71z" />
    <glyph glyph-name="dotlessi" unicode="&#x131;" horiz-adv-x="388" 
d="M93 6q-28 31 -28 94.5t64 340.5l-56 84q125 75 197 75q41 0 58 -17.5t17 -56.5q0 -15 -37 -176t-37 -230t31 -96q-56 -49 -118.5 -49t-90.5 31z" />
    <glyph glyph-name="Lslash" unicode="&#x141;" horiz-adv-x="549" 
d="M60 129q0 40 16 146q-18 -3 -33 -3q-81 0 -81 64q0 48 41 95q25 -10 55.5 -10t41.5 1l23 124l-53 107q113 73 206 73q77 0 77 -94q0 -28 -23 -152q44 11 67 11q81 0 81 -64q0 -48 -41 -95q-25 10 -57.5 10t-76.5 -6q-27 -148 -27 -200h108q76 11 153 39q6 -18 6 -49
q0 -59 -34.5 -105t-95.5 -46q-41 0 -142 22q-42 -23 -89 -23q-66 0 -94 37.5t-28 117.5z" />
    <glyph glyph-name="lslash" unicode="&#x142;" horiz-adv-x="385" 
d="M331 490l14 1q65 0 65 -50q0 -38 -33 -74q-20 10 -42 10t-28 -1q-31 -155 -31 -236t31 -116q-70 -49 -127 -49t-83.5 37.5t-26.5 116.5q0 39 23 179q-5 -1 -14 -1q-65 0 -65 50q0 38 33 74q20 -10 65 -10l37 201l-56 80q125 73 197 73q41 0 58 -16.5t17 -61.5t-34 -207z
" />
    <glyph glyph-name="OE" unicode="&#x152;" horiz-adv-x="960" 
d="M903.5 21q-34.5 -46 -89.5 -46t-136 17.5t-148 17.5q-76 -35 -159 -35q-160 0 -253 91.5t-93 239.5q0 190 106 304t290 114q53 0 139 -19.5t172.5 -19.5t239.5 36q8 -33 8 -65q0 -81 -53.5 -122t-137.5 -41q-57 0 -112 24q-8 -45 -28 -147q37 -7 63 -7q41 8 90 23
q5 -17 5 -55.5t-31 -61.5t-69.5 -23t-78.5 9q-11 -61 -11 -119h162q76 11 153 39q6 -18 6 -49q0 -59 -34.5 -105zM401 123q0 83 67 452q-73 0 -126 -43q-99 -79 -99 -222q0 -81 36 -135t100 -54q15 0 22 2z" />
    <glyph glyph-name="oe" unicode="&#x153;" horiz-adv-x="1018" 
d="M877 26.5q-72 -51.5 -186.5 -51.5t-188.5 52q-83 -52 -177 -52q-130 0 -205 72t-75 191q0 161 102 261.5t259 100.5q94 0 170 -57q97 57 218 57q93 0 141 -41.5t48 -109.5q0 -93 -90.5 -154.5t-279.5 -62.5q3 -64 29 -100.5t65 -36.5t67.5 26t28.5 85q146 0 146 -69
q0 -59 -72 -110.5zM359 98q38 0 70 21q-23 54 -23 119q0 127 75 223q-22 25 -56 25q-59 0 -101 -40q-77 -73 -77 -197q0 -64 29.5 -107.5t82.5 -43.5zM777 483q-51 0 -93.5 -51t-61.5 -120q100 8 150.5 45.5t50.5 79.5q0 20 -12.5 33t-33.5 13z" />
    <glyph glyph-name="Scaron" unicode="&#x160;" horiz-adv-x="688" 
d="M414 725q132 0 198 -30.5t66 -97t-40.5 -101t-92.5 -34.5t-93.5 26.5t-57.5 70.5q-37 0 -70.5 -24.5t-42.5 -63.5q198 -48 284 -112t86 -164t-90.5 -160t-244 -60t-217.5 42t-64 111t43 127q21 -45 80.5 -81t117.5 -36q107 0 136 68q-166 22 -253 92.5t-87 170.5
q0 67 36 119.5t92 80.5q110 56 214 56zM559 776q-56 -27 -147 -27q-120 0 -120 57v83q0 43 -31 65q47 19 94 19q81 0 81 -75q0 -19 -11 -87h30q41 43 41 109q0 11 -2 35q47 18 96 18q77 0 77 -39q0 -37 -65 -110l-24 -27t-19 -21z" />
    <glyph glyph-name="scaron" unicode="&#x161;" horiz-adv-x="643" 
d="M374 467q-37 -11 -59 -31.5t-39 -58.5q169 -25 238 -72t69 -134q0 -55 -31 -95.5t-78 -61.5q-92 -39 -181 -39q-253 0 -253 109q0 55 49 110q25 -35 75.5 -60t98.5 -25q83 0 100 73q-152 18 -220 68t-68 141q0 72 47.5 121t118 68.5t159 19.5t146 -33.5t57.5 -81.5
t-33.5 -74t-73 -26t-72 21t-50.5 61zM483 661q-56 -27 -147 -27q-120 0 -120 57v83q0 43 -31 65q47 19 94 19q81 0 81 -75q0 -19 -11 -87h30q41 43 41 109q0 11 -2 35q47 18 96 18q77 0 77 -39q0 -37 -65 -109q-8 -10 -24 -28t-19 -21z" />
    <glyph glyph-name="Ydieresis" unicode="&#x178;" horiz-adv-x="672" 
d="M122 180q-1 20 -4 84t-5.5 97.5t-11 91.5t-21.5 93q-32 92 -90 132q78 47 126.5 47t80.5 -16t52.5 -38.5t36.5 -62.5t24 -73t13.5 -85t7 -84t3 -84.5t2.5 -72.5h14q39 93 71.5 213t32.5 191q0 35 -15 65q75 47 133 47q110 0 110 -116q0 -59 -45 -198t-106 -269
q-79 -169 -162.5 -244t-214.5 -75q-58 0 -105 23q-57 27 -57 91t49 132q22 -32 59 -49.5t81.5 -17.5t84 24.5t56.5 70.5q-53 -13 -97 -13q-95 0 -103 96zM610 801q-37 -30 -83 -30t-72.5 20t-26.5 55q0 51 39.5 79.5t83 28.5t70 -20.5t26.5 -61.5t-37 -71zM309 801
q-37 -30 -83 -30t-72.5 20t-26.5 55q0 51 39.5 79.5t83 28.5t70 -20.5t26.5 -61.5t-37 -71z" />
    <glyph glyph-name="Zcaron" unicode="&#x17d;" horiz-adv-x="674" 
d="M9.5 7.5q-29.5 27.5 -29.5 77.5t38.5 91t106.5 41l192 256q-114 3 -181 42.5t-67 120.5q0 38 10 85q71 -29 197.5 -48.5t185.5 -19.5q41 71 112 71q47 0 73.5 -29.5t26.5 -72.5q0 -68 -84 -107l-256 -320l176 -19l121 55q8 -36 8 -79q0 -88 -44.5 -132.5t-114.5 -44.5
q-135 0 -260 79q-62 -74 -133 -74q-48 0 -77.5 27.5zM512 761q-56 -27 -147 -27q-120 0 -120 57v83q0 43 -31 65q48 19 94 19q81 0 81 -75q0 -19 -11 -87h30q41 43 41 109q0 11 -2 35q47 18 96 18q77 0 77 -39q0 -37 -64 -109q-9 -10 -25 -28t-19 -21z" />
    <glyph glyph-name="zcaron" unicode="&#x17e;" horiz-adv-x="624" 
d="M220 25q-55 -43 -105 -43t-75 28t-25 70.5t31 78.5t88 43l164 174q-124 4 -171 37t-47 101q0 27 11 91q67 -28 155 -50.5t138 -24.5q16 31 47.5 50.5t75 19.5t70.5 -26t27 -68q0 -73 -73 -105l-207 -237q65 -20 103 -21l136 53q21 -54 21 -102.5t-46 -83.5t-111 -35
t-137 25q-25 8 -70 25zM483 661q-56 -27 -147 -27q-120 0 -120 57v83q0 43 -31 65q47 19 94 19q81 0 81 -75q0 -19 -11 -87h30q41 43 41 109q0 11 -2 35q47 18 96 18q77 0 77 -39q0 -37 -65 -109q-8 -10 -24 -28t-19 -21z" />
    <glyph glyph-name="florin" unicode="&#x192;" horiz-adv-x="590" 
d="M97 205q-39 0 -39 24q0 29 48 76q8 -2 26.5 -2t27.5 1q7 146 34 227q26 78 74 119q55 49 138 49q178 0 178 -116q0 -45 -25 -106q-48 19 -125.5 34t-129.5 17l91 -170q52 13 94.5 13t42.5 -27q0 -32 -47 -75q-13 4 -29.5 4t-38.5 -2l-23 -235q-24 -246 -222 -246
q-76 0 -119 48q58 81 79 156t25 218q-37 -7 -60 -7z" />
    <glyph glyph-name="circumflex" unicode="&#x2c6;" horiz-adv-x="602" 
d="M491 831l-10 -123q0 -32 14 -56q-31 -8 -78.5 -8t-68 21t-20.5 61q0 15 7 80h-26q-60 -74 -60 -150q-55 -12 -112 -12t-57 19q0 42 124 180q17 10 68 17.5t102 7.5q117 0 117 -37z" />
    <glyph glyph-name="caron" unicode="&#x2c7;" horiz-adv-x="602" 
d="M393 661q-56 -27 -147 -27q-120 0 -120 57v83q0 43 -31 65q47 19 94 19q81 0 81 -75q0 -19 -11 -87h30q41 43 41 109q0 11 -2 35q47 18 96 18q77 0 77 -39q0 -37 -65 -109q-8 -10 -24 -28t-19 -21z" />
    <glyph glyph-name="breve" unicode="&#x2d8;" horiz-adv-x="475" 
d="M193 662q-63 0 -99.5 29.5t-36.5 91.5q0 40 10 75q53 -62 162 -62q50 0 100 22t87 60q5 -28 5 -48q0 -82 -70 -125t-158 -43z" />
    <glyph glyph-name="dotaccent" unicode="&#x2d9;" horiz-adv-x="406" 
d="M293 686.5q-43 -38.5 -102.5 -38.5t-90 26t-30.5 69q0 62 43 101t102.5 39t90 -26.5t30.5 -69.5q0 -62 -43 -100.5z" />
    <glyph glyph-name="ring" unicode="&#x2da;" horiz-adv-x="482" 
d="M187.5 715.5q13.5 -18.5 39 -18.5t47 30t21.5 68q0 57 -60 57q-6 0 -26 -2q-35 -39 -35 -89q0 -27 13.5 -45.5zM356.5 676.5q-51.5 -44.5 -128.5 -44.5t-117 34t-40 91q0 73 51.5 117.5t128.5 44.5t117 -34t40 -91q0 -73 -51.5 -117.5z" />
    <glyph glyph-name="ogonek" unicode="&#x2db;" horiz-adv-x="667" 
d="M378 22h111q-191 -40 -191 -156q0 -24 15 -38t43.5 -14t51.5 28.5t23 62.5q0 14 -4 25q81 -21 81 -83q0 -50 -54.5 -91t-132 -41t-114 33t-36.5 84q0 69 59.5 129.5t147.5 60.5z" />
    <glyph glyph-name="tilde" unicode="&#x2dc;" horiz-adv-x="548" 
d="M451 705q-40 20 -83 20t-119.5 -29.5t-114.5 -29.5q-64 0 -64 63q0 46 27 105q40 -20 83 -20t119.5 29.5t114.5 29.5q64 0 64 -63q0 -46 -27 -105z" />
    <glyph glyph-name="hungarumlaut" unicode="&#x2dd;" horiz-adv-x="780" 
d="M392 770q-31 0 -75 -30.5t-90.5 -61t-82.5 -30.5q-50 0 -77 79q43 15 95 76q20 24 40 47q48 52 100 52q30 0 51 -17q39 -32 39 -115zM723 770q-31 0 -75 -30.5t-90.5 -61t-82.5 -30.5q-50 0 -77 79q43 15 94 76q21 24 42 47q47 52 99 52q30 0 51 -17q39 -32 39 -115z" />
    <glyph glyph-name="pi" unicode="&#x3c0;" horiz-adv-x="896" 
d="M261 593l489 7q46 0 69.5 -21t23.5 -72t-22 -94q-28 13 -78 19q-56 -229 -56 -317q0 -64 31 -91q-56 -49 -118.5 -49t-90.5 31t-28 93.5t62 331.5l-166 -10q-53 -224 -53 -297t31 -100q-56 -49 -118.5 -49t-90.5 31t-28 94.5t56 306.5q-17 -1 -45 -1q-49 0 -49 73.5
t38 136.5q54 -23 143 -23z" />
    <glyph glyph-name="endash" unicode="&#x2013;" horiz-adv-x="937" 
d="M229 425l609 6q84 0 84 -76q0 -47 -20 -82q-57 19 -170.5 19t-338 -12t-334.5 -12q-44 0 -44 61.5t35 114.5q66 -19 179 -19z" />
    <glyph glyph-name="emdash" unicode="&#x2014;" horiz-adv-x="1112" 
d="M270 425l743 6q84 0 84 -76q0 -47 -21 -83q-65 20 -202.5 20t-409.5 -12t-405 -12q-44 0 -44 62t35 115q90 -20 220 -20z" />
    <glyph glyph-name="quoteleft" unicode="&#x2018;" horiz-adv-x="331" 
d="M222 622l70 -90q-2 -48 -40 -84t-88 -36t-79 34t-29 81q0 104 70 184.5t187 104.5l15 -44q-47 -22 -76.5 -66.5t-29.5 -83.5z" />
    <glyph glyph-name="quoteright" unicode="&#x2019;" horiz-adv-x="331" 
d="M159 590l-70 90q2 48 40 84t88 36t79 -34t29 -81q0 -104 -70 -184.5t-187 -104.5l-15 44q47 22 76.5 66.5t29.5 83.5z" />
    <glyph glyph-name="quotesinglbase" unicode="&#x201a;" horiz-adv-x="333" 
d="M159 37l-70 90q2 48 40 84t88 36t79 -34t29 -81q0 -104 -70 -184.5t-187 -104.5l-15 44q47 22 76.5 66.5t29.5 83.5z" />
    <glyph glyph-name="quotedblleft" unicode="&#x201c;" horiz-adv-x="635" 
d="M222 622l70 -90q-2 -48 -40 -84t-88 -36t-79 34t-29 81q0 104 70 184.5t187 104.5l15 -44q-47 -22 -76.5 -66.5t-29.5 -83.5zM526 622l70 -90q-2 -48 -40 -84t-88 -36t-79 34t-29 81q0 104 70 184.5t187 104.5l15 -44q-47 -22 -76.5 -66.5t-29.5 -83.5z" />
    <glyph glyph-name="quotedblright" unicode="&#x201d;" horiz-adv-x="635" 
d="M463 590l-70 90q2 48 40 84t88 36t79 -34t29 -81q0 -104 -70 -184.5t-187 -104.5l-15 44q47 22 76.5 66.5t29.5 83.5zM159 590l-70 90q2 48 40 84t88 36t79 -34t29 -81q0 -104 -70 -184.5t-187 -104.5l-15 44q47 22 76.5 66.5t29.5 83.5z" />
    <glyph glyph-name="quotedblbase" unicode="&#x201e;" horiz-adv-x="635" 
d="M463 37l-70 90q2 48 40 84t88 36t79 -34t29 -81q0 -104 -70 -184.5t-187 -104.5l-15 44q47 22 76.5 66.5t29.5 83.5zM159 37l-70 90q2 48 40 84t88 36t79 -34t29 -81q0 -104 -70 -184.5t-187 -104.5l-15 44q47 22 76.5 66.5t29.5 83.5z" />
    <glyph glyph-name="dagger" unicode="&#x2020;" horiz-adv-x="708" 
d="M94 428q-44 0 -44 61t34 114q49 -18 130 -18h85l22 173q7 58 31 87t77 29t108 -34q-21 -33 -36 -80.5t-20 -81t-12 -89.5q94 2 140 2q84 0 84 -76q0 -47 -20 -82q-43 19 -105 19t-115 -3q-10 -102 -27.5 -317.5t-26.5 -281.5q-9 -69 -84.5 -69t-144.5 51q40 74 61 217
q27 192 50 387q-126 -8 -187 -8z" />
    <glyph glyph-name="daggerdbl" unicode="&#x2021;" horiz-adv-x="708" 
d="M65 57q-44 0 -44 61t34 114q49 -18 198 -18l28 222q-126 -8 -187 -8q-44 0 -44 61t34 114q49 -18 215 -18l22 173q7 58 31 87t77 29t108 -34q-21 -33 -36 -80.5t-20 -81t-12 -89.5q94 2 140 2q84 0 84 -76q0 -47 -20 -82q-43 19 -105 19t-115 -3q-5 -45 -12 -127.5
t-9 -103.5q100 2 148 2q84 0 84 -76q0 -47 -20 -82q-43 19 -106 19t-117 -3q-15 -170 -22 -228q-9 -69 -84.5 -69t-144.5 51q25 50 35 90q11 48 28 142q-98 -7 -168 -7z" />
    <glyph glyph-name="bullet" unicode="&#x2022;" horiz-adv-x="388" 
d="M90.5 211.5q-36.5 36.5 -36.5 93.5t44.5 102.5t103 45.5t95.5 -36.5t37 -93.5t-45 -102.5t-103.5 -45.5t-95 36.5z" />
    <glyph glyph-name="ellipsis" unicode="&#x2026;" horiz-adv-x="999" 
d="M80.5 5.5q-30.5 30.5 -30.5 78t37 85.5t86 38t79.5 -30.5t30.5 -78t-37 -85.5t-86 -38t-79.5 30.5zM413.5 5.5q-30.5 30.5 -30.5 78t37 85.5t86 38t79.5 -30.5t30.5 -78t-37 -85.5t-86 -38t-79.5 30.5zM746.5 5.5q-30.5 30.5 -30.5 78t37 85.5t86 38t79.5 -30.5t30.5 -78
t-37 -85.5t-86 -38t-79.5 30.5z" />
    <glyph glyph-name="perthousand" unicode="&#x2030;" horiz-adv-x="1446" 
d="M651 205q0 -101 57.5 -162.5t152.5 -61.5t166 55q58 -55 160 -55t180.5 79.5t78.5 203.5q0 153 -118 180q-2 26 -8 34q-23 10 -60 10q-118 0 -198 -64q-20 14 -47 20q-2 26 -8 34q-23 10 -60 10q-132 0 -214 -78t-82 -205zM18 417q0 -101 57.5 -162.5t162.5 -61.5
t183.5 79.5t78.5 203.5q0 153 -118 180q-2 26 -8 34q-23 10 -60 10q-132 0 -214 -78t-82 -205zM330 13q46 51 104 164q44 90 113.5 234.5t111 229t106.5 84.5q38 0 67 -26q-46 -45 -100 -153.5t-133.5 -287t-105 -231t-77 -52.5t-86.5 38zM1185 95q-23 0 -36 27.5t-13 70.5
q0 88 43 154q15 3 26 3q63 0 63 -84q0 -65 -25.5 -118t-57.5 -53zM239 307q-23 0 -36 27.5t-13 70.5q0 88 43 154q15 3 26 3q63 0 63 -84q0 -65 -25.5 -118t-57.5 -53zM872 95q-23 0 -36 27.5t-13 70.5q0 88 43 154q15 3 26 3q63 0 63 -84q0 -65 -25.5 -118t-57.5 -53z" />
    <glyph glyph-name="guilsinglleft" unicode="&#x2039;" horiz-adv-x="382" 
d="M283 243q-9 -225 -59 -225q-35 0 -85.5 45.5t-76.5 90.5q-4 20 -4 58q0 101 28 208.5t68 112.5q89 7 124 16.5t58 17.5q0 -145 -47 -192q-23 -23 -47 -31t-46.5 -8t-62.5 7l-7 -44q69 -56 157 -56z" />
    <glyph glyph-name="guilsinglright" unicode="&#x203a;" horiz-adv-x="382" 
d="M99 335q9 225 59 225q35 0 85.5 -45.5t76.5 -90.5q4 -20 4 -58q0 -101 -28 -208.5t-68 -112.5q-89 -7 -124 -16.5t-58 -17.5q0 145 47 192q23 23 47 31t46.5 8t62.5 -7l7 44q-69 56 -157 56z" />
    <glyph glyph-name="fraction" unicode="&#x2044;" horiz-adv-x="1150" 
d="M324 13q46 51 104 164q44 90 113.5 234.5t111 229t106.5 84.5q38 0 67 -26q-46 -45 -100 -153.5t-133.5 -287t-105 -231t-77 -52.5t-86.5 38z" />
    <glyph glyph-name="zerosuperior" unicode="&#x2070;" horiz-adv-x="517" 
d="M18 417q0 127 82 205t214 78q37 0 60 -10q6 -8 8 -34q118 -27 118 -180q0 -124 -78.5 -203.5t-183.5 -79.5t-162.5 61.5t-57.5 162.5zM239 307q32 0 57.5 53t25.5 118q0 84 -63 84q-11 0 -26 -3q-43 -66 -43 -154q0 -43 13 -70.5t36 -27.5z" />
    <glyph glyph-name="foursuperior" unicode="&#x2074;" horiz-adv-x="497" 
d="M14 351q0 32 46.5 141.5t46.5 157.5q0 19 -9 31q55 19 94 19q109 0 109 -76q0 -52 -32.5 -115t-85.5 -117h59q18 50 43 93q21 18 63 32.5t71 14.5t37 -5.5t8 -17.5t-16 -93.5t-16 -125.5t22 -63q-58 -34 -116.5 -34t-86 25t-30.5 66q-38 -5 -72 -5q-135 0 -135 72z" />
    <glyph glyph-name="Euro" unicode="&#x20ac;" horiz-adv-x="651" 
d="M66 310q-39 0 -39 21q0 26 44 67q9 -2 26 -2q32 130 126 218.5t233 88.5q171 0 171 -106q0 -38 -24 -99q-42 17 -99 29t-92 14q-33 -31 -58 -105q57 16 97.5 16t40.5 -24t-43 -66q-13 4 -39 4t-79 -12q-8 -37 -8 -69q57 18 101.5 18t44.5 -24t-43 -66q-13 4 -34 4t-61 -7
q24 -80 99 -80t139 43q8 -34 8 -52q0 -70 -55.5 -108.5t-156.5 -38.5t-169 53t-95 141q-37 -7 -58 -7q-38 0 -38 21q0 23 44 67q16 -2 36 -2q-1 13 -1 64q-6 -1 -18 -1z" />
    <glyph glyph-name="trademark" unicode="&#x2122;" horiz-adv-x="886" 
d="M275 591l-25 1q-29 -155 -29 -171q0 -51 15 -77q-32 -24 -66 -24t-49 20t-15 60.5t31 209.5q-48 -6 -101 -18q-4 13 -4 35q0 43 22 64.5t53.5 21.5t85 -10.5t80.5 -11.5q55 11 85 21q5 -14 5 -35q0 -43 -24.5 -64.5t-63.5 -21.5zM738 340q-15 20 -15 59t25 178h-8
q-32 -43 -53.5 -101.5t-26.5 -105.5q-25 -25 -60 -25q-18 0 -31 17q-31 41 -41 215h-9q-26 -113 -26 -159.5t16 -73.5q-33 -24 -66.5 -24t-48.5 20t-15 59.5t33 223.5l-28 57q61 39 103.5 39t64.5 -14q45 -30 60 -193h6q71 206 220 206q41 0 41 -49q0 -16 -20.5 -122
t-20.5 -126q0 -52 16 -77q-33 -24 -67 -24t-49 20z" />
    <glyph glyph-name="Omega" unicode="&#x2126;" horiz-adv-x="834" 
d="M647 143l39 1q120 0 120 -71q0 -46 -34 -98q-56 11 -99.5 11t-79.5 -5.5t-62 -5.5t-49 19t-23 61q0 68 44 191.5t44 187.5q0 142 -109 142q-134 0 -134 -204q0 -52 19.5 -141t19.5 -139q0 -117 -95 -117q-18 0 -55.5 5.5t-79.5 5.5t-98 -11q-21 45 -21 79q0 90 134 90
q13 0 45 -2v11q-54 42 -81.5 111.5t-27.5 126t10.5 98.5t38 86t70 76.5t112 53t152 20.5t142.5 -17t96.5 -43.5t60.5 -64.5q43 -67 43 -156t-38.5 -167t-103.5 -124v-10z" />
    <glyph glyph-name="partialdiff" unicode="&#x2202;" horiz-adv-x="716" 
d="M112 -137.5q-67 72.5 -67 176.5q0 120 83 215q40 45 103 73t139 28q26 0 45 -4q-39 111 -111.5 200t-167.5 141q70 58 163 58t168.5 -93t116.5 -233t41 -287q0 -84 -28.5 -152t-74.5 -109q-96 -86 -219.5 -86t-190.5 72.5zM236 34q0 -59 22.5 -89.5t56.5 -30.5
q50 0 90.5 56.5t40.5 149.5q0 57 -22 87t-56 30q-50 0 -91 -56t-41 -147z" />
    <glyph glyph-name="Delta" unicode="&#x2206;" horiz-adv-x="860" 
d="M540 775q-2 -6 -2 -20q0 -70 44 -173t97 -189.5t97 -172.5t44 -126t-36 -67.5t-132.5 -44.5t-222 -17t-194.5 11.5t-108.5 28t-66.5 41.5t-37.5 45t-17.5 45q31 23 67.5 69.5t64 94t104.5 175.5t115 193.5t80 86t104 20.5zM436 471q-71 -170 -145 -289q57 -21 123.5 -21
t140.5 21q-76 139 -119 289z" />
    <glyph glyph-name="product" unicode="&#x220f;" horiz-adv-x="1036" 
d="M278 710l669 7q37 0 55.5 -21.5t18.5 -76t-19 -96.5q-50 17 -124 21q-8 -56 -30 -192q-52 -332 -52 -370q0 -97 30 -145q-60 -45 -125 -45t-93 37.5t-28 117.5q0 50 24.5 242.5t52.5 352.5q-39 -1 -242 -14q-8 -54 -29 -190q-51 -319 -51 -356q0 -97 30 -145
q-60 -45 -125 -45t-93 37.5t-28 104t23 247.5t51 337q-35 -1 -105 -1q-38 0 -38 77.5t32 138.5q77 -23 196 -23z" />
    <glyph glyph-name="summation" unicode="&#x2211;" horiz-adv-x="871" 
d="M341 729l359 6q101 0 101 -83q0 -74 -33 -129q-48 23 -162 23q-83 0 -127.5 -6.5t-79 -14t-46.5 -9.5q35 -44 74 -76.5t54 -44.5t51 -38.5t56 -42.5q43 -33 43 -84q0 -13 -2 -37q-114 -22 -290 -174q124 -24 242.5 -24t167.5 22q14 -35 14 -75q0 -134 -121 -134l-378 7
q-122 0 -182 -26q-22 42 -22 95.5t17 94t52 77.5t66.5 64t82 66.5t76.5 62.5q-76 57 -157 169.5t-81 186.5q0 38 12.5 79t31.5 67q56 -22 181 -22z" />
    <glyph glyph-name="minus" unicode="&#x2212;" 
d="M259 440l295 6q79 0 79 -76q0 -44 -18 -79q-39 16 -106.5 16t-188.5 -12t-181 -12q-39 0 -39 64t31 110q54 -17 128 -17z" />
    <glyph glyph-name="radical" unicode="&#x221a;" horiz-adv-x="812" 
d="M90 -101l9 275q0 116 -54 172q70 43 128 43q81 0 116.5 -64.5t35.5 -168.5q0 -56 -16 -240h44q29 80 111.5 426t93.5 421q21 146 123 146q15 0 75 -8t114 -8q135 0 173 29q36 -47 36 -105.5t-62.5 -75.5t-241.5 -17q-24 -135 -109 -441.5t-110 -366.5l13 -58
q-43 -38 -124 -66t-170.5 -28t-137 31.5t-47.5 103.5z" />
    <glyph glyph-name="infinity" unicode="&#x221e;" horiz-adv-x="921" 
d="M495 522l22 -28q38 60 88.5 97.5t108.5 37.5q68 0 124 -47q30 -25 48.5 -77t18.5 -126q0 -132 -61.5 -211t-162.5 -79q-120 0 -211 107l-23 27q-38 -59 -88.5 -96t-107.5 -37q-67 0 -123 46q-31 25 -49.5 77.5t-18.5 126.5q0 132 61.5 211t162.5 79q62 0 117 -29.5
t94 -78.5zM688 471q-58 0 -115 -46l27 -34q40 -50 60.5 -66.5t53 -16.5t53 22.5t20.5 59t-29 59t-70 22.5zM277 248q58 0 115 46l-27 34q-40 50 -60.5 66.5t-53 16.5t-53 -22.5t-20.5 -59t29 -59t70 -22.5z" />
    <glyph glyph-name="integral" unicode="&#x222b;" horiz-adv-x="523" 
d="M368 488l-37 -423q-14 -158 -57.5 -229t-131.5 -71q-53 0 -95.5 23.5t-76.5 88.5q79 9 113 52t41 123l37 423q14 159 57.5 229.5t131.5 70.5q53 0 96 -23.5t77 -88.5q-80 -9 -114 -52t-41 -123z" />
    <glyph glyph-name="approxequal" unicode="&#x2248;" 
d="M598 481q-51 26 -112.5 26t-173 -42t-155.5 -42q-60 0 -60 70q0 53 39 110q49 -19 107 -19t154 38.5t147 38.5q92 0 92 -79q0 -51 -38 -101zM598 185q-51 26 -112.5 26t-173 -42t-155.5 -42q-60 0 -60 70q0 53 39 110q49 -19 107 -19t154 38.5t147 38.5q92 0 92 -79
q0 -51 -38 -101z" />
    <glyph glyph-name="notequal" unicode="&#x2260;" 
d="M349 5q-30 -108 -111 -108q-49 0 -90 32q41 38 84 186l9 34q-45 -4 -102 -4q-39 0 -39 64t31 110q54 -17 128 -17h23l34 141q-108 -11 -177 -11q-39 0 -39 64t31 110q54 -17 122 -17t98 1q24 108 39 164q16 64 79.5 64t115.5 -47q-43 -64 -77 -177q15 1 46 1q79 0 79 -76
q0 -44 -18 -79q-39 16 -110 16q-25 0 -37 -1l-39 -150q63 3 125 3q79 0 79 -76q0 -44 -18 -79q-39 16 -100 16t-123 -5q-20 -79 -43 -159z" />
    <glyph glyph-name="lessequal" unicode="&#x2264;" 
d="M610 556q-50 -5 -105.5 -27.5t-123.5 -57.5t-100 -48q48 -26 139 -57.5t148 -55t57 -42.5q0 -31 -32.5 -67.5t-69.5 -55.5q-32 34 -89 64t-143.5 71t-124.5 61t-50 55t-13 87q47 3 116 39t127 78q153 110 191 110q30 0 51.5 -49t21.5 -105zM259 29l295 6q79 0 79 -76
q0 -44 -18 -79q-39 16 -106.5 16t-188.5 -12t-181 -12q-39 0 -39 64t31 110q54 -17 128 -17z" />
    <glyph glyph-name="greaterequal" unicode="&#x2265;" 
d="M118 295q50 5 105.5 27.5t123.5 57.5t100 48q-48 26 -139 57.5t-148 55t-57 42.5q0 31 32.5 67.5t69.5 55.5q32 -34 89 -64t143.5 -71t124.5 -61t50 -55t13 -87q-47 -3 -116 -39t-127 -77q-153 -111 -191 -111q-30 0 -51.5 49t-21.5 105zM259 29l295 6q79 0 79 -76
q0 -44 -18 -79q-39 16 -106.5 16t-188.5 -12t-181 -12q-39 0 -39 64t31 110q54 -17 128 -17z" />
    <glyph glyph-name="lozenge" unicode="&#x25ca;" horiz-adv-x="807" 
d="M767 254q-57 -34 -118 -121q-21 -29 -63.5 -87t-77.5 -107.5t-66 -95.5t-68.5 -62t-91.5 -16q1 4 1 15q0 54 -40.5 133t-88.5 145q-129 177 -129 229q29 16 62 51.5t55.5 68t64 89t77 106t66.5 95.5t68.5 62t91.5 16q-1 -5 -1 -15q0 -54 40.5 -133t88.5 -145
q129 -176 129 -228zM520 270q-74 112 -111 226q-71 -135 -138 -226q74 -110 111 -225q71 137 138 225z" />
    <glyph glyph-name="fi" unicode="&#xfb01;" horiz-adv-x="810" 
d="M55 317q-7 22 -7 45q0 48 27 73t69 26q-7 31 -7 68q0 110 57 189.5t161 79.5q57 0 89.5 -34t32.5 -79t-31 -76.5t-81 -31.5t-89 24l-14 -11l35 -119q52 7 106 27q7 -22 7 -53.5t-18.5 -59t-53.5 -35.5q-64 -295 -64 -420q0 -64 31 -91q-73 -49 -130.5 -49t-84.5 41
t-27 112t62 391q-45 -9 -70 -17zM770 692.5q-40 -27.5 -91 -27.5t-80.5 20t-29.5 54q0 46 43 72t91 26t77.5 -20t29.5 -58.5t-40 -66zM525 6q-28 31 -28 94.5t64 340.5l-56 84q125 75 197 75q41 0 58 -17.5t17 -56.5q0 -15 -37 -176t-37 -230t31 -96q-56 -49 -118.5 -49
t-90.5 31z" />
    <glyph glyph-name="fl" unicode="&#xfb02;" horiz-adv-x="853" 
d="M55 317q-7 22 -7 45q0 48 27 73t69 26q-7 31 -7 68q0 110 57 189.5t161 79.5q57 0 89.5 -34t32.5 -79t-31 -76.5t-81 -31.5t-89 24l-14 -11l35 -119q52 7 106 27q7 -22 7 -53.5t-18.5 -59t-53.5 -35.5q-64 -295 -64 -420q0 -64 31 -91q-73 -49 -130.5 -49t-84.5 41
t-27 112t62 391q-45 -9 -70 -17zM591 622l-56 80q125 73 197 73q41 0 58 -16.5t17 -62t-44.5 -256.5t-44.5 -296t31 -120q-70 -49 -127 -49t-83.5 37.5t-26.5 103.5t37 270t42 236z" />
    <glyph glyph-name="CR" horiz-adv-x="0" 
 />
    <glyph glyph-name="apple" horiz-adv-x="831" 
d="M578 712q-32 -47 -51 -89q105 100 191 100q62 0 100.5 -39t38.5 -102.5t-20 -124.5q-60 15 -105 71q-19 23 -36 44q-42 51 -88 51t-92 -24l-9 -20q87 -20 133 -88.5t46 -158.5q0 -66 -24.5 -131t-70 -118.5t-118.5 -87t-160 -33.5q-30 -39 -61 -39q-20 0 -20 62
q-120 99 -120 257q0 134 97.5 239t239.5 105l12 30q-39 29 -83 29t-89 -24.5t-82 -54.5t-89.5 -60.5t-99.5 -40.5q0 142 65 219.5t160 77.5q61 0 120.5 -34t103.5 -98l25 67q12 31 39.5 31t46.5 -16z" />
    <glyph glyph-name="leaf" horiz-adv-x="831" 
d="M295 4q40 52 70 124t100 244q-40 27 -63.5 35.5t-70 8.5t-100.5 -24.5t-106 -62.5t-105 -77q-130 -97 -243 -119q0 114 29 204.5t79 146.5q102 116 246 116q94 0 185.5 -51t160.5 -147l42 101q30 71 80 71q32 0 57 -21q-33 -28 -64.5 -104.5t-157.5 -403.5
q19 -3 65.5 -29.5t89.5 -26.5t96 25.5t104 63t103.5 76.5t118 71.5t129.5 42.5q-37 -224 -160 -350.5t-270 -126.5q-98 0 -163 57t-121 178q-10 -28 -23 -40t-36 -12q-45 0 -72 30z" />
    </font>
</defs>
</svg>
