<?xml version="1.0" encoding="utf-8"?>
<!-- Generator: Adobe Illustrator 22.1.0, SVG Export Plug-In . SVG Version: 6.00 Build 0)  -->
<svg version="1.1" id="Layer_1" xmlns="http://www.w3.org/2000/svg" xmlns:xlink="http://www.w3.org/1999/xlink" x="0px" y="0px"
	 viewBox="0 0 512 512" style="enable-background:new 0 0 512 512;" xml:space="preserve">
<style type="text/css">
	.st0{clip-path:url(#SVGID_2_);fill:#4A148C;}
	.st1{clip-path:url(#SVGID_4_);fill:#7B1FA2;}
	.st2{clip-path:url(#SVGID_6_);fill:#9C27B0;}
	.st3{clip-path:url(#SVGID_8_);fill:#BA68C8;}
	.st4{clip-path:url(#SVGID_10_);fill:#4A148C;}
	.st5{fill:#FFFFFF;}
</style>
<g>
	<g>
		<defs>
			<rect id="SVGID_1_" width="512" height="512"/>
		</defs>
		<clipPath id="SVGID_2_">
			<use xlink:href="#SVGID_1_"  style="overflow:visible;"/>
		</clipPath>
		<path class="st0" d="M448,415.4c23.1-13.4,42.1-46.1,42.1-72.8v-86.2L139.3,458.9L214,502c23.1,13.4,61,13.4,84.1,0L448,415.4z"/>
	</g>
</g>
<g>
	<g>
		<defs>
			<rect id="SVGID_3_" width="512" height="512"/>
		</defs>
		<clipPath id="SVGID_4_">
			<use xlink:href="#SVGID_3_"  style="overflow:visible;"/>
		</clipPath>
		<path class="st1" d="M490.1,169.4c0-13.3-4.7-28-12.2-41.1l-443.4,256c7.6,13.1,18,24.5,29.5,31.1l75.5,43.6l350.6-202.4V169.4
			L490.1,169.4z"/>
	</g>
</g>
<g>
	<g>
		<defs>
			<rect id="SVGID_5_" width="512" height="512"/>
		</defs>
		<clipPath id="SVGID_6_">
			<use xlink:href="#SVGID_5_"  style="overflow:visible;"/>
		</clipPath>
		<path class="st2" d="M448,96.6l-74.8-43.2L22,256.2v86.4c0,13.5,4.8,28.5,12.5,41.7l443.4-256C470.3,115,459.7,103.3,448,96.6z"/>
	</g>
</g>
<g>
	<g>
		<defs>
			<rect id="SVGID_7_" width="512" height="512"/>
		</defs>
		<clipPath id="SVGID_8_">
			<use xlink:href="#SVGID_7_"  style="overflow:visible;"/>
		</clipPath>
		<path class="st3" d="M373.5,53.5L298.1,10c-21.6-12.5-56-13.3-79.3-2.5l-159.3,92c-21,14.8-37.5,45-37.5,69.9v87.1L373.5,53.5z"/>
	</g>
</g>
<g>
	<g>
		<defs>
			<rect id="SVGID_9_" width="512" height="512"/>
		</defs>
		<clipPath id="SVGID_10_">
			<use xlink:href="#SVGID_9_"  style="overflow:visible;"/>
		</clipPath>
		<path class="st4" d="M448,402.8l-149.9,86.6c-23.1,13.4-61,13.4-84.1,0L64,402.8c-23.1-13.3-42-46.1-42-72.8v12.6
			c0,26.7,18.9,59.5,42.1,72.8L214,502c23.1,13.4,61,13.4,84.1,0L448,415.4c23.1-13.4,42.1-46.1,42.1-72.8V330
			C490.1,356.7,471.1,389.5,448,402.8z"/>
	</g>
</g>
<g>

		<image style="overflow:visible;opacity:0.5;enable-background:new    ;" width="406" height="283" xlink:href="92C559DE.png"  transform="matrix(1 0 0 1 66 131)">
	</image>
	<g>
		<g>
			<path class="st5" d="M134.7,277.4c-1.1,6.5-1.6,11.5-1.6,15c0,17.6,2.7,30.7,8.2,39.4c-10.9,8.2-22.2,12.2-34,12.2
				s-20.2-3.4-25.3-10.2c-5.1-6.8-7.6-17-7.6-30.5s5.7-51.8,17.1-114.9l-14.5-29c20.5-13.2,39.2-19.9,56-19.9
				c4.7,0,9.9,0.9,15.5,2.6c5.6,1.7,9.6,3.7,12,5.8c13.4-5.3,25.8-7.9,37.3-7.9c17,0,30.5,5.9,40.4,17.8
				c9.9,11.9,14.8,26.2,14.8,43.1c0,20.3-7.3,38.4-22,54.4c-7.1,7.8-16.6,14.1-28.6,18.8c-12,4.7-24.2,7.1-36.6,7.1
				C153.4,281.2,143,280,134.7,277.4z M139.9,246.4c2.5,0.5,5.2,0.8,7.9,0.8c11.6,0,21.9-4.1,31-12.2c9.1-8.2,13.6-18.2,13.6-30.2
				c0-8.3-2.4-15.4-7.2-21.2s-11.6-8.7-20.3-8.7c-3.6,0-7.8,0.7-12.5,2.2C148.8,201.9,144.6,225,139.9,246.4z"/>
			<path class="st5" d="M298.2,391.1c-11.2,0-19.1-2.8-23.5-8.3s-6.7-13.5-6.7-23.9s2.2-31.4,6.7-63c4.4-31.6,8.7-58.5,12.9-80.8
				l-15.2-21.8c11.2-6.5,20.9-11.5,29.1-14.8c8.2-3.4,16.2-5,24.2-5c13.1,0,19.6,8.6,19.6,25.8c0,2.4-0.4,7.2-1.1,14.4l2.7,1.4
				c5.3-13.1,12.9-23.3,22.8-30.6c10-7.3,21.7-11,35.2-11s24.3,6.1,32.2,18.4c8,12.2,12,27.4,12,45.6c0,24.3-8.5,46.4-25.6,66.4
				c-8.3,9.8-19.5,17.7-33.5,23.8c-14,6.1-29.6,9.1-46.8,9.1c-5.3,0-12.2-0.5-20.7-1.4c-0.5,6.3-0.8,12.2-0.8,17.7
				c0,11.6,2.8,19.9,8.4,24.8C320.1,386.7,309.4,391.1,298.2,391.1z M333.8,278.5l-6.3,31.6c21.9-0.5,39.5-7.8,52.6-21.6
				c13.1-13.9,19.7-29.1,19.7-45.6c0-8.5-1.7-15.4-5-20.5c-3.4-5.2-8.2-7.8-14.6-7.8C357.8,214.6,342.3,235.9,333.8,278.5z"/>
		</g>
	</g>
</g>
</svg>
